<svg width="27" height="22" viewBox="0 0 27 22" fill="none" xmlns="http://www.w3.org/2000/svg">
<path d="M7.24997 1C6.47278 1 5.82951 1.64714 5.82951 2.42858V3.28577H1.56813C1.5503 3.28497 1.53266 3.28497 1.51482 3.28577C1.22193 3.31347 0.998586 3.5614 1.00001 3.85715V20.4286C1.00001 20.7441 1.25425 21 1.56814 21H25.4319C25.7458 21 26 20.7441 26 20.4286V3.85715C26 3.54166 25.7458 3.28577 25.4319 3.28577H21.1705V2.42858C21.1705 1.64714 20.5272 1 19.75 1H18.6138C17.8366 1 17.1933 1.64714 17.1933 2.42858V3.28577H9.80691V2.42858C9.80691 1.64714 9.16364 1 8.38645 1H7.24997ZM7.24997 2.14276H8.38624C8.55349 2.14276 8.67041 2.26035 8.67041 2.42855V5.28571C8.67041 5.45391 8.55349 5.5715 8.38624 5.5715H7.24997C7.08272 5.5715 6.9658 5.45391 6.9658 5.28571V2.42855C6.9658 2.26035 7.08272 2.14276 7.24997 2.14276ZM18.6136 2.14276H19.7499C19.9172 2.14276 20.0341 2.26035 20.0341 2.42855V5.28571C20.0341 5.45391 19.9172 5.5715 19.7499 5.5715H18.6136C18.4464 5.5715 18.3295 5.45391 18.3295 5.28571V2.42855C18.3295 2.26035 18.4464 2.14276 18.6136 2.14276ZM2.13631 4.42853H5.82956V5.28573C5.82956 6.06716 6.47283 6.7143 7.25002 6.7143H8.38629C9.16348 6.7143 9.80675 6.06716 9.80675 5.28573V4.42853H17.1931V5.28573C17.1931 6.06716 17.8364 6.7143 18.6136 6.7143H19.7499C20.5271 6.7143 21.1703 6.06716 21.1703 5.28573V4.42853H24.8636V7.85706H2.13621L2.13631 4.42853ZM2.13631 9.00007H8.95452V11.8572H2.13631V9.00007ZM10.0909 9.00007H12.9318V11.8572H10.0909V9.00007ZM14.0681 9.00007H16.909V11.8572H14.0681V9.00007ZM18.0455 9.00007H20.8864V11.8572H18.0455V9.00007ZM22.0227 9.00007H24.8636V11.8572H22.0227V9.00007ZM2.13621 13H4.97713V15.8571H2.13621V13ZM6.1134 13H8.95432V15.8571H6.1134V13ZM10.0908 13H12.9317V15.8571H10.0908V13ZM14.068 13H16.9089V15.8571H14.068V13ZM18.0454 13H20.8863V15.8571H18.0454V13ZM22.0226 13H24.8635V15.8571H22.0226V13ZM2.13611 17.0001H4.97703V19.8572H2.13611V17.0001ZM6.1133 17.0001H8.95422V19.8572H6.1133V17.0001ZM10.0907 17.0001H12.9316V19.8572H10.0907V17.0001ZM14.0679 17.0001H16.9088V19.8572H14.0679V17.0001ZM18.0453 17.0001H20.8862V19.8572H18.0453V17.0001ZM22.0225 17.0001H24.8634V19.8572H22.0225V17.0001Z" fill="#0459A1" stroke="#0459A1"/>
</svg>
