<svg width="24" height="37" viewBox="0 0 24 37" fill="none" xmlns="http://www.w3.org/2000/svg">
<path d="M23.3348 34.6193C23.314 34.3269 23.2931 34.0555 23.2513 33.784C23.2304 33.6587 23.2304 33.5125 23.2095 33.3872C23.2095 33.3245 23.2095 33.2619 23.2095 33.2201V33.0113V32.1968L23.1887 28.8973C23.1469 24.5118 23.0842 20.1263 23.0425 15.7408C23.0007 13.548 22.9798 11.3553 22.9381 9.18343C22.9172 8.93283 22.9589 8.66135 22.9798 8.38987C23.0007 8.11839 23.0216 7.82602 23.0007 7.53365C23.0007 7.38747 22.9798 7.24129 22.9589 7.0951C22.9381 6.90715 22.8545 6.74009 22.7501 6.5939C22.6248 6.4686 22.4369 6.38507 22.2698 6.36419C22.1027 6.3433 21.9566 6.32242 21.8104 6.32242C21.2465 6.32242 20.6827 6.40595 20.1606 6.44772L18.5317 6.4686C18.5108 6.4686 18.4899 6.4686 18.469 6.4686C18.4482 6.00917 18.4273 5.54974 18.3855 5.11119C18.3437 4.54734 18.0305 4.12967 17.6546 4.12967C17.6546 4.04614 17.6128 3.96261 17.5084 3.96261L16.4642 3.85819L16.3389 3.83731C16.3181 3.83731 16.2972 3.83731 16.2554 3.83731H16.1928H15.9213C15.8795 3.83731 15.8377 3.83731 15.796 3.83731C15.7751 3.79554 15.7542 3.73289 15.7333 3.69112L15.3574 2.85579C15.1068 2.29194 14.8562 1.70721 14.3968 1.14336C13.9374 0.579512 13.1856 0.182729 12.4755 0.0783124L12.204 0.0365459C12.1205 0.0365459 12.037 0.0156625 11.9534 0.0156625C11.7864 -0.00522083 11.5984 -0.00522083 11.4105 0.0156625C11.0555 0.0365458 10.7004 0.120079 10.3454 0.245379C9.80246 0.433329 9.32215 0.725695 8.8836 1.10159C8.67476 1.28954 8.48682 1.51926 8.31975 1.74898C8.23622 1.87428 8.15268 1.97869 8.09003 2.10399L7.98562 2.29194C7.92297 2.39636 7.90208 2.50078 7.8812 2.58431C7.79767 2.89756 7.77678 3.12728 7.73502 3.33611L7.71413 3.46141C7.69325 3.46141 7.65148 3.48229 7.58883 3.48229C7.5053 3.50317 7.42177 3.50318 7.31735 3.50318C7.10852 3.50318 6.89968 3.50318 6.66997 3.50318C6.23142 3.48229 5.81375 3.77466 5.81375 4.12967C5.73022 4.12967 5.64668 4.19232 5.64668 4.31762C5.56315 4.98589 5.43785 5.65416 5.3752 6.36419C5.14549 6.30154 4.85312 6.23889 4.47722 6.17624C4.26839 6.15536 4.03867 6.11359 3.80895 6.09271C3.57924 6.05094 3.32864 6.00917 3.07804 5.96741C2.80656 5.92564 2.49331 5.88387 2.18006 5.86299C2.01299 5.86299 1.84592 5.84211 1.65797 5.86299C1.47002 5.88387 1.26119 5.88387 0.968824 6.00917L0.864408 6.05094C0.592925 6.19712 0.384092 6.4686 0.279675 6.74009C0.175259 7.01157 0.175259 7.24129 0.154376 7.42924C0.154376 7.61719 0.175259 7.78425 0.175259 7.93044C0.175259 8.07662 0.196142 8.18104 0.175259 8.3481V10.2067V13.9448V21.4211V28.8973V30.7559C0.175259 31.0065 0.133492 31.3406 0.112609 31.633L0.0499594 32.5727C0.00819275 33.1992 -0.0126907 33.8466 0.00819259 34.5149C0.0290759 34.849 0.0499589 35.1832 0.133492 35.5591C0.175259 35.747 0.237909 35.9349 0.321442 36.1438L0.404975 36.3108C0.446742 36.3735 0.488508 36.4362 0.551158 36.4988C0.592925 36.5615 0.655575 36.6032 0.718225 36.6659L0.906175 36.7912C1.11501 36.8747 1.19854 36.8956 1.34472 36.9373C1.47002 36.9582 1.59532 36.9791 1.69974 36.9791C1.92946 37 2.13829 37 2.32624 37C2.72302 36.9791 3.1198 36.9582 3.47482 36.9165C3.7463 36.8956 4.01779 36.8538 4.2475 36.8538H5.06195H6.71173H10.0113L16.6104 36.8329L19.91 36.8121H20.7244C20.9959 36.8121 21.2883 36.8121 21.518 36.8121C21.6433 36.8121 21.7895 36.8329 21.9565 36.8329C22.1236 36.8329 22.416 36.7912 22.6457 36.6659C22.8754 36.5406 23.0634 36.3109 23.1678 36.1229C23.2095 36.0394 23.2513 35.9349 23.2931 35.8305C23.314 35.7261 23.3348 35.6426 23.3557 35.5591C23.3557 35.2249 23.3557 34.9117 23.3348 34.6193ZM6.58643 4.83971C6.83703 4.86059 7.08763 4.86059 7.35912 4.83971C7.5053 4.83971 7.65148 4.81882 7.79767 4.79794C7.94385 4.77706 8.11091 4.73529 8.36151 4.60999C8.57035 4.48469 8.7583 4.33851 8.86271 4.12967C8.92536 4.02526 8.94625 3.92084 8.98801 3.79554C9.0089 3.71201 9.02978 3.64936 9.02978 3.58671C9.07155 3.33611 9.11331 3.08551 9.15508 2.93933C9.15508 2.89756 9.17596 2.87668 9.17596 2.89756L9.23861 2.77226C9.28038 2.68873 9.34303 2.60519 9.40568 2.52166C9.5101 2.35459 9.6354 2.22929 9.78158 2.08311C10.0739 1.83251 10.4081 1.62368 10.784 1.49838C11.0137 1.41484 11.2643 1.35219 11.494 1.33131C11.6193 1.31043 11.7446 1.31043 11.8699 1.33131H12.0579L12.2458 1.35219C12.4964 1.37308 12.7261 1.43573 12.9141 1.54014C13.1229 1.64456 13.3109 1.76986 13.4779 1.93693C13.8329 2.29194 14.1253 2.77226 14.4386 3.29434L14.8771 4.02526C14.8771 4.04614 14.8771 4.06702 14.8771 4.10879C14.8771 4.17144 14.8771 4.19232 14.8771 4.21321C14.898 4.31762 14.9189 4.33851 14.9398 4.38027C14.9815 4.44292 15.0233 4.50557 15.0651 4.54734C15.0859 4.56822 15.1277 4.60999 15.1904 4.65176C15.1904 4.65176 15.2321 4.67264 15.253 4.69352L15.2948 4.71441C15.3157 4.71441 15.3574 4.73529 15.3783 4.73529C15.3992 4.73529 15.441 4.73529 15.4618 4.73529C15.5036 4.73529 15.5663 4.71441 15.608 4.69352C15.7124 4.65176 15.7542 4.58911 15.796 4.52646C15.8377 4.52646 15.8795 4.50557 15.9213 4.50557L16.1928 4.46381H16.2554C16.2763 4.46381 16.2763 4.46381 16.3181 4.46381L16.4434 4.44292L17.2787 4.35939C17.1116 4.56822 17.0072 4.90236 17.049 5.23649C17.0907 5.77946 17.1325 6.32242 17.1325 6.82362C17.1325 7.07422 17.1325 7.32482 17.1116 7.55454C17.1116 7.61719 17.0907 7.65895 17.0907 7.7216C17.0907 7.76337 17.0699 7.82602 17.0699 7.82602H17.049C17.0281 7.82602 17.0072 7.82602 17.0072 7.82602C16.8819 7.82602 16.7357 7.82602 16.5895 7.82602C16.2763 7.80514 15.9839 7.78425 15.6498 7.74249C15.5036 7.7216 15.253 7.7216 15.1068 7.7216H14.5847H13.6032C12.3293 7.7216 11.0763 7.74249 9.80246 7.76337L8.86271 7.78425C8.54946 7.80514 8.2571 7.78425 7.86032 7.8469C7.52618 7.88867 7.23382 7.93044 6.94145 7.9722C6.79527 7.99309 6.64908 7.99309 6.52378 7.99309C6.35672 7.99309 6.3776 7.99309 6.31495 7.99309C6.2523 7.9722 6.23142 7.93044 6.21053 7.86779C6.16877 7.74249 6.127 7.5963 6.10612 7.42924C6.06435 7.11599 6.04347 6.78185 6.02258 6.42684C6.0017 5.82122 6.0017 5.19472 5.98082 4.56822C6.10612 4.71441 6.31495 4.81882 6.58643 4.83971ZM22.416 8.32722C22.3951 8.5987 22.3533 8.87018 22.3533 9.16255C22.3116 11.3553 22.2907 13.548 22.2489 15.7199C22.2071 20.1054 22.1445 24.4909 22.1027 28.8764L22.0818 32.176V32.9904V33.1992C22.0818 33.2828 22.0818 33.3663 22.0818 33.429C22.0818 33.5751 22.1027 33.7213 22.1027 33.8675C22.1236 34.139 22.1445 34.4105 22.1654 34.6611C22.1863 34.9117 22.1654 35.1623 22.1445 35.3502C22.1445 35.392 22.1236 35.4338 22.1236 35.4755C22.1027 35.4964 22.1027 35.5382 22.0818 35.5591C22.061 35.6008 22.061 35.6008 22.0401 35.6008C22.0192 35.6008 22.0401 35.6008 21.9357 35.6008C21.8312 35.6008 21.7059 35.6008 21.5598 35.5799C21.2465 35.5591 20.9959 35.5799 20.7036 35.5591H19.8891L16.5895 35.5382L9.99041 35.5591H6.69085H5.04107H4.20574C3.8716 35.5591 3.60012 35.6008 3.32864 35.6217C2.95274 35.6635 2.59772 35.6844 2.26359 35.7052C2.09652 35.7052 1.92946 35.7052 1.78327 35.6844C1.69974 35.6844 1.65797 35.6635 1.59532 35.6635C1.57444 35.6635 1.51179 35.6426 1.51179 35.6426C1.51179 35.6217 1.49091 35.6217 1.49091 35.6008C1.44914 35.5382 1.42826 35.4338 1.40737 35.3085C1.36561 35.0579 1.32384 34.7864 1.32384 34.494C1.30296 33.9093 1.32384 33.3037 1.36561 32.698L1.42826 31.7792C1.44914 31.4659 1.49091 31.1736 1.49091 30.7977V28.939V21.4628V7.24129H1.51179C1.53267 7.24129 1.53267 7.24129 1.55356 7.2204C1.59532 7.2204 1.65797 7.19952 1.72062 7.19952C1.84592 7.17864 1.97122 7.17864 2.11741 7.17864C2.38889 7.17864 2.66037 7.19952 2.95274 7.19952C3.22422 7.19952 3.47482 7.2204 3.78807 7.19952C4.03867 7.17864 4.26839 7.15775 4.47722 7.11599C4.81135 7.07422 5.10372 7.01157 5.33344 6.94892C5.33344 7.11599 5.31255 7.30394 5.31255 7.471C5.31255 7.65895 5.33344 7.8469 5.3752 8.05574C5.39609 8.18104 5.45874 8.32722 5.52139 8.45252C5.58404 8.57782 5.68845 8.68223 5.81375 8.76577C6.02258 8.89107 6.35672 8.95372 6.5029 8.95372C6.69085 8.9746 6.85792 8.9746 7.02498 8.9746C7.35912 8.9746 7.69325 8.95372 7.98562 8.93283C8.23622 8.91195 8.57035 8.95372 8.8836 8.95372L9.82335 8.9746C11.0972 9.01637 12.3502 9.01637 13.6241 9.01637H14.6056H15.0859C15.2739 9.01637 15.3365 9.01637 15.5245 9.03725C15.8377 9.05813 16.1719 9.0999 16.5269 9.12078C16.694 9.12078 16.8819 9.14167 17.0699 9.12078C17.0907 9.12078 17.1116 9.12078 17.1534 9.12078H17.2578C17.3413 9.12078 17.4249 9.0999 17.5084 9.07902L17.6337 9.05813L17.7381 9.01637C17.8008 8.99548 17.8843 8.95372 17.947 8.91195C18.1558 8.74488 18.302 8.51517 18.3646 8.24369C18.4064 8.0975 18.4273 8.03485 18.4273 7.95132C18.4482 7.86779 18.4482 7.78425 18.469 7.70072C18.5108 7.38747 18.5108 7.11599 18.5108 6.82362C18.5317 6.82362 18.5526 6.82362 18.5526 6.82362L20.1815 6.8445C20.4947 6.8445 20.7453 6.80274 21.0168 6.80274C21.2883 6.78185 21.5598 6.78185 21.8104 6.78185C21.9357 6.78185 22.0818 6.80274 22.1654 6.82362C22.2489 6.8445 22.3324 6.86539 22.3951 6.92804C22.4577 6.99069 22.4577 7.07422 22.4786 7.17864C22.4995 7.28305 22.4995 7.42924 22.4995 7.55454C22.4786 7.80514 22.4577 8.07662 22.416 8.32722Z" fill="#1351B4"/>
<path d="M11.181 5.7792C11.3272 5.84185 11.4734 5.7792 11.5778 5.67479C11.6822 5.57037 11.724 5.4033 11.7448 5.21536C11.7448 5.02741 11.724 4.86034 11.7031 4.73504C11.6822 4.60974 11.6613 4.54709 11.6195 4.52621C11.4734 4.48444 11.3689 4.35914 11.3481 4.17119C11.3272 3.98324 11.3898 3.83706 11.4942 3.77441C11.5569 3.71176 11.7866 3.69087 11.891 3.71176C12.0163 3.73264 12.1207 3.77441 12.2251 3.96236C12.4131 4.29649 12.3922 4.86034 11.8075 5.06917C11.7657 5.09006 11.7448 5.17359 11.7448 5.23624C11.7448 5.31977 11.7657 5.40331 11.8284 5.40331C12.0163 5.42419 12.2251 5.42419 12.434 5.36154L12.5802 5.29889C12.6219 5.27801 12.6637 5.23624 12.7263 5.21536C12.8308 5.15271 12.8934 5.06917 12.9769 4.98564C13.2693 4.63062 13.3737 4.15031 13.2693 3.66999C13.2275 3.44027 13.1231 3.18967 12.9561 2.98084C12.789 2.77201 12.5593 2.60494 12.3087 2.52141C12.246 2.50053 12.1834 2.47964 12.1207 2.45876C12.0581 2.43788 11.9954 2.43788 11.9328 2.43788L11.7448 2.41699C11.6822 2.41699 11.6195 2.41699 11.5569 2.43788L11.3689 2.45876C11.3063 2.47964 11.2436 2.50053 11.181 2.52141C11.1183 2.54229 11.0557 2.56318 10.993 2.58406C10.9304 2.62583 10.8677 2.64671 10.8051 2.68848C9.5312 3.46116 9.86534 5.34066 11.181 5.7792Z" fill="#1351B4"/>
<path d="M19.1374 11.7933L18.9077 11.6471L18.678 11.5427C18.5318 11.4592 18.3647 11.3965 18.1768 11.3548C17.8009 11.2504 17.3832 11.2712 17.07 11.3757C16.9029 11.4174 16.7776 11.4592 16.6523 11.501L16.5688 11.5218L16.527 11.5427L16.4435 11.5636L16.0884 11.6263L15.9423 11.8351L15.9214 11.856L15.9005 11.8351L15.8378 11.7516C15.5246 11.5845 15.3575 11.5427 15.1278 11.4801C14.919 11.4383 14.6893 11.4174 14.4804 11.4383C14.0419 11.4592 13.6242 11.6054 13.2692 11.8351C12.58 12.3154 12.1624 13.109 12.1624 13.8817C12.1624 14.0278 12.2459 14.0905 12.3294 14.0905C12.413 14.0905 12.4965 14.0278 12.5174 13.9025C12.6427 13.2343 13.0604 12.6704 13.6242 12.3989C13.8957 12.2736 14.2089 12.211 14.5013 12.2319C14.6475 12.2319 14.7937 12.2736 14.9399 12.3154C15.0652 12.3572 15.2322 12.4407 15.2531 12.4616V12.4825L15.274 12.5034C15.3158 12.5451 15.3575 12.6078 15.4202 12.6495C15.5246 12.754 15.7125 12.8584 15.9631 12.8793C16.2137 12.8793 16.4017 12.7748 16.527 12.6704L16.6523 12.5451C16.6732 12.5451 16.6732 12.5451 16.7149 12.5451H16.7358L16.7985 12.5242L16.9029 12.5034C17.0491 12.4825 17.1953 12.4407 17.2997 12.4198C17.5294 12.3781 17.6756 12.3989 17.8635 12.4407C17.9471 12.4616 18.0515 12.5242 18.135 12.566L18.2812 12.6495L18.4065 12.754C18.5736 12.8793 18.678 13.0254 18.7824 13.1925C18.8659 13.3596 18.8868 13.5266 18.9077 13.7146C18.9077 13.9025 18.8659 14.1114 18.8033 14.3202C18.678 14.7379 18.3856 15.1347 18.0724 15.4479C17.9053 15.5941 17.6129 15.8238 17.4041 16.0326C17.1744 16.2415 16.9447 16.4294 16.7149 16.5965C16.4852 16.7636 16.2555 16.9097 16.1093 16.9515L16.0467 16.9724L16.0258 16.9515C15.9423 16.9097 15.8587 16.868 15.7752 16.8262C15.274 16.5965 14.7937 16.2832 14.3551 15.9282C13.9166 15.5732 13.5198 15.1764 13.2901 14.7379C13.1857 14.529 13.0604 14.4037 12.9142 14.2784C12.768 14.174 12.6009 14.0487 12.413 14.0487C12.225 14.0487 12.058 14.174 11.9744 14.4455C11.9118 14.6961 11.9535 15.072 12.1206 15.3853C12.4965 16.0326 12.9977 16.5338 13.5198 16.9515C14.0419 17.3692 14.6057 17.7242 15.2322 18.0374C15.2949 18.0583 15.3575 18.1001 15.3993 18.121C15.4828 18.1836 15.629 18.288 15.7752 18.3298C15.9005 18.3716 16.0467 18.3716 16.1929 18.3298C16.2764 18.3089 16.339 18.288 16.4017 18.2463L16.5479 18.2045C16.9864 18.0583 17.2579 17.8495 17.5503 17.6407C17.8218 17.4318 18.0724 17.223 18.3021 17.0142L18.6362 16.7218L18.7197 16.6591L18.8242 16.5756C18.8868 16.513 18.9703 16.4503 19.033 16.3877C19.5133 15.9073 19.8892 15.3644 20.098 14.6961C20.2025 14.362 20.2442 14.007 20.2442 13.6311C20.2233 13.2552 20.1189 12.8793 19.931 12.5451C19.6804 12.2736 19.4298 11.9813 19.1374 11.7933Z" fill="#1351B4"/>
<path d="M4.16406 12.608H6.04356C7.06684 12.608 8.11101 12.4409 9.13429 12.1068C9.19694 12.0859 9.19694 11.7936 9.13429 11.7727C8.11101 11.4385 7.06684 11.2715 6.04356 11.2715H4.16406C4.01788 11.2715 3.89258 11.5639 3.89258 11.9397C3.89258 12.3156 3.99699 12.608 4.16406 12.608Z" fill="#1351B4"/>
<path d="M4.16406 15.6783H6.04356C7.06684 15.6783 8.11101 15.5113 9.13429 15.1771C9.19694 15.1562 9.19694 14.8639 9.13429 14.843C8.11101 14.5089 7.08772 14.3418 6.04356 14.3418H4.16406C4.01788 14.3418 3.89258 14.6342 3.89258 15.0101C3.89258 15.3651 3.99699 15.6783 4.16406 15.6783Z" fill="#1351B4"/>
<path d="M4.16406 18.7477H6.04356C7.06684 18.7477 8.11101 18.5806 9.13429 18.2465C9.19694 18.2256 9.19694 17.9332 9.13429 17.9123C8.11101 17.5782 7.06684 17.4111 6.04356 17.4111H4.16406C4.01788 17.4111 3.89258 17.7035 3.89258 18.0794C3.89258 18.4344 3.99699 18.7477 4.16406 18.7477Z" fill="#1351B4"/>
<path d="M19.3043 26.8506L17.2787 26.7253C16.9236 26.7044 16.6313 26.6836 16.2971 26.6418C15.963 26.6 15.6289 26.5583 15.2739 26.5374C14.9189 26.5165 14.5638 26.4956 14.1671 26.5583C14.1253 26.5583 14.0626 26.5791 14.0209 26.5791C13.9582 26.6 13.9165 26.6 13.8538 26.6209C13.7494 26.6627 13.6032 26.7253 13.5406 26.788C13.3526 26.9133 13.2064 27.0595 13.0811 27.2265C12.5799 27.8321 12.3084 28.4795 12.037 29.1269L11.849 29.6072L11.7655 29.8161L11.7446 29.8369C11.7237 29.8787 11.7028 29.8996 11.6819 29.9205C11.6819 29.9205 11.6611 29.9414 11.6611 29.9205L11.6402 29.8578C11.6402 29.8161 11.6193 29.7952 11.6193 29.7743L10.8884 27.9992L10.0948 26.1406L7.77676 20.7109L6.16874 24.4699L5.66755 25.6394L5.6049 25.7856C5.58401 25.8482 5.56313 25.9109 5.54225 25.9735L5.43783 26.2659L5.39606 26.3912C5.39606 26.4121 5.37518 26.4538 5.37518 26.4538C5.37518 26.4538 5.33341 26.4538 5.27076 26.4538C4.95751 26.4538 4.6025 26.4956 4.33101 26.5791C4.05953 26.6627 3.87158 26.8297 3.87158 27.0177C3.87158 27.2056 3.99688 27.3727 4.24748 27.5189C4.49808 27.6651 4.83221 27.7904 5.31253 27.7904C5.41695 27.7904 5.50048 27.7904 5.68843 27.7486C5.8555 27.7277 6.00168 27.6651 6.12698 27.5815C6.29405 27.4562 6.44023 27.3101 6.54465 27.1221C6.6073 27.0177 6.62818 26.9759 6.64906 26.8924L6.71171 26.7253L6.81613 26.4121L6.85789 26.3077L6.92055 26.1615L7.42174 24.992L7.79764 24.1149L8.88357 26.6836L9.67714 28.5422L10.5334 30.4843L10.9301 31.3823L11.1181 31.8209L11.306 32.2176L11.6819 32.9903C11.7446 33.2409 11.8072 32.9277 11.849 32.8233L12.0161 32.4056L12.3293 31.5703C12.4337 31.2779 12.5382 30.9855 12.6217 30.6723L12.9976 29.4819C13.2064 28.8763 13.4361 28.2498 13.7703 27.7904C13.8538 27.686 13.9373 27.5815 14.0209 27.5189C14.0626 27.4771 14.1044 27.4771 14.1462 27.4354C14.1671 27.4145 14.1879 27.4145 14.2297 27.3936C14.2506 27.3727 14.2924 27.3727 14.3132 27.3727C14.5847 27.3101 14.898 27.2892 15.2321 27.2892C15.5662 27.2892 15.9004 27.2892 16.2345 27.3101C16.5686 27.3309 16.9445 27.3101 17.2578 27.2892L19.2835 27.1639C19.6594 27.1848 19.6594 26.8715 19.3043 26.8506Z" fill="#1351B4"/>
</svg>
