<svg width="23" height="33" viewBox="0 0 23 33" fill="none" xmlns="http://www.w3.org/2000/svg">
<path d="M11.1384 14.019C15.0097 14.019 18.1479 10.8808 18.1479 7.00951C18.1479 3.13827 15.0097 0 11.1384 0C7.26717 0 4.12891 3.13827 4.12891 7.00951C4.12891 10.8808 7.26717 14.019 11.1384 14.019Z" fill="#1351B4"/>
<path d="M15.6152 15.3379C14.2966 16.0666 12.7351 16.483 11.1389 16.483C9.50795 16.483 7.98113 16.0666 6.66251 15.3379C2.91485 15.8931 0 19.0856 0 23.0067V31.3348C0 32.2371 0.728712 33.0005 1.66563 33.0005H20.6468C21.549 33.0005 22.3125 32.2718 22.3125 31.3348V23.0067C22.2778 19.0856 19.3976 15.8584 15.6152 15.3379ZM13.0474 29.3569L11.3471 30.9184C11.243 31.0225 11.0695 31.0225 10.9654 30.9184L9.26505 29.3569C9.19565 29.2875 9.16095 29.1834 9.16095 29.0793L10.5143 21.3758C10.5143 21.3758 10.0979 21.3758 9.82026 21.3758C9.64675 21.3758 9.54265 21.237 9.54265 21.0982C9.54265 20.5777 9.54265 19.5367 9.54265 19.0161C9.54265 18.8426 9.68146 18.7385 9.82026 18.7385H12.4922C12.6657 18.7385 12.7698 18.8773 12.7698 19.0161V21.0982C12.7698 21.2717 12.631 21.3758 12.4922 21.3758C12.2146 21.3758 11.7982 21.3758 11.7982 21.3758L13.1515 29.0793C13.1515 29.1834 13.1168 29.2875 13.0474 29.3569Z" fill="#1351B4"/>
</svg>
