<svg width="72" height="37" viewBox="0 0 72 37" fill="none" xmlns="http://www.w3.org/2000/svg">
<path d="M24.721 12.6399C24.9459 12.415 25.0958 12.2651 25.3207 12.0403C29.743 8.14266 35.6643 6.2688 41.2859 6.64357C43.9093 6.86843 46.3828 7.54302 48.7064 8.59238C50.7301 7.01834 53.1287 5.2944 55.902 3.19568C51.4047 0.872101 46.2329 -0.252212 41.2859 0.047605C34.0153 0.422376 27.1196 3.79531 22.5474 8.96715C22.5474 8.96715 22.5474 8.96715 22.5474 9.0421L24.721 12.6399Z" fill="#1351B4"/>
<path d="M63.0974 8.51758C60.8488 11.5157 58.9 14.0642 57.251 16.2379C58.825 18.7863 59.7245 21.6346 60.0243 24.5578C60.0992 25.0824 60.549 25.5322 61.1486 25.5322H70.0681C70.7427 25.5322 71.2674 24.9325 71.1924 24.183C70.0681 18.2616 67.2199 12.715 63.0974 8.51758Z" fill="#1351B4"/>
<path d="M61.8983 4.46996C62.348 3.87032 61.5985 3.04583 60.9989 3.57051C56.1269 7.24326 47.732 13.6144 42.86 17.3621C42.3353 17.2122 41.8106 17.1372 41.211 17.1372C37.3134 17.1372 34.0903 20.2853 34.0903 24.2579C34.0903 28.1555 37.2384 31.3785 41.211 31.3785C45.1835 31.3785 48.3316 28.2304 48.3316 24.2579C48.3316 23.7332 48.2567 23.1335 48.1068 22.6089C51.9294 17.7368 58.2256 9.34198 61.8983 4.46996Z" fill="#1351B4"/>
<path d="M18.7995 11.1401C17.3754 8.81657 14.0774 8.81657 12.6533 11.1401L0.510725 31.6026C-0.913403 34.0012 0.810542 36.9993 3.58385 36.9993H27.9439C30.7172 36.9993 32.4412 34.0012 31.0171 31.6026L18.7995 11.1401ZM15.5765 15.7873C16.7008 15.7123 17.6752 16.5368 17.7502 17.5862C17.7502 17.7361 17.7502 17.8111 17.7502 17.961L17.0756 25.6063C17.0006 26.3558 16.3261 26.8805 15.6515 26.8056C14.9769 26.7306 14.4522 26.2059 14.4522 25.6063L13.7776 17.961C13.6277 16.8367 14.4522 15.8623 15.5765 15.7873ZM15.7264 32.8019C14.5272 32.8019 13.5527 31.8275 13.5527 30.6282C13.5527 29.429 14.5272 28.4546 15.7264 28.4546C16.9257 28.4546 17.9001 29.429 17.9001 30.6282C17.9001 31.9024 16.9257 32.8019 15.7264 32.8019Z" fill="#1351B4"/>
</svg>
