<svg width="43" height="30" viewBox="0 0 43 30" fill="none" xmlns="http://www.w3.org/2000/svg">
<path fill-rule="evenodd" clip-rule="evenodd" d="M24.158 6.2239H2.44829C1.79854 6.2239 1.17659 6.48293 0.717073 6.94098C0.257561 7.40049 0 8.0239 0 8.67366V23.8932C0 24.5429 0.257561 25.1649 0.717073 25.6244C1.17659 26.0839 1.79854 26.3415 2.44829 26.3415H2.98829C3.33659 28.4166 5.1439 30 7.31707 30C9.49024 30 11.2976 28.4166 11.6459 26.3415H30.7932C31.1415 28.4166 32.9488 30 35.122 30C37.2951 30 39.1024 28.4166 39.4507 26.3415H40.6215C41.6254 26.3415 42.439 25.5278 42.439 24.5239C42.439 22.7693 42.439 19.3288 42.439 17.5668C42.439 17.081 42.2459 16.6156 41.9034 16.2732C41.5595 15.9293 41.0941 15.7361 40.6098 15.7361H36.322L32.1278 6.64976C32.0078 6.39073 31.7488 6.2239 31.4634 6.2239H28.5483V5.81415C28.5483 5.24341 28.32 4.69463 27.9161 4.29073C27.5122 3.88537 26.9634 3.65854 26.3912 3.65854C26.3649 3.65854 26.34 3.65854 26.3137 3.65854C25.7415 3.65854 25.1927 3.88537 24.7888 4.29073C24.3849 4.69463 24.158 5.24341 24.158 5.81415V6.2239ZM10.2439 25.6098C10.2439 23.9941 8.93268 22.6829 7.31707 22.6829C5.70146 22.6829 4.39024 23.9941 4.39024 25.6098C4.39024 27.2254 5.70146 28.5366 7.31707 28.5366C8.93268 28.5366 10.2439 27.2254 10.2439 25.6098ZM35.1688 22.6829H35.122C33.5107 22.6829 32.2024 23.9868 32.1951 25.5951C32.1951 25.601 32.1951 25.6054 32.1951 25.6098C32.1951 27.2254 33.5063 28.5366 35.122 28.5366C36.7376 28.5366 38.0488 27.2254 38.0488 25.6098C38.0488 24.0102 36.7624 22.7093 35.1688 22.6829ZM35.122 23.4146C33.9102 23.4146 32.9268 24.398 32.9268 25.6098C32.9268 26.8215 33.9102 27.8049 35.122 27.8049C36.3337 27.8049 37.3171 26.8215 37.3171 25.6098C37.3171 24.398 36.3337 23.4146 35.122 23.4146ZM7.31707 23.4146C6.10537 23.4146 5.12195 24.398 5.12195 25.6098C5.12195 26.8215 6.10537 27.8049 7.31707 27.8049C8.52878 27.8049 9.5122 26.8215 9.5122 25.6098C9.5122 24.398 8.52878 23.4146 7.31707 23.4146ZM35.122 24.878C35.5259 24.878 35.8537 25.2059 35.8537 25.6098C35.8537 26.0137 35.5259 26.3415 35.122 26.3415C34.718 26.3415 34.3902 26.0137 34.3902 25.6098C34.3902 25.2059 34.718 24.878 35.122 24.878ZM7.31707 24.878C7.72098 24.878 8.04878 25.2059 8.04878 25.6098C8.04878 26.0137 7.72098 26.3415 7.31707 26.3415C6.91317 26.3415 6.58537 26.0137 6.58537 25.6098C6.58537 25.2059 6.91317 24.878 7.31707 24.878ZM40.9756 20.1263H1.46341V23.8932C1.46341 24.1537 1.56732 24.4054 1.75171 24.5898C1.9361 24.7741 2.18781 24.878 2.44829 24.878H2.98829L2.99854 24.818L3.01463 24.7332L3.01902 24.7112L3.03366 24.6454L3.03951 24.619C3.30585 23.4644 4.02878 22.4824 5.0078 21.8766L5.01805 21.8693C5.04439 21.8532 5.07073 21.8371 5.09854 21.821L5.12195 21.8078C5.1439 21.7946 5.16732 21.7815 5.19073 21.7683L5.23756 21.7434L5.31366 21.7039L5.34293 21.6878L5.42049 21.6498L5.45122 21.6351L5.52878 21.6L5.55951 21.5854L5.63854 21.5517L5.67073 21.5385L5.74976 21.5078L5.77171 21.5005L5.8522 21.4698L5.88439 21.4595L5.96634 21.4317L6 21.4215L6.08195 21.3966L6.11561 21.3863L6.19902 21.3629L6.29415 21.3395L6.35268 21.3263L6.4361 21.3073L6.53268 21.2898L6.58098 21.281L6.66732 21.2678L6.76537 21.2532L6.82683 21.2473L6.91463 21.2371L7.01415 21.2298L7.0639 21.2268L7.15171 21.2224L7.25415 21.2195H7.3039H7.39317L7.48976 21.2224L7.55707 21.2254L7.64488 21.2312L7.74439 21.24L7.79415 21.2459L7.88049 21.2561L7.97854 21.2693L8.04 21.2795L8.12488 21.2941L8.22146 21.3132L8.26829 21.3234L8.35317 21.3424L8.44244 21.3659L8.4922 21.379L8.57561 21.4024L8.60927 21.4127L8.69122 21.439L8.71171 21.4463L8.79366 21.4741L8.82585 21.4859L8.90634 21.5166L8.93854 21.5298L9.01756 21.562L9.03805 21.5707L9.11707 21.6044L9.1361 21.6132L9.20927 21.6468L9.24439 21.6644L9.3161 21.701L9.33951 21.7127C9.36293 21.7244 9.38634 21.7376 9.40829 21.7493L9.43317 21.7624C10.1722 22.1707 10.7824 22.7854 11.1834 23.5288L11.1893 23.542C11.2024 23.5639 11.2141 23.5873 11.2273 23.6122L11.2566 23.6707L11.2932 23.7483L11.3298 23.8288L11.3532 23.88L11.3854 23.9576L11.3898 23.9678C11.5068 24.2576 11.5932 24.562 11.6459 24.878H21.2195C24.4112 24.878 27.6015 24.878 30.7932 24.878L30.8034 24.818L30.8224 24.7215L30.8429 24.6249L30.8532 24.578L30.8751 24.4946L30.9044 24.3893L30.9176 24.3439L30.9424 24.262L30.9732 24.1712L30.9937 24.1127L31.0229 24.0351L31.058 23.9459L31.0946 23.861L31.1195 23.8024L31.1561 23.7263L31.2029 23.6298L31.2454 23.5493L31.2761 23.4937L31.3229 23.4102L31.3712 23.3283L31.418 23.2522L31.4532 23.198L31.5073 23.119L31.5615 23.0429L31.598 22.9932L31.6463 22.9288L31.7049 22.8541L31.7722 22.7722L31.8117 22.7268L31.8659 22.6654L31.9302 22.5966L32.002 22.522L32.0459 22.4781L32.1059 22.421L32.1746 22.3566L32.242 22.2966L32.2902 22.2556L32.3634 22.1956L32.4381 22.1356L32.4878 22.099L32.5522 22.0507L32.6298 21.9966L32.7176 21.9366L32.7688 21.9044L32.8376 21.8605L32.9195 21.8122L32.9985 21.7668L33.0541 21.7361L33.1288 21.698L33.2254 21.6498L33.3073 21.6117L33.3659 21.5854L33.4551 21.5473L33.5444 21.5122L33.6029 21.4902L33.679 21.4624L33.7712 21.4317L33.8166 21.4171L33.8985 21.3922L33.9922 21.3659L34.039 21.3541L34.1224 21.3337L34.2176 21.3132L34.2644 21.3029L34.3507 21.2868L34.4561 21.2693L34.5088 21.262L34.5951 21.2502L34.6946 21.24L34.7429 21.2356L34.8307 21.2283L34.9273 21.2239L34.9946 21.221L35.0839 21.2195H35.1849L35.2361 21.221L35.3254 21.2239L35.4249 21.2298L35.4878 21.2341L35.5741 21.2429L35.6737 21.2532L35.722 21.2605L35.8083 21.2737L35.9063 21.2898L35.9532 21.2985L36.038 21.3161L36.1288 21.3351L36.1917 21.3512L36.2751 21.3732L36.3688 21.3995L36.4141 21.4127L36.4961 21.439L36.5166 21.4463L36.5985 21.4741L36.6307 21.4859L36.7112 21.5166L36.7434 21.5298L36.8224 21.562L36.8429 21.5707L36.922 21.6044L36.941 21.6132L37.001 21.641L37.0493 21.6644L37.121 21.701L37.1444 21.7127C37.1678 21.7244 37.1912 21.7376 37.2132 21.7493L37.2366 21.7624C38.0122 22.1898 38.6444 22.8439 39.0439 23.6356L39.0498 23.6473C39.0615 23.6707 39.0732 23.6941 39.0849 23.719L39.1083 23.7702L39.1478 23.8566L39.1829 23.9385L39.199 23.981L39.2268 24.0512L39.2341 24.0688C39.3307 24.3278 39.4039 24.5985 39.4507 24.878H40.6215C40.8176 24.878 40.9756 24.72 40.9756 24.5239V20.1263ZM30.9951 7.68732H2.44829C2.18781 7.68732 1.9361 7.79122 1.75171 7.97707C1.56732 8.16146 1.46341 8.41171 1.46341 8.67366V18.6629H40.9756V17.5668C40.9756 17.4688 40.9376 17.3766 40.8688 17.3078C40.8 17.239 40.7063 17.1995 40.6098 17.1995H35.8537C35.5683 17.1995 35.3093 17.0341 35.1893 16.7751L30.9951 7.68732ZM15 11.3517V9.52244C15 9.11854 14.6722 8.79073 14.2683 8.79073H12.0732C11.6693 8.79073 11.3415 9.11854 11.3415 9.52244V11.3517H9.5122C9.10829 11.3517 8.78049 11.6795 8.78049 12.0834V14.2785C8.78049 14.6824 9.10829 15.0102 9.5122 15.0102H11.3415V16.8395C11.3415 17.2434 11.6693 17.5712 12.0732 17.5712H14.2683C14.6722 17.5712 15 17.2434 15 16.8395V15.0102H16.8293C17.2332 15.0102 17.561 14.6824 17.561 14.2785V12.0834C17.561 11.6795 17.2332 11.3517 16.8293 11.3517H15ZM24.878 8.78488C24.4741 8.78488 24.1463 9.11268 24.1463 9.51659V16.102C24.1463 16.5073 24.4741 16.8337 24.878 16.8337H32.9268C33.1741 16.8337 33.4054 16.7093 33.54 16.5015C33.6746 16.2937 33.6966 16.0317 33.5956 15.8049L30.6688 9.21951C30.5517 8.9561 30.2898 8.78488 30 8.78488H24.878ZM13.5366 12.0834C13.5366 12.4873 13.8644 12.8151 14.2683 12.8151H16.0976V13.5468H14.2683C13.8644 13.5468 13.5366 13.8746 13.5366 14.2785V16.1078H12.8049V14.2785C12.8049 13.8746 12.4771 13.5468 12.0732 13.5468H10.2439V12.8151H12.0732C12.4771 12.8151 12.8049 12.4873 12.8049 12.0834V10.2541H13.5366V12.0834ZM25.6098 10.2483H29.5244L31.8015 15.3702H25.6098V10.2483ZM27.0849 6.2239V5.81415C27.0849 5.63122 27.0117 5.45415 26.8815 5.32537C26.7512 5.19512 26.5756 5.12195 26.3912 5.12195H26.3137C26.1293 5.12195 25.9537 5.19512 25.8234 5.32537C25.6932 5.45415 25.6215 5.63122 25.6215 5.81415V6.2239H27.0849ZM21.4332 3.07171L22.4693 4.10634C22.7546 4.39317 23.2185 4.39317 23.5039 4.10634C23.7893 3.82098 23.7893 3.35707 23.5039 3.07171L22.4693 2.03707C22.1824 1.75171 21.72 1.75171 21.4332 2.03707C21.1478 2.32244 21.1478 2.78634 21.4332 3.07171ZM30.2371 2.03707L29.2024 3.07171C28.9156 3.35707 28.9156 3.82098 29.2024 4.10634C29.4878 4.39317 29.9502 4.39317 30.2371 4.10634L31.2717 3.07171C31.5571 2.78634 31.5571 2.32244 31.2717 2.03707C30.9863 1.75171 30.5224 1.75171 30.2371 2.03707ZM25.6215 0.731707V2.19512C25.6215 2.59902 25.9493 2.92683 26.3532 2.92683C26.7571 2.92683 27.0849 2.59902 27.0849 2.19512V0.731707C27.0849 0.327805 26.7571 0 26.3532 0C25.9493 0 25.6215 0.327805 25.6215 0.731707Z" fill="#1351B4"/>
</svg>
