<svg width="28" height="37" viewBox="0 0 28 37" fill="none" xmlns="http://www.w3.org/2000/svg">
<path d="M3.17976 28.9063C3.00347 28.9062 2.82952 28.9466 2.67119 29.0241C2.51287 29.1016 2.37438 29.2144 2.2663 29.3536C1.5849 30.2317 6.93812e-05 32.4226 6.93812e-05 33.7992C-0.00270064 34.2185 0.0774993 34.6342 0.236052 35.0224C0.394606 35.4107 0.62838 35.7637 0.923917 36.0612C1.21945 36.3587 1.57092 36.5948 1.95807 36.7559C2.34523 36.917 2.76042 36.9999 3.17976 36.9999C3.5991 36.9999 4.0143 36.917 4.40146 36.7559C4.78861 36.5948 5.14007 36.3587 5.43561 36.0612C5.73115 35.7637 5.96492 35.4107 6.12348 35.0224C6.28203 34.6342 6.36223 34.2185 6.35946 33.7992C6.35946 32.4226 4.77462 30.2317 4.09323 29.3536C3.98515 29.2144 3.84666 29.1016 3.68833 29.0241C3.53001 28.9466 3.35605 28.9062 3.17976 28.9063ZM3.17976 35.8438C2.64031 35.8409 2.12408 35.6239 1.74461 35.2405C1.36515 34.8571 1.15353 34.3386 1.15632 33.7992C1.15632 32.67 3.17976 30.0625 3.17976 30.0625C3.17976 30.0625 5.20321 32.67 5.20321 33.7992C5.206 34.3386 4.99438 34.8571 4.61492 35.2405C4.23545 35.624 3.71921 35.8409 3.17976 35.8438Z" fill="#1351B4"/>
<path d="M27.2287 1.5364L26.2136 0.521367C26.0483 0.356073 25.8521 0.224955 25.6361 0.135499C25.4202 0.0460425 25.1887 0 24.9549 0C24.7212 0 24.4897 0.0460425 24.2738 0.135499C24.0578 0.224955 23.8616 0.356073 23.6963 0.521367L20.5979 3.61976L19.6286 2.65053C19.4121 2.43443 19.1186 2.31306 18.8127 2.31306C18.5067 2.31306 18.2133 2.43443 17.9967 2.65053L16.5256 4.12168C16.3095 4.33824 16.1881 4.63169 16.1881 4.93763C16.1881 5.24358 16.3095 5.53703 16.5256 5.75359L16.9264 6.1544L15.7829 7.2979C15.8594 7.65449 15.8981 8.01813 15.8985 8.38283C15.8985 8.53738 15.8886 8.68952 15.8753 8.84068L17.744 6.97199L18.7077 7.93575L10.0698 16.5737C10.0157 16.6273 9.97273 16.691 9.94335 16.7613C9.91397 16.8315 9.89876 16.9069 9.89858 16.983C9.8984 17.0591 9.91327 17.1346 9.94232 17.2049C9.97138 17.2753 10.014 17.3393 10.0679 17.3931C10.1217 17.4469 10.1857 17.4896 10.256 17.5187C10.3264 17.5477 10.4018 17.5626 10.478 17.5624C10.5541 17.5622 10.6295 17.547 10.6997 17.5176C10.7699 17.4883 10.8337 17.4453 10.8873 17.3912L19.5252 8.75326L20.7781 10.0061L11.5616 19.2226C10.8705 19.9117 10.0344 20.438 9.11422 20.763C7.86761 21.2033 6.73496 21.9162 5.79885 22.8497L4.26431 24.3843C4.20537 24.4436 4.13532 24.4906 4.05816 24.5227C3.98101 24.5549 3.89827 24.5715 3.81469 24.5716C3.73111 24.5717 3.64832 24.5553 3.57108 24.5234C3.49384 24.4915 3.42366 24.4446 3.36456 24.3855C3.30546 24.3264 3.2586 24.2562 3.22667 24.179C3.19474 24.1017 3.17836 24.019 3.17847 23.9354C3.17859 23.8518 3.19519 23.7691 3.22733 23.6919C3.25948 23.6147 3.30653 23.5447 3.36579 23.4858L4.90031 21.9512C5.83388 21.0151 6.5468 19.8824 6.98709 18.6358C7.3121 17.7156 7.83835 16.8795 8.52748 16.1885L11.1532 13.5628C11.002 13.5761 10.8499 13.586 10.6953 13.586C10.3306 13.5856 9.967 13.5468 9.61042 13.4704L7.7099 15.3709C6.89731 16.1835 6.27754 17.1681 5.89631 18.2522C5.51509 19.3363 4.89532 20.321 4.08273 21.1336L2.54818 22.6681C2.21219 23.0041 2.02344 23.4598 2.02344 23.935C2.02344 24.4102 2.21219 24.8659 2.54818 25.2019C2.71454 25.3682 2.91206 25.5002 3.12943 25.5902C3.34679 25.6803 3.57977 25.7266 3.81504 25.7266C4.05032 25.7266 4.28329 25.6803 4.50066 25.5902C4.71802 25.5002 4.91553 25.3682 5.08189 25.2019L6.61645 23.6673C7.42903 22.8547 8.4137 22.235 9.4978 21.8537C10.5819 21.4725 11.5666 20.8528 12.3792 20.0402L21.5957 10.8237L21.9965 11.2245C22.213 11.4406 22.5065 11.562 22.8124 11.562C23.1184 11.562 23.4118 11.4406 23.6284 11.2245L25.0995 9.75335C25.3156 9.53678 25.437 9.24334 25.437 8.93739C25.437 8.63145 25.3156 8.338 25.0995 8.12144L24.1303 7.15221L27.2287 4.05381C27.394 3.88852 27.5251 3.69229 27.6146 3.47632C27.704 3.26035 27.7501 3.02887 27.7501 2.79511C27.7501 2.56134 27.704 2.32987 27.6146 2.1139C27.5251 1.89793 27.394 1.7017 27.2287 1.5364ZM24.282 8.93584L22.8144 10.4073L17.3431 4.93919L18.8111 3.46805L24.282 8.93584ZM26.4111 3.2362L23.3127 6.3346L21.4154 4.43736L24.5139 1.33896C24.5718 1.28103 24.6405 1.23508 24.7162 1.20373C24.7919 1.17238 24.873 1.15625 24.955 1.15625C25.0369 1.15625 25.118 1.17238 25.1937 1.20373C25.2694 1.23508 25.3381 1.28103 25.3961 1.33896L26.4111 2.354C26.5279 2.47108 26.5935 2.62971 26.5935 2.7951C26.5935 2.96049 26.5279 3.11913 26.4111 3.2362Z" fill="#1351B4"/>
<path d="M10.6953 12.4297C11.4957 12.4297 12.2781 12.1924 12.9436 11.7477C13.6092 11.303 14.1279 10.671 14.4342 9.9315C14.7405 9.19203 14.8206 8.37833 14.6644 7.59332C14.5083 6.8083 14.1229 6.08721 13.5569 5.52124C12.9909 4.95528 12.2698 4.56985 11.4848 4.4137C10.6998 4.25755 9.88612 4.33769 9.14665 4.64399C8.40717 4.95029 7.77514 5.46899 7.33046 6.1345C6.88578 6.8 6.64844 7.58243 6.64844 8.38282C6.64844 9.45612 7.0748 10.4855 7.83374 11.2444C8.59268 12.0033 9.62202 12.4297 10.6953 12.4297ZM10.6953 5.49219C11.267 5.49219 11.8259 5.66172 12.3013 5.97935C12.7766 6.29698 13.1471 6.74843 13.3659 7.27663C13.5847 7.80482 13.6419 8.38603 13.5304 8.94676C13.4189 9.50748 13.1436 10.0225 12.7393 10.4268C12.335 10.8311 11.82 11.1064 11.2593 11.2179C10.6985 11.3294 10.1173 11.2722 9.58912 11.0534C9.06093 10.8346 8.60948 10.4641 8.29185 9.98877C7.97422 9.51341 7.80469 8.95454 7.80469 8.38282C7.80555 7.61645 8.11038 6.8817 8.65229 6.33979C9.1942 5.79788 9.92894 5.49306 10.6953 5.49219Z" fill="#1351B4"/>
<path d="M10.2847 8.87513L11.441 9.47428C11.5771 9.54449 11.7355 9.55782 11.8814 9.51136C12.0273 9.4649 12.1489 9.36244 12.2194 9.22647C12.2898 9.0905 12.3035 8.93213 12.2573 8.7861C12.2111 8.64008 12.1089 8.51834 11.9731 8.4476L11.1289 8.0102V7.22656C11.1289 7.07324 11.068 6.92619 10.9596 6.81777C10.8512 6.70935 10.7041 6.64844 10.5508 6.64844C10.3975 6.64844 10.2504 6.70935 10.142 6.81777C10.0336 6.92619 9.97266 7.07324 9.97266 7.22656V8.36179C9.97266 8.46773 10.0018 8.57163 10.0568 8.66216C10.1118 8.75269 10.1907 8.82636 10.2847 8.87513Z" fill="#1351B4"/>
</svg>
