<svg width="25" height="25" viewBox="0 0 25 25" fill="none" xmlns="http://www.w3.org/2000/svg">
<path d="M12.3888 0.890625C5.76145 0.890625 0.388916 6.26296 0.388916 12.8906C0.388916 19.518 5.76145 24.8906 12.3888 24.8906C19.0164 24.8906 24.3889 19.518 24.3889 12.8906C24.3889 6.26296 19.0164 0.890625 12.3888 0.890625ZM12.3888 10.5863C12.8027 10.5863 13.1895 10.6967 13.5252 10.8875C14.2119 11.2776 14.6779 12.0095 14.6913 12.8524C14.6916 12.8652 14.6932 12.8778 14.6932 12.8906C14.6932 13.736 14.2367 14.4731 13.5579 14.8739C13.2149 15.0766 12.8162 15.1949 12.3888 15.1949C11.9613 15.1949 11.5623 15.0763 11.2193 14.8736C10.5408 14.4725 10.0844 13.7354 10.0844 12.8906C10.0844 12.8756 10.0862 12.861 10.0868 12.846C10.103 12.0049 10.5687 11.2745 11.2551 10.8859C11.5902 10.6961 11.9763 10.5863 12.3888 10.5863ZM2.62268 12.846C2.62299 9.23223 4.5874 6.07952 7.50542 4.39096L10.7977 10.0929C9.83733 10.6414 9.18609 11.6671 9.16989 12.846H2.62268ZM12.3888 22.6132C10.6099 22.6132 8.94333 22.1354 7.50664 21.3041L10.7616 15.6664C11.2398 15.9476 11.795 16.1121 12.3888 16.1121C12.9825 16.1121 13.5377 15.948 14.0156 15.6667L17.2706 21.3044C15.8342 22.1354 14.1676 22.6132 12.3888 22.6132ZM15.6086 12.8524C15.5948 11.6723 14.9429 10.6441 13.9829 10.0944L17.2749 4.39218C20.1914 6.08135 22.1555 9.23407 22.1555 12.8472C22.1555 12.849 22.1555 12.8506 22.1555 12.8524H15.6086Z" fill="white"/>
</svg>
