<svg width="31" height="42" viewBox="0 0 31 42" fill="none" xmlns="http://www.w3.org/2000/svg">
<path fill-rule="evenodd" clip-rule="evenodd" d="M15.5002 0.713867C6.93901 0.713867 0 8.00942 0 17.0087C0 21.5086 1.90373 25.4148 4.54001 28.531L15.5004 41.4869L26.46 28.531C29.0957 25.4147 31 21.5083 31 17.0079C31.0003 8.00942 24.0602 0.713867 15.5005 0.713867H15.5002ZM23.2502 25.1553C21.2673 27.2409 18.5268 28.5304 15.5002 28.5304C12.4731 28.5304 9.73348 27.2414 7.74973 25.1553C5.76621 23.0701 4.53985 20.1898 4.53985 17.0081C4.53985 10.6442 9.44738 5.48662 15.5002 5.48662C21.5531 5.48662 26.4598 10.6444 26.4598 17.0081C26.4598 20.1897 25.2334 23.0704 23.25 25.1553H23.2502Z" fill="#1351B4"/>
<path fill-rule="evenodd" clip-rule="evenodd" d="M19.978 12.2616L17.1723 13.9646V10.5586H13.8287V13.9646L11.0226 12.2616L9.35083 15.3052L12.1572 17.0082L9.35083 18.7112L11.0226 21.7555L13.8287 20.0525V23.4585H17.1723V20.0525L19.978 21.7555L21.6492 18.7112L18.8435 17.0082L21.6492 15.3052L19.978 12.2616Z" fill="#1351B4"/>
</svg>
