<svg width="23" height="19" viewBox="0 0 23 19" fill="none" xmlns="http://www.w3.org/2000/svg">
<path d="M20.309 4.43333H18.4V0.633333C18.4 0.465388 18.3193 0.304224 18.1755 0.185476C18.0318 0.066728 17.8367 0 17.6334 0H5.36668C5.16337 0 4.96828 0.066728 4.82453 0.185476C4.68078 0.304224 4.60001 0.465388 4.60001 0.633333V4.43333H2.69105C1.97726 4.43333 1.29291 4.66758 0.788222 5.08447C0.283536 5.50139 0 6.06672 0 6.65637V12.3564C0.00410715 12.9437 0.289384 13.5059 0.793523 13.9201C1.29786 14.3343 1.97998 14.5667 2.691 14.5667H5.36663V18.3667C5.36663 18.5346 5.44741 18.6958 5.59116 18.8145C5.7349 18.9333 5.93 19 6.1333 19H16.8667C17.07 19 17.265 18.9333 17.4088 18.8145C17.5525 18.6958 17.6333 18.5346 17.6333 18.3667V14.5667H20.3089C21.0227 14.5667 21.7071 14.3324 22.2118 13.9155C22.7165 13.4986 23 12.9333 23 12.3436V6.64363C22.9959 6.05626 22.7106 5.49415 22.2065 5.07995C21.7021 4.66575 21.02 4.43333 20.309 4.43333ZM6.13352 1.26667H16.8669V4.43333H6.13352V1.26667ZM16.1002 17.7333H6.90019V10.1333H16.1002V17.7333ZM21.4669 12.3435C21.4669 12.5971 21.3449 12.8404 21.1279 13.0198C20.9107 13.1991 20.6162 13.2999 20.3092 13.2999H17.6335V10.1332C17.9075 10.1332 18.1606 10.0125 18.2975 9.81653C18.4344 9.62059 18.4344 9.37914 18.2975 9.1832C18.1606 8.98726 17.9075 8.86653 17.6335 8.86653H5.36684C5.09286 8.86653 4.83977 8.98726 4.70286 9.1832C4.56596 9.37914 4.56596 9.6206 4.70286 9.81653C4.83977 10.0125 5.09287 10.1332 5.36684 10.1332V13.2999H2.69121C2.3842 13.2999 2.0897 13.1991 1.8725 13.0198C1.6555 12.8404 1.53348 12.5971 1.53348 12.3435V6.64349C1.53759 6.39213 1.66132 6.15209 1.87797 5.97552C2.09462 5.79881 2.38673 5.69985 2.69117 5.69985H20.3245C20.6288 5.70324 20.9194 5.80545 21.1331 5.98442C21.347 6.1634 21.4668 6.4047 21.4668 6.65619L21.4669 12.3435Z" fill="#1351B4"/>
</svg>
