<svg width="23" height="21" viewBox="0 0 23 21" fill="none" xmlns="http://www.w3.org/2000/svg">
<path fill-rule="evenodd" clip-rule="evenodd" d="M17.8272 1.0402H21.0819C21.8523 1.0402 22.4768 1.62204 22.4768 2.33977V18.8009C22.4768 19.5186 21.8523 20.1005 21.0819 20.1005H1.5538C0.783438 20.1005 0.158936 19.5186 0.158936 18.8009V2.33977C0.158936 1.62204 0.783438 1.0402 1.5538 1.0402H4.80849V2.77296C4.80849 3.72993 5.64116 4.50571 6.66831 4.50571C7.69546 4.50571 8.52813 3.72993 8.52813 2.77296V1.0402H14.1076V2.77296C14.1076 3.72993 14.9403 4.50571 15.9674 4.50571C16.9946 4.50571 17.8272 3.72993 17.8272 2.77296V1.0402ZM20.617 6.23846H2.01876V17.5014C2.01876 17.9798 2.43509 18.3677 2.94867 18.3677H19.6871C20.2006 18.3677 20.617 17.9798 20.617 17.5014V6.23846ZM6.66831 0.173828C7.18188 0.173828 7.59822 0.561718 7.59822 1.0402V2.77296C7.59822 3.25144 7.18188 3.63933 6.66831 3.63933C6.15473 3.63933 5.7384 3.25144 5.7384 2.77296V1.0402C5.7384 0.561718 6.15473 0.173828 6.66831 0.173828ZM15.9674 0.173828C16.481 0.173828 16.8973 0.561718 16.8973 1.0402V2.77296C16.8973 3.25144 16.481 3.63933 15.9674 3.63933C15.4538 3.63933 15.0375 3.25144 15.0375 2.77296V1.0402C15.0375 0.561718 15.4538 0.173828 15.9674 0.173828Z" fill="#1351B4"/>
<path d="M17.8271 7.97119H15.9673V9.70394H17.8271V7.97119Z" fill="#1351B4"/>
<path d="M17.8271 11.4365H15.9673V13.1693H17.8271V11.4365Z" fill="#1351B4"/>
<path d="M17.8271 14.9023H15.9673V16.6351H17.8271V14.9023Z" fill="#1351B4"/>
<path fill-rule="evenodd" clip-rule="evenodd" d="M5.73826 7.97119H13.1775C13.6911 7.97119 14.1075 8.35908 14.1075 8.83757V15.7686C14.1075 16.2471 13.6911 16.635 13.1775 16.635H5.73826C5.22468 16.635 4.80835 16.2471 4.80835 15.7686V8.83757C4.80835 8.35908 5.22468 7.97119 5.73826 7.97119ZM9.4579 14.4047L11.6703 15.5404C11.7273 15.5697 11.7935 15.5795 11.8575 15.568C12.0088 15.541 12.1079 15.4048 12.0789 15.2638L11.6033 12.9525L13.4463 11.3431C13.4938 11.3016 13.5242 11.246 13.5323 11.1858C13.5515 11.0434 13.4431 10.9134 13.2902 10.8956L10.7838 10.6028L9.71044 8.47242C9.68277 8.41751 9.63537 8.37335 9.57644 8.34758C9.43697 8.28658 9.27084 8.34247 9.20537 8.47242L8.132 10.6028L5.6256 10.8956C5.56101 10.9031 5.50128 10.9315 5.45676 10.9757C5.3514 11.0805 5.35711 11.2449 5.46953 11.3431L7.31255 12.9525L6.83688 15.2638C6.82462 15.3234 6.8351 15.3851 6.86652 15.4382C6.94087 15.5639 7.11054 15.6097 7.24549 15.5404L9.4579 14.4047Z" fill="#1351B4"/>
</svg>
