<svg width="26" height="25" viewBox="0 0 26 25" fill="none" xmlns="http://www.w3.org/2000/svg">
<path d="M20.8748 20.6353C20.8748 21.6189 20.0256 22.3694 19.012 22.3694H4.2736C3.23255 22.3694 2.41085 21.5929 2.41085 20.6353V6.65887C2.41085 5.70127 3.26004 4.92475 4.2736 4.92475H11.8072L14.1905 2.67303L4.27355 2.67285C1.91759 2.67285 0 4.45878 0 6.65882V20.6353C0 22.8612 1.91759 24.6471 4.27355 24.6471H19.0394C21.3953 24.6471 23.3129 22.8612 23.3129 20.6353V11.24L20.9296 13.4917V20.6352L20.8748 20.6353Z" fill="#0459A1"/>
<path d="M25.4772 3.73414L22.135 0.60246C21.7788 0.265934 21.2858 0.0588379 20.7926 0.0588379C20.272 0.0588379 19.8064 0.240102 19.4502 0.576439L7.1225 12.2235C6.79382 12.534 6.60195 12.9482 6.57465 13.3882L6.35547 16.7269C6.32814 17.2445 6.51981 17.7621 6.90332 18.1245C7.25951 18.461 7.75251 18.6421 8.24572 18.6421H8.35521L11.9166 18.4353C12.3823 18.4095 12.8206 18.2283 13.1493 17.9177L25.4496 6.29655C25.8058 5.96003 25.9975 5.49424 25.9975 5.02827C26.0248 4.53646 25.8329 4.07067 25.4769 3.73415L25.4772 3.73414ZM17.6148 5.52007L20.2721 8.03066L14.1083 13.8283L11.451 11.3177L17.6148 5.52007ZM11.588 16.2095L8.76629 16.3648L8.93063 13.6989L9.72499 12.9484L12.3823 15.459L11.588 16.2095ZM21.9432 6.40007L19.3134 3.91545L20.7927 2.5179L23.45 5.02849L21.9432 6.40007Z" fill="#0459A1"/>
</svg>
