<svg width="50" height="42" viewBox="0 0 50 42" fill="none" xmlns="http://www.w3.org/2000/svg">
<g clip-path="url(#clip0_504_460)">
<path d="M29.4024 15.7015H30.4326C30.515 15.7015 30.5769 15.6423 30.5769 15.5633V14.4972H31.6894C31.7717 14.4972 31.8337 14.438 31.8337 14.359V13.3719C31.8337 13.293 31.7719 13.2336 31.6894 13.2336H30.5769V12.1676C30.5769 12.0887 30.5151 12.0293 30.4326 12.0293H29.4024C29.3201 12.0293 29.2582 12.0885 29.2582 12.1676L29.2583 13.2337H28.1458C28.0635 13.2337 28.0015 13.293 28.0015 13.372V14.3591C28.0015 14.438 28.0633 14.4974 28.1458 14.4974H29.2583V15.5634C29.2583 15.6423 29.3201 15.7015 29.4024 15.7015Z" fill="white"/>
<g filter="url(#filter0_d_504_460)">
<path d="M46 0H4V34H46V0Z" fill="#2B982B"/>
</g>
<path d="M34.6978 12.9963C34.4712 11.6736 33.6677 10.489 32.4932 9.75858C30.3711 8.43584 27.4248 8.94911 25.7766 10.9234L25.6735 11.0616L25.4469 10.7852C24.5815 9.73888 23.263 9.08738 21.8826 9.00848C20.4816 8.92957 19.1011 9.40329 18.0916 10.3509C16.4845 11.8316 16.1961 14.2402 17.2675 16.1354L15.9282 16.1356C15.5162 16.1356 15.1865 16.4515 15.1865 16.8463C15.1865 17.2411 15.5162 17.557 15.9282 17.557H21.2645C21.5324 17.557 21.7795 17.4188 21.9031 17.2017L22.6243 15.9579L24.7259 19.5313C24.8495 19.7485 25.0967 19.8866 25.3645 19.8866C25.6324 19.8866 25.8796 19.7483 26.0032 19.5313L27.1569 17.5571H27.8163C28.2283 17.5571 28.558 17.2412 28.558 16.8463C28.558 16.4515 28.2284 16.1356 27.8163 16.1356H26.7244C26.4565 16.1356 26.2093 16.2739 26.0857 16.4909L25.3645 17.7347L23.2629 14.1416C22.9951 13.6875 22.2328 13.6875 21.9856 14.1416L20.8318 16.1158H19.0394L18.9157 15.9974C17.7412 14.5759 17.8032 12.5425 19.1011 11.3579C19.781 10.7459 20.6257 10.4103 21.5529 10.4103H21.7795C22.7684 10.4695 23.675 10.9236 24.2931 11.6738L24.8905 12.3846C25.282 12.8386 26.065 12.8386 26.4563 12.3846L26.9302 11.8121C28.1046 10.3906 30.206 10.0155 31.6895 10.9434C32.5343 11.4765 33.0904 12.2858 33.2553 13.2336C33.4202 14.1615 33.1523 15.1289 32.5341 15.8593L26.3532 23.2825C26.0235 23.6773 25.3436 23.6773 25.014 23.2825L21.4499 19.0181H19.5749L23.8604 24.1511C24.3137 24.6842 24.9729 25 25.6735 25C26.3947 25 27.0539 24.7039 27.4866 24.1511L33.6676 16.728C34.5535 15.6815 34.9244 14.3189 34.6978 12.9963Z" fill="white"/>
</g>
<defs>
<filter id="filter0_d_504_460" x="0" y="0" width="50" height="42" filterUnits="userSpaceOnUse" color-interpolation-filters="sRGB">
<feFlood flood-opacity="0" result="BackgroundImageFix"/>
<feColorMatrix in="SourceAlpha" type="matrix" values="0 0 0 0 0 0 0 0 0 0 0 0 0 0 0 0 0 0 127 0" result="hardAlpha"/>
<feOffset dy="4"/>
<feGaussianBlur stdDeviation="2"/>
<feComposite in2="hardAlpha" operator="out"/>
<feColorMatrix type="matrix" values="0 0 0 0 0 0 0 0 0 0 0 0 0 0 0 0 0 0 0.25 0"/>
<feBlend mode="normal" in2="BackgroundImageFix" result="effect1_dropShadow_504_460"/>
<feBlend mode="normal" in="SourceGraphic" in2="effect1_dropShadow_504_460" result="shape"/>
</filter>
<clipPath id="clip0_504_460">
<rect width="50" height="42" fill="white"/>
</clipPath>
</defs>
</svg>
