<svg width="34" height="35" viewBox="0 0 34 35" fill="none" xmlns="http://www.w3.org/2000/svg">
<path d="M16.9998 0.410156C7.61109 0.410156 0 8.02096 0 17.4102C0 26.7989 7.61109 34.4102 16.9998 34.4102C26.3889 34.4102 34 26.7989 34 17.4102C34 8.02096 26.3889 0.410156 16.9998 0.410156ZM16.9998 14.1457C17.5863 14.1457 18.1342 14.3021 18.6098 14.5723C19.5826 15.125 20.2427 16.1619 20.2617 17.356C20.2622 17.3742 20.2643 17.392 20.2643 17.4102C20.2643 18.6077 19.6177 19.652 18.6561 20.2198C18.1701 20.507 17.6053 20.6746 16.9998 20.6746C16.3943 20.6746 15.829 20.5065 15.343 20.2194C14.3819 19.6511 13.7352 18.6069 13.7352 17.4102C13.7352 17.3889 13.7378 17.3681 13.7387 17.3469C13.7616 16.1554 14.4213 15.1207 15.3937 14.5702C15.8684 14.3012 16.4155 14.1457 16.9998 14.1457ZM3.1645 17.3469C3.16494 12.2274 5.94785 7.76109 10.0817 5.36896L14.7457 13.4467C13.3853 14.2237 12.4627 15.6768 12.4397 17.3469H3.1645ZM16.9998 31.1838C14.4798 31.1838 12.1188 30.5069 10.0834 29.3292L14.6946 21.3425C15.3721 21.7409 16.1586 21.974 16.9998 21.974C17.8409 21.974 18.6275 21.7414 19.3045 21.3429L23.9157 29.3296C21.8808 30.5069 19.5198 31.1838 16.9998 31.1838ZM21.5612 17.356C21.5417 15.6842 20.6182 14.2276 19.2582 13.4488L23.9218 5.37069C28.0535 7.76369 30.8359 12.23 30.8359 17.3487V17.356H21.5612Z" fill="#1351B4"/>
</svg>
