<svg width="34" height="37" viewBox="0 0 34 37" fill="none" xmlns="http://www.w3.org/2000/svg">
<path fill-rule="evenodd" clip-rule="evenodd" d="M7.4 1.85C7.4 2.87172 8.22828 3.7 9.25 3.7V14.3993L0.165834 34.3845C-0.0944612 34.957 -0.045954 35.6227 0.294576 36.1516C0.635105 36.6803 1.221 37 1.85 37H31.45C32.079 37 32.6649 36.6803 33.0055 36.1516C33.3459 35.6227 33.3945 34.957 33.1342 34.3845L24.05 14.3993V3.7C25.0718 3.7 25.9 2.87172 25.9 1.85C25.9 0.828282 25.0718 0 24.05 0H9.25C8.22828 0 7.4 0.828282 7.4 1.85ZM12.95 14.8V3.7H20.35V14.8C20.35 15.0642 20.4066 15.325 20.5158 15.5655L21.8496 18.5H11.4503L12.7842 15.5655C12.8935 15.325 12.95 15.0642 12.95 14.8ZM14.8 25.9C14.8 26.9218 13.9718 27.75 12.95 27.75C11.9283 27.75 11.1 26.9218 11.1 25.9C11.1 24.8782 11.9283 24.05 12.95 24.05C13.9718 24.05 14.8 24.8782 14.8 25.9ZM20.35 31.45C21.3718 31.45 22.2 30.6218 22.2 29.6C22.2 28.5782 21.3718 27.75 20.35 27.75C19.3282 27.75 18.5 28.5782 18.5 29.6C18.5 30.6218 19.3282 31.45 20.35 31.45Z" fill="#1351B4"/>
</svg>
