<svg width="25" height="25" viewBox="0 0 25 25" fill="none" xmlns="http://www.w3.org/2000/svg">
<path d="M12.244 0.285645C9.87065 0.285645 7.55057 0.989432 5.57718 2.30801C3.60379 3.62659 2.06572 5.50073 1.15747 7.69344C0.249218 9.88615 0.011578 12.299 0.474601 14.6267C0.937623 16.9545 2.08051 19.0927 3.75874 20.7709C5.43697 22.4492 7.57517 23.592 9.90294 24.0551C12.2307 24.5181 14.6435 24.2804 16.8362 23.3722C19.0289 22.4639 20.9031 20.9259 22.2217 18.9525C23.5402 16.9791 24.244 14.659 24.244 12.2856C24.244 10.7098 23.9336 9.14935 23.3306 7.69344C22.7275 6.23753 21.8436 4.91466 20.7293 3.80036C19.615 2.68606 18.2921 1.80215 16.8362 1.19909C15.3803 0.596034 13.8199 0.285645 12.244 0.285645ZM17.896 10.0776L11.788 16.1856C11.6765 16.2981 11.5437 16.3874 11.3975 16.4483C11.2513 16.5092 11.0944 16.5406 10.936 16.5406C10.7776 16.5406 10.6208 16.5092 10.4745 16.4483C10.3283 16.3874 10.1956 16.2981 10.084 16.1856L6.59202 12.6936C6.36852 12.4688 6.24307 12.1647 6.24307 11.8476C6.24307 11.5306 6.36852 11.2265 6.59202 11.0016C6.70358 10.8892 6.8363 10.7999 6.98253 10.739C7.12876 10.678 7.28561 10.6467 7.44402 10.6467C7.60244 10.6467 7.75928 10.678 7.90551 10.739C8.05175 10.7999 8.18447 10.8892 8.29602 11.0016L10.936 13.6416L16.192 8.38564C16.3036 8.27317 16.4363 8.1839 16.5825 8.12297C16.7288 8.06205 16.8856 8.03068 17.044 8.03068C17.2024 8.03068 17.3593 8.06205 17.5055 8.12297C17.6517 8.1839 17.7845 8.27317 17.896 8.38564C18.1195 8.61048 18.245 8.91462 18.245 9.23164C18.245 9.54867 18.1195 9.85281 17.896 10.0776Z" fill="#1351B4"/>
</svg>
