<svg width="37" height="37" viewBox="0 0 37 37" fill="none" xmlns="http://www.w3.org/2000/svg">
<path d="M0.935131 32.4646L8.41617 36.7662C8.97725 37.0779 9.72536 37.0779 10.2864 36.7662L18.0792 32.3399L25.8719 36.7662C26.433 37.0779 27.1811 37.0779 27.7422 36.7662L35.2233 32.4646C35.7843 32.1529 36.1584 31.5295 36.1584 30.8437V21.7418C36.1584 21.056 35.7843 20.4326 35.2233 20.1209L27.4305 15.6323V6.15628C27.4305 5.47051 27.0564 4.84709 26.4954 4.53538L19.0143 0.233783C18.4532 -0.0779276 17.7051 -0.0779276 17.1441 0.233783L9.66302 4.53538C9.10194 4.84709 8.72789 5.47051 8.72789 6.15628V15.6946L0.935131 20.1209C0.374052 20.4326 0 21.056 0 21.7418V30.9061C0 31.5295 0.374052 32.1529 0.935131 32.4646ZM9.35131 29.4722L8.54086 28.6618C8.66554 28.4124 8.72789 28.1007 8.72789 27.789V26.7292L8.16681 25.607C8.10446 25.4823 8.10446 25.42 8.10446 25.2953V24.1108C8.10446 23.425 8.66554 22.8639 9.35131 22.8639C10.0371 22.8639 10.5981 23.425 10.5981 24.1108V25.2953C10.5981 25.42 10.5981 25.4823 10.5358 25.5447L9.97473 26.7292V27.789C9.97473 28.1007 10.0371 28.35 10.1618 28.6618L9.35131 29.4722ZM11.2216 27.789V26.9785L11.658 26.1057C11.7826 25.8564 11.845 25.5447 11.845 25.2953V24.1108C11.845 22.7393 10.7228 21.6171 9.35131 21.6171C7.97978 21.6171 6.85762 22.7393 6.85762 24.1108V25.2953C6.85762 25.607 6.91997 25.8564 7.04465 26.1057L7.48104 26.9785V27.789C7.48104 28.0383 7.29402 28.2877 7.04465 28.4124L5.04971 28.9735L5.42376 24.1108C5.61078 21.9288 7.48104 20.3079 9.66302 20.4949C11.5956 20.6196 13.1542 22.1782 13.2789 24.1108L13.6529 28.9735L11.658 28.4124C11.4086 28.2877 11.2216 28.0383 11.2216 27.789ZM4.36394 30.9061C4.36394 30.6567 4.55097 30.4073 4.80034 30.2826L7.35636 29.5345C7.4187 29.5345 7.54339 29.4722 7.60573 29.4722L8.47852 30.345L6.85762 31.9659V34.4596L4.36394 33.0257V30.9061ZM9.66302 35.7064C9.47599 35.8311 9.22662 35.8311 9.0396 35.7064L8.10446 35.1453V32.4646L11.0969 29.4722C11.1592 29.5345 11.2839 29.5345 11.3463 29.5345L13.9023 30.2826C14.1516 30.345 14.3387 30.5944 14.3387 30.9061V33.0257L9.66302 35.7064ZM20.5729 7.27843C19.9495 7.02907 19.2637 7.02907 18.765 7.40312L18.0792 7.77717L17.3934 7.40312C16.8323 7.09141 16.1466 7.02907 15.5855 7.27843V6.03159C15.5855 5.65754 15.8349 5.40817 16.2089 5.40817H19.9495C20.3235 5.40817 20.5729 5.65754 20.5729 6.03159V7.27843ZM15.5855 9.14869C15.5855 8.7123 15.9596 8.33825 16.396 8.33825C16.5206 8.33825 16.7077 8.40059 16.8323 8.46293L18.1415 9.27338L19.4507 8.46293C19.8248 8.21356 20.3235 8.33825 20.5105 8.7123C20.5729 8.83698 20.6352 8.96167 20.6352 9.14869V10.5202C20.6352 10.7072 20.5729 10.8319 20.4482 10.9566L19.5754 11.8294L18.8896 12.5152L18.0792 13.2633L17.3934 12.5775L16.7077 11.8917L15.8349 11.019C15.7102 10.8943 15.6479 10.7696 15.6479 10.5826V9.14869H15.5855ZM23.0666 17.4402L19.2637 19.6222L20.2612 17.0038C20.5105 16.318 20.3235 15.5699 19.8248 15.0088L18.952 14.1361L20.1365 12.9516L22.6302 13.762C22.8795 13.8243 23.0666 14.0737 23.0666 14.3231V17.4402ZM18.0792 15.0088L18.952 15.8816C19.139 16.0687 19.2013 16.318 19.0767 16.5674L18.0792 19.2481L17.0817 16.5674C17.0194 16.318 17.0817 16.0687 17.2064 15.8816L18.0792 15.0088ZM16.0219 12.9516L17.2064 14.1361L16.3336 15.0088C15.8349 15.5076 15.6479 16.318 15.8972 17.0038L16.8947 19.6222L13.0918 17.4402V14.4478C13.0918 14.1984 13.2789 13.949 13.5282 13.8867L16.0219 12.9516ZM27.1188 35.7064C26.9318 35.8311 26.6824 35.8311 26.4954 35.7064L21.8197 33.0257V30.0333C21.8197 29.7839 22.0067 29.5345 22.2561 29.4722L24.7498 28.6618C25.8719 29.7839 27.7422 29.7839 28.8644 28.6618L31.358 29.4722C31.6074 29.5345 31.7944 29.7839 31.7944 30.0333V33.0257L27.1188 35.7064ZM24.3134 24.1108V23.9861L26.8071 23.4874L29.3008 23.9861V25.607C29.3008 25.7317 29.2384 25.8564 29.1761 25.981L28.1786 27.5396C27.6175 28.2877 26.5577 28.4747 25.8096 27.8513C25.6849 27.7266 25.5602 27.6643 25.4979 27.5396L24.5004 25.981C24.4381 25.8564 24.3757 25.7317 24.3757 25.607V24.1108H24.3134ZM29.3008 22.7393L26.8071 22.2405L24.3134 22.7393V21.6171C24.3134 21.2431 24.5628 20.9937 24.9368 20.9937H29.3008V22.7393ZM34.5998 21.1807C34.7869 21.3054 34.9115 21.4924 34.9115 21.7418V30.9061C34.9115 31.1554 34.7869 31.3425 34.5998 31.4671L33.0413 32.2776V29.9709C33.0413 29.1605 32.5425 28.4747 31.7321 28.2254L29.6125 27.5396L30.1735 26.6668C30.3606 26.3551 30.4853 25.981 30.4853 25.607V19.7468H24.8745C23.8147 19.7468 23.0042 20.5573 23.0042 21.6171V25.607C23.0042 25.981 23.1289 26.3551 23.3159 26.6668L23.877 27.5396L21.7574 28.2254C21.0716 28.4747 20.5729 29.1605 20.5729 29.9709V32.2776L18.7026 31.2178V21.3054C18.8273 21.2431 18.8896 21.243 19.0143 21.1807L26.8071 16.7544L34.5998 21.1807ZM10.2864 5.5952L17.7675 1.2936C17.9545 1.16891 18.2039 1.16891 18.3909 1.2936L25.8719 5.5952C26.059 5.71988 26.1837 5.90691 26.1837 6.15628V15.6946L24.3134 16.7544V14.4478C24.3134 13.6373 23.8147 12.9516 23.0042 12.7022L21.0716 12.0788L21.2586 11.8917C21.6327 11.5177 21.8197 11.0813 21.8197 10.5826V6.03159C21.8197 4.97178 21.0093 4.16133 19.9495 4.16133H16.2089C15.1491 4.16133 14.3387 4.97178 14.3387 6.03159V10.5202C14.3387 11.019 14.5257 11.5177 14.8997 11.8294L15.0868 12.0164L13.1542 12.6398C12.3437 12.8892 11.845 13.575 11.845 14.3854V16.6921L9.97473 15.6323V6.15628C9.97473 5.90691 10.0994 5.71988 10.2864 5.5952ZM1.24684 21.7418C1.24684 21.4924 1.37152 21.3054 1.55855 21.1807L9.35131 16.7544L17.1441 21.1807C17.2687 21.243 17.3311 21.2431 17.4558 21.3054V31.2178L15.5855 32.2776V30.9061C15.5855 30.345 15.3361 29.8463 14.9621 29.5345L14.5257 23.9861C14.2763 21.1184 11.7826 18.9987 8.97725 19.1858C6.42123 19.3728 4.42628 21.4301 4.17692 23.9861L3.74052 29.5345C3.36647 29.9086 3.1171 30.4073 3.1171 30.9061V32.2776L1.55855 31.4048C1.37152 31.2801 1.24684 31.0931 1.24684 30.8437V21.7418Z" fill="#1351B4"/>
</svg>
