<svg width="37" height="37" viewBox="0 0 37 37" fill="none" xmlns="http://www.w3.org/2000/svg">
<path d="M37.0018 18.4991C37.0018 28.6994 28.7011 37 18.5009 37C13.489 37 8.79799 35.0293 5.28938 31.4497C4.9491 31.1029 4.95571 30.5445 5.3026 30.2042C5.64949 29.8623 6.20616 29.8706 6.5481 30.2158C9.72132 33.4551 13.9666 35.2375 18.5011 35.2375C27.73 35.2375 35.2394 27.728 35.2394 18.4992C35.2394 9.2703 27.73 1.76086 18.5011 1.76086C18.0138 1.76086 17.6207 1.36607 17.6207 0.88043C17.6207 0.394798 18.0155 2.46523e-07 18.5011 2.46523e-07C28.703 -0.00165151 37.0018 8.29725 37.0018 18.4991ZM1.76259 18.4991C1.76259 10.5685 7.39362 3.67055 15.1526 2.09449C15.6299 1.99703 15.9372 1.53287 15.8414 1.05548C15.7439 0.578097 15.2798 0.269185 14.8024 0.366658C6.22601 2.10938 0 9.73422 0 18.4992C0 21.9565 0.959719 25.3278 2.77513 28.2503C2.94197 28.5196 3.22938 28.6666 3.52506 28.6666C3.68364 28.6666 3.84387 28.6236 3.98925 28.5344C4.40221 28.2767 4.52939 27.7349 4.27337 27.322C2.62978 24.6773 1.76259 21.6259 1.76259 18.4991ZM11.0244 9.77731L9.15617 7.90905C8.81258 7.56546 8.25426 7.56546 7.91067 7.90905C7.56708 8.25263 7.56708 8.81096 7.91067 9.15454L9.77894 11.0228C9.95073 11.1946 10.177 11.2805 10.4017 11.2805C10.6264 11.2805 10.8527 11.1946 11.0245 11.0228C11.3697 10.6792 11.3697 10.1226 11.0244 9.77731ZM7.92885 18.4991C7.92885 18.0119 7.53406 17.6187 7.04842 17.6187H4.40544C3.91816 17.6187 3.52502 18.0135 3.52502 18.4991C3.52502 18.9848 3.91981 19.3796 4.40544 19.3796H7.04842C7.53406 19.3796 7.92885 18.9864 7.92885 18.4991ZM9.77894 25.9756L7.91067 27.8439C7.56708 28.1875 7.56708 28.7458 7.91067 29.0894C8.08246 29.2612 8.30877 29.3471 8.53344 29.3471C8.75811 29.3471 8.9844 29.2612 9.15621 29.0894L11.0245 27.2211C11.3681 26.8775 11.3681 26.3192 11.0245 25.9756C10.6809 25.6304 10.1242 25.6304 9.77894 25.9756ZM17.6203 29.9516V32.5946C17.6203 33.0819 18.0151 33.475 18.5008 33.475C18.9864 33.475 19.3812 33.0802 19.3812 32.5946V29.9516C19.3812 29.466 18.9881 29.0712 18.5008 29.0712C18.0135 29.0712 17.6203 29.466 17.6203 29.9516ZM29.0727 18.4993C29.0727 18.9866 29.4675 19.3797 29.9531 19.3797H32.5961C33.0834 19.3797 33.4765 18.9849 33.4765 18.4993C33.4765 18.0136 33.0817 17.6188 32.5961 17.6188H29.9531C29.4675 17.6188 29.0727 18.012 29.0727 18.4993ZM27.8454 7.90917L25.9771 9.77744C25.6335 10.121 25.6335 10.6794 25.9771 11.0229C26.1489 11.1947 26.3752 11.2806 26.5999 11.2806C26.8245 11.2806 27.0508 11.1947 27.2226 11.0229L29.0909 9.15467C29.4345 8.81108 29.4345 8.25276 29.0909 7.90917C28.7473 7.56558 28.189 7.56558 27.8454 7.90917ZM12.6303 6.62735C12.7707 6.96763 13.0994 7.17083 13.4446 7.17083C13.557 7.17083 13.671 7.14935 13.7816 7.1031C14.2309 6.91644 14.444 6.40104 14.259 5.95173L13.922 5.13736C13.7354 4.68805 13.22 4.47332 12.7707 4.65997C12.3214 4.84664 12.1083 5.36203 12.2933 5.81134L12.6303 6.62735ZM5.81477 12.2918C5.36546 12.1051 4.8501 12.3182 4.6634 12.7692C4.47674 13.2185 4.68983 13.7338 5.14079 13.9205L5.95516 14.2575C6.06584 14.3038 6.17981 14.3252 6.29214 14.3252C6.63738 14.3252 6.96612 14.1204 7.10652 13.7818C7.29318 13.3325 7.08009 12.8171 6.62913 12.6304L5.81477 12.2918ZM5.81477 24.707L6.62914 24.37C7.07845 24.185 7.29154 23.668 7.10653 23.2187C6.91986 22.7694 6.40447 22.5546 5.95516 22.7413L5.14079 23.0783C4.69148 23.2633 4.47839 23.7803 4.6634 24.2296C4.80381 24.5683 5.13254 24.7731 5.47778 24.7731C5.5901 24.7748 5.70574 24.7533 5.81477 24.707ZM12.769 32.337C12.8796 32.3832 12.9936 32.4047 13.106 32.4047C13.4512 32.4047 13.7799 32.1999 13.9203 31.8612L14.2573 31.0469C14.444 30.5975 14.2309 30.0822 13.7799 29.8955C13.3306 29.7088 12.8153 29.9236 12.6286 30.3729L12.2916 31.1872C12.1066 31.6349 12.3197 32.1503 12.769 32.337ZM22.7446 31.0452L23.0816 31.8596C23.222 32.1982 23.5508 32.4031 23.896 32.4031C24.0083 32.4031 24.1223 32.3816 24.233 32.3353C24.6823 32.1503 24.8954 31.6333 24.7104 31.184L24.3734 30.3696C24.1884 29.9203 23.6697 29.7089 23.222 29.8922C22.7711 30.0805 22.558 30.5959 22.7446 31.0452ZM31.047 22.7429C30.601 22.5595 30.0823 22.7693 29.8956 23.2203C29.7106 23.6696 29.9237 24.1849 30.373 24.3716L31.1874 24.7086C31.298 24.7549 31.412 24.7763 31.5243 24.7763C31.8696 24.7763 32.1983 24.5715 32.3387 24.2329C32.5237 23.7836 32.3106 23.2682 31.8613 23.0815L31.047 22.7429ZM30.71 14.3234C30.8223 14.3234 30.9363 14.3019 31.047 14.2557L31.8613 13.9187C32.3107 13.732 32.5237 13.2166 32.3387 12.7673C32.1537 12.3164 31.635 12.1066 31.1874 12.2899L30.373 12.6269C29.9237 12.8136 29.7106 13.329 29.8956 13.7783C30.036 14.1186 30.3648 14.3234 30.71 14.3234ZM23.2204 7.1049C23.3311 7.15115 23.4451 7.17263 23.5574 7.17263C23.9026 7.17263 24.2314 6.9678 24.3718 6.62915L24.7088 5.81477C24.8938 5.36547 24.6807 4.85011 24.2314 4.66341C23.7854 4.4784 23.2667 4.68984 23.08 5.14079L22.743 5.95517C22.558 6.40283 22.7711 6.9182 23.2204 7.1049ZM25.353 26.5987L27.844 29.0897C28.0158 29.2615 28.2421 29.3474 28.4668 29.3474C28.6914 29.3474 28.9177 29.2615 29.0895 29.0897C29.4331 28.7461 29.4331 28.1878 29.0895 27.8442L26.5985 25.3532C26.2549 25.0096 25.6966 25.0096 25.353 25.3532C25.0094 25.6968 25.0094 26.2534 25.353 26.5987ZM13.9138 21.8413C13.5702 22.1849 13.5702 22.7432 13.9138 23.0868C14.0855 23.2586 14.3119 23.3445 14.5365 23.3445C14.7612 23.3445 14.9875 23.2586 15.1593 23.0868L18.05 20.1961C18.1954 20.2341 18.3441 20.2621 18.501 20.2621C19.4739 20.2621 20.2635 19.4742 20.2635 18.4996C20.2635 17.8487 19.9067 17.2871 19.3831 16.9815V11.4512C19.3831 10.9639 18.9883 10.5707 18.5027 10.5707C18.017 10.5707 17.6223 10.9655 17.6223 11.4512V16.9815C17.0986 17.2871 16.7418 17.8488 16.7418 18.4996C16.7418 18.6565 16.7683 18.8052 16.8079 18.9505L13.9138 21.8413ZM18.5011 7.92782C18.9884 7.92782 19.3815 7.53303 19.3815 7.04739V4.40441C19.3815 3.91713 18.9868 3.52398 18.5011 3.52398C18.0155 3.52398 17.6207 3.91878 17.6207 4.40441V7.04739C17.6207 7.53302 18.0138 7.92782 18.5011 7.92782Z" fill="#1351B4"/>
</svg>
