<svg width="37" height="33" viewBox="0 0 37 33" fill="none" xmlns="http://www.w3.org/2000/svg">
<path d="M26.0629 0.3265C25.2591 0.106924 24.4456 0 23.6456 0C19.7696 0 16.1495 2.45732 14.8605 6.33331C13.3063 11.0093 15.7083 16.0652 20.2373 17.8522L26.0629 0.3265Z" fill="#1351B4"/>
<path d="M23.4589 18.4978H23.8045C27.6156 18.4252 31.1462 15.9851 32.4156 12.1684C33.1946 9.82369 33.0151 7.31672 31.9077 5.10776C30.8785 3.0533 29.1601 1.48569 27.0388 0.649414L21.2134 18.1751C21.9618 18.3794 22.7142 18.4844 23.4589 18.4978Z" fill="#1351B4"/>
<path d="M0 26.206C0 29.8892 2.99577 32.8869 6.68084 32.8869H17.4724V22.609H10.7916C10.5071 22.609 10.278 22.3799 10.278 22.0954C10.278 21.8109 10.509 21.5817 10.7916 21.5817H17.4724V19.5254H6.68084C2.99768 19.5254 0 22.5229 0 26.206Z" fill="#1351B4"/>
<path d="M30.3188 19.5256H23.8081C23.7489 19.5275 23.6897 19.5294 23.6305 19.5294C23.5713 19.5294 23.5121 19.5275 23.453 19.5256H18.5V29.8035H29.2916C29.5761 29.8035 29.8052 30.0326 29.8052 30.3171C29.8052 30.6016 29.5761 30.8307 29.2916 30.8307H18.5V32.8871H30.3191C34.0022 32.8871 36.9999 29.8894 36.9999 26.2062C36.9999 22.5231 34.002 19.5256 30.3188 19.5256Z" fill="#1351B4"/>
</svg>
