<svg width="30" height="37" viewBox="0 0 30 37" fill="none" xmlns="http://www.w3.org/2000/svg">
<path d="M27.1274 31.0069H2.99576C2.17266 31.0069 1.42359 31.3447 0.880683 31.8871C0.337775 32.43 0 33.1796 0 34.0022C0 34.8273 0.337775 35.5764 0.880683 36.1193C1.42359 36.6622 2.17266 37 2.99576 37H27.1274V31.0069ZM27.9685 27.038C28.4204 26.9521 28.8255 26.7295 29.1381 26.4174C29.5468 26.0087 29.8003 25.4452 29.8003 24.8252V19.7087H27.9685V27.038ZM27.9685 10.6186C28.4204 10.5327 28.8255 10.3101 29.1381 9.99753C29.5468 9.5888 29.8003 9.02533 29.8003 8.40582V3.28932H27.9685V10.6186ZM27.9685 18.828C28.4204 18.7422 28.8255 18.5201 29.1381 18.2075C29.5468 17.7987 29.8003 17.2353 29.8003 16.6152V11.4987H27.9685V18.828ZM7.14726 10.6078C6.91539 10.6078 6.72671 10.4191 6.72671 10.1867C6.72671 9.95486 6.91539 9.76617 7.14726 9.76617H8.20737C8.1174 9.48804 8.05622 9.2171 8.02023 8.95387C7.83515 7.59454 8.31996 6.44446 9.13021 5.66814C9.93943 4.89234 11.0772 4.4903 12.1979 4.62346C13.3449 4.7597 14.4703 5.44605 15.204 6.84907C15.9371 5.44605 17.063 4.7597 18.2095 4.62294C19.3303 4.48979 20.468 4.89183 21.2773 5.66763C22.088 6.44446 22.5723 7.59454 22.3878 8.95387C22.3523 9.2171 22.2906 9.48855 22.2006 9.76617H23.2592C23.491 9.76617 23.6797 9.95486 23.6797 10.1867C23.6797 10.4191 23.491 10.6078 23.2592 10.6078H21.849C20.9698 12.326 19.0028 14.2349 15.3927 16.0554C15.2698 16.1176 15.13 16.113 15.0153 16.0554C11.4057 14.2349 9.43868 12.326 8.55903 10.6078H7.14726ZM9.09474 9.76617H10.763L11.5347 8.75953C11.6751 8.57599 11.9388 8.54052 12.1229 8.68139C12.1836 8.72817 12.2283 8.78781 12.2555 8.85464L13.1871 10.7476L13.567 9.99804C13.6406 9.85203 13.7881 9.76772 13.9418 9.76772L16.4656 9.76617C16.641 9.76617 16.7911 9.87414 16.8543 10.0263L17.2204 10.7476L18.1633 8.83099C18.2645 8.62329 18.5154 8.53743 18.7231 8.63871C18.7838 8.66802 18.8337 8.71018 18.8712 8.76005L19.6439 9.76617H21.3132C21.4361 9.44691 21.5163 9.13844 21.5564 8.84282C21.7019 7.77346 21.3261 6.87478 20.6963 6.2712C20.066 5.66763 19.1791 5.3535 18.3077 5.45736C17.225 5.58589 16.1546 6.37454 15.6035 8.0665C15.5634 8.18989 15.4667 8.29271 15.3336 8.3359C15.113 8.40788 14.8765 8.28706 14.805 8.0665C14.2529 6.37454 13.1825 5.5864 12.0998 5.45787C11.2283 5.35402 10.342 5.66814 9.71116 6.27172C9.08137 6.87529 8.70606 7.77397 8.85156 8.84282C8.89166 9.13844 8.97186 9.44691 9.09474 9.76617ZM20.8963 10.6078H19.4383C19.3118 10.6062 19.1874 10.5497 19.1046 10.4417L18.6167 9.80525L17.6116 11.8478C17.5741 11.9363 17.5067 12.0129 17.4142 12.0591C17.208 12.163 16.9551 12.0802 16.8512 11.8735L16.2086 10.6078H14.1984L13.5557 11.8735C13.5156 11.9517 13.4503 12.019 13.365 12.0607C13.1578 12.162 12.9069 12.0761 12.8056 11.8684L11.7903 9.80525L11.3198 10.4191C11.2443 10.5327 11.1152 10.6078 10.9692 10.6078H9.5122C10.3811 12.0453 12.1424 13.639 15.204 15.2102C18.2661 13.6385 20.0269 12.0447 20.8963 10.6078ZM9.323 25.5676C9.09114 25.5676 8.90246 25.3789 8.90246 25.147C8.90246 24.9152 9.09114 24.7265 9.323 24.7265H20.8526C21.085 24.7265 21.2737 24.9152 21.2737 25.147C21.2737 25.3789 21.085 25.5676 20.8526 25.5676H9.323ZM9.323 21.9888C9.09114 21.9888 8.90246 21.8001 8.90246 21.5677C8.90246 21.3359 9.09114 21.1472 9.323 21.1472H20.8526C21.085 21.1472 21.2737 21.3359 21.2737 21.5677C21.2737 21.8001 21.085 21.9888 20.8526 21.9888H9.323ZM3.27956 0V30.1653H27.1274V27.4924V19.2881V11.0782V2.86312V0H3.27956ZM2.43846 30.2065V0.0303329C1.82049 0.121846 1.26421 0.414893 0.839554 0.839554C0.321838 1.35676 0.000514619 2.07138 0.000514619 2.85798L0.00668378 31.6033C0.0940837 31.4943 0.187653 31.3905 0.28585 31.2923C0.856006 30.7221 1.60456 30.3288 2.43846 30.2065Z" fill="#1351B4"/>
</svg>
