<svg width="35" height="37" viewBox="0 0 35 37" fill="none" xmlns="http://www.w3.org/2000/svg">
<path d="M33.9633 2.49187H25.2638C24.5728 -0.833709 19.9083 -0.827533 19.2173 2.49187H10.5178C10.1784 2.49187 9.90078 2.76948 9.90078 3.10885C9.90371 7.26092 9.89868 15.3187 9.90078 19.3788C6.63693 14.8439 1.96015 14.918 0.300453 19.5207C-1.67163 25.422 6.57828 33.1002 10.0797 36.8149C10.2031 36.9198 10.3512 37 10.5178 37H33.9633C34.3027 37 34.5803 36.7223 34.5803 36.383V3.10885C34.5803 2.76948 34.3027 2.49187 33.9633 2.49187ZM21.0066 11.7035C17.7489 11.5986 17.7427 6.87246 21.0066 6.76759C24.2704 6.87246 24.2704 11.5986 21.0066 11.7035ZM25.017 8.92705C27.923 8.92705 29.9221 11.7528 29.6444 14.7884C29.632 15.6029 28.4228 15.5967 28.4104 14.7884C28.6325 12.4192 27.2813 10.1919 25.017 10.161C24.2026 10.1487 24.2087 8.93936 25.017 8.92705ZM25.3255 28.9792C26.1345 28.9942 26.1371 30.1975 25.3255 30.2131H20.3896C20.0502 30.2131 19.7726 29.9355 19.7726 29.5961C19.7726 29.2568 20.0502 28.9792 20.3896 28.9792H25.3255ZM19.1556 32.0641H25.3255C26.1399 32.0764 26.1337 33.2857 25.3255 33.2981H19.1556C18.3466 33.283 18.344 32.0797 19.1556 32.0641ZM31.3165 19.2863C31.8846 19.8628 31.0167 20.7307 30.4403 20.1623L29.0274 18.7433L27.6145 20.1624C27.3739 20.403 26.979 20.403 26.7384 20.1624C26.4978 19.9218 26.4978 19.5269 26.7384 19.2863L28.1575 17.8734L26.7384 16.4604C26.4978 16.2198 26.4978 15.825 26.7384 15.5843C26.979 15.3437 27.3739 15.3437 27.6145 15.5843L29.0274 17.0034L30.4403 15.5843C30.6809 15.3437 31.0758 15.3437 31.3165 15.5843C31.557 15.825 31.557 16.2198 31.3165 16.4604L29.8973 17.8734L31.3165 19.2863ZM1.48506 19.8848C3.28052 15.1648 7.8462 17.3921 10.0304 22.001C10.2339 22.3157 10.7152 22.328 10.9558 22.0565C12.7759 18.3238 15.756 16.5777 17.5453 17.4785C19.7232 18.5829 20.1551 21.0262 19.4826 23.4263H13.6027C13.3806 23.4263 13.177 23.5435 13.0659 23.7348L10.999 27.3565L7.87091 24.2222C7.59943 23.9445 7.09967 24.0062 6.90841 24.3394L4.32936 28.5287C1.94162 25.6412 0.70151 21.9578 1.48506 19.8848ZM5.14379 29.5591L7.55006 25.6474L10.6967 28.8002C10.9743 29.084 11.4864 29.0162 11.6715 28.6707L13.9606 24.6602H19.0507C17.2187 28.7317 13.577 32.2239 10.5178 35.5007C9.16657 34.1186 6.96392 31.7926 5.14379 29.5591Z" fill="#1351B4"/>
<path d="M21.0063 10.4699C22.6352 10.4267 22.6352 8.04515 21.0063 8.00195C19.3775 8.04515 19.3775 10.4267 21.0063 10.4699Z" fill="#1351B4"/>
</svg>
