<svg width="23" height="21" viewBox="0 0 23 21" fill="none" xmlns="http://www.w3.org/2000/svg">
<g clip-path="url(#clip0_528_460)">
<path d="M20.2787 1.55371H17.9673V3.74567C17.9673 4.19219 17.6086 4.5575 17.1702 4.5575C16.7239 4.5575 16.3732 4.19219 16.3732 3.74567V1.55371H6.21875V3.74567C6.21875 4.19219 5.86805 4.5575 5.42169 4.5575C4.9833 4.5575 4.62464 4.19219 4.62464 3.74567V1.55371H2.31316C1.11758 1.55371 0.137207 2.55228 0.137207 3.77814V5.78339H22.4549V3.77814C22.4549 2.55226 21.4743 1.55371 20.2787 1.55371Z" fill="#1351B4" fill-opacity="0.5"/>
<path d="M0.137207 17.8719C0.137207 19.0978 1.1176 20.0963 2.31316 20.0963H14.4524C14.1495 19.2358 14.3408 18.2453 15.0103 17.5634L15.7994 16.7678L15.0103 15.9641C14.0778 15.0142 14.0778 13.4717 15.0103 12.5219C15.9429 11.5639 17.4573 11.5639 18.3899 12.5219L19.179 13.3175L19.9681 12.5219C20.6376 11.8318 21.61 11.637 22.4549 11.9455V7.40723H0.137283L0.137207 17.8719Z" fill="#1351B4" fill-opacity="0.5"/>
<path d="M6.21863 0.985664C6.21863 0.539141 5.86792 0.173828 5.42157 0.173828C4.98318 0.173828 4.62451 0.539141 4.62451 0.985664V1.55395H6.21863V0.985664Z" fill="#1351B4" fill-opacity="0.5"/>
<path d="M17.9667 0.985664C17.9667 0.539141 17.6081 0.173828 17.1697 0.173828C16.7233 0.173828 16.3726 0.539141 16.3726 0.985664V1.55395H17.9667V0.985664Z" fill="#1351B4" fill-opacity="0.5"/>
<path d="M22.2211 13.6662C21.9102 13.3495 21.4051 13.3495 21.0942 13.6662L19.1793 15.6166L17.2643 13.6662C16.9535 13.3495 16.4484 13.3495 16.1375 13.6662C15.8266 13.9828 15.8266 14.4973 16.1375 14.8139L18.0524 16.7633L16.1375 18.7127C15.8266 19.0294 15.8266 19.5439 16.1375 19.8605C16.2929 20.0188 16.4972 20.098 16.7014 20.098C16.9056 20.098 17.1089 20.0188 17.2653 19.8605L19.1802 17.9101L21.0952 19.8605C21.2496 20.0198 21.4528 20.1 21.6571 20.1C21.8613 20.1 22.0646 20.0208 22.221 19.8625C22.5319 19.5459 22.5319 19.0314 22.221 18.7148L20.3061 16.7654L22.221 14.8159C22.5319 14.4963 22.5319 13.9828 22.2211 13.6662Z" fill="#1351B4" fill-opacity="0.5"/>
</g>
<defs>
<clipPath id="clip0_528_460">
<rect width="23" height="21" fill="white"/>
</clipPath>
</defs>
</svg>
