<svg width="125" height="125" viewBox="0 0 125 125" fill="none" xmlns="http://www.w3.org/2000/svg">
<path d="M60.8103 0.0216237C44.5097 0.462022 29.0278 7.24076 17.6658 18.9122C6.30479 30.5847 -0.0349065 46.2254 0.000158397 62.4953C-0.0245721 73.4587 2.84699 84.2343 8.32589 93.7374C13.8058 103.239 21.6988 111.133 31.2089 116.621C40.7201 122.11 51.5123 125 62.4995 125C73.4868 125 84.279 122.11 93.7901 116.621C103.3 111.133 111.193 103.239 116.673 93.7374C122.152 84.2348 125.024 73.4592 125 62.4953C125.023 51.343 122.049 40.3881 116.387 30.772C110.724 21.1564 102.582 13.2311 92.8066 7.82293C83.032 2.41472 71.9819 -0.278941 60.8098 0.0228384L60.8103 0.0216237ZM62.6709 30.5494H62.6699C63.837 30.5931 64.9423 31.0838 65.7556 31.919C66.5689 32.7552 67.0283 33.8714 67.0378 35.036V74.6755C67.0198 76.2804 66.1513 77.7564 64.755 78.5536C63.3586 79.3509 61.6437 79.3509 60.2481 78.5536C58.8518 77.7564 57.9833 76.2804 57.9653 74.6755V35.036C57.9748 33.8125 58.4808 32.646 59.3673 31.8005C60.2538 30.9548 61.4447 30.5039 62.6698 30.5495L62.6709 30.5494ZM62.4064 86.0068H62.4055C63.6316 85.9802 64.8158 86.451 65.688 87.3109C66.5611 88.1709 67.0472 89.3459 67.0377 90.5693C67.051 91.7785 66.5792 92.944 65.727 93.8038C64.8747 94.6637 63.7133 95.1478 62.5015 95.1478C61.2887 95.1478 60.1273 94.6637 59.275 93.8038C58.4227 92.9439 57.9509 91.7784 57.9652 90.5693C57.9547 89.3791 58.4151 88.2325 59.2465 87.3782C60.0778 86.524 61.2126 86.0314 62.4055 86.0068L62.4064 86.0068Z" fill="#FFBC00"/>
</svg>
