<svg width="37" height="37" viewBox="0 0 37 37" fill="none" xmlns="http://www.w3.org/2000/svg">
<path d="M19.0968 28.6449H17.9033V27.4514C17.9033 26.7931 17.368 26.2578 16.7097 26.2578H15.5162C14.8579 26.2578 14.3226 26.7931 14.3226 27.4514V28.6449H13.1291C12.4709 28.6449 11.9355 29.1802 11.9355 29.8385V31.032C11.9355 31.6902 12.4709 32.2256 13.1291 32.2256H14.3226V33.4191C14.3226 34.0773 14.8579 34.6127 15.5162 34.6127H16.7097C17.368 34.6127 17.9033 34.0773 17.9033 33.4191V32.2256H19.0968C19.7551 32.2256 20.2904 31.6902 20.2904 31.032V29.8385C20.2904 29.1802 19.7551 28.6449 19.0968 28.6449ZM19.0968 31.032H16.7097V33.4191H15.5162V31.032H13.1291V29.8385H15.5162V27.4514H16.7097V29.8385L19.0968 29.8402V31.032Z" fill="#1351B4"/>
<path d="M5.96796 25.0646H16.7099C17.3681 25.0646 17.9034 24.5293 17.9034 23.871V13.1291C17.9034 12.4709 17.3681 11.9355 16.7099 11.9355H5.96796C5.30972 11.9355 4.77441 12.4709 4.77441 13.1291V23.871C4.77441 24.5293 5.30972 25.0646 5.96796 25.0646ZM9.54861 17.3065C9.54861 16.3194 10.3519 15.5162 11.3389 15.5162C12.326 15.5162 13.1293 16.3194 13.1293 17.3065C13.1293 18.2936 12.326 19.0968 11.3389 19.0968C10.3519 19.0968 9.54861 18.2936 9.54861 17.3065ZM14.3228 23.871H8.35506V23.2743C8.35506 21.6289 9.69362 20.2904 11.3389 20.2904C12.9842 20.2904 14.3228 21.6289 14.3228 23.2743V23.871ZM5.96796 13.1291H16.7099V23.871H15.5163V23.2743C15.5163 21.6642 14.5991 20.2665 13.2611 19.5695C13.9051 19.0216 14.3228 18.216 14.3228 17.3065C14.3228 15.6612 12.9842 14.3226 11.3389 14.3226C9.69362 14.3226 8.35506 15.6612 8.35506 17.3065C8.35506 18.216 8.7728 19.0216 9.41672 19.5695C8.07875 20.2665 7.16151 21.6642 7.16151 23.2743V23.871H5.96796V13.1291Z" fill="#1351B4"/>
<path d="M5.96796 33.4189H4.77441V34.6125H5.96796V33.4189Z" fill="#1351B4"/>
<path d="M8.35468 33.4189H7.16113V34.6125H8.35468V33.4189Z" fill="#1351B4"/>
<path d="M10.7419 33.4189H9.54834V34.6125H10.7419V33.4189Z" fill="#1351B4"/>
<path d="M10.7422 31.0322H4.77441V32.2258H10.7422V31.0322Z" fill="#1351B4"/>
<path d="M7.16151 28.6455H4.77441V29.8391H7.16151V28.6455Z" fill="#1351B4"/>
<path d="M10.7421 28.6455H8.35498V29.8391H10.7421V28.6455Z" fill="#1351B4"/>
<path d="M7.16151 26.2578H4.77441V27.4514H7.16151V26.2578Z" fill="#1351B4"/>
<path d="M11.9356 26.2578H8.35498V27.4514H11.9356V26.2578Z" fill="#1351B4"/>
<path d="M27.9921 29.5357L26.6798 28.2234L25.8359 29.0672L28.1043 31.3356L32.6965 25.4311L31.7547 24.6982L27.9921 29.5357Z" fill="#1351B4"/>
<path d="M31.0324 32.2257H25.0646V26.258H28.6453V25.0645H23.8711V33.4193H32.2259V28.6451H31.0324V32.2257Z" fill="#1351B4"/>
<path d="M35.8065 1.19355H21.4839C21.4839 0.535306 20.9486 0 20.2903 0H19.0968C18.4385 0 17.9032 0.535306 17.9032 1.19355H15.5161C14.8579 1.19355 14.3226 1.72885 14.3226 2.3871V3.58065C13.6643 3.58065 13.129 4.11595 13.129 4.77419V5.96774H2.3871C1.07061 5.96774 0 7.03836 0 8.35484V35.2097C0 36.1967 0.803258 37 1.79032 37H19.6935C20.6645 37 21.5203 36.5268 22.0651 35.8065H33.4194C34.0776 35.8065 34.6129 35.2711 34.6129 34.6129V33.4194H35.8065C36.4647 33.4194 37 32.884 37 32.2258V2.3871C37 1.72885 36.4647 1.19355 35.8065 1.19355ZM19.6935 9.54839H16.7097V7.16129H26.2581V15.5161H22.6774V12.5323C22.6774 10.887 21.3389 9.54839 19.6935 9.54839ZM20.2903 1.19355V5.96774H19.0968V1.19355H20.2903ZM15.5161 2.3871H17.9032V3.58065H15.5161V2.3871ZM17.9032 4.77419V5.96774H15.5161V9.54839H14.3226V4.77419H17.9032ZM2.3871 7.16129H13.129V9.54839H2.3871C1.72885 9.54839 1.19355 9.01308 1.19355 8.35484C1.19355 7.6966 1.72885 7.16129 2.3871 7.16129ZM1.19355 35.2097V10.4215C1.54505 10.6256 1.95265 10.7419 2.3871 10.7419V35.8065H1.79032C1.4609 35.8065 1.19355 35.5385 1.19355 35.2097ZM19.6935 35.8065H3.58065V10.7419H19.6935C20.6806 10.7419 21.4839 11.5452 21.4839 12.5323V17.7624C21.4839 17.9898 21.3574 18.1945 21.1539 18.2959L20.0862 18.83C19.4763 19.135 19.0968 19.7485 19.0968 20.4312V23.7301C19.0968 24.4128 19.4763 25.0257 20.0862 25.3313L21.1539 25.8654C21.3574 25.9668 21.4839 26.1715 21.4839 26.3989V34.0161C21.4839 35.0032 20.6806 35.8065 19.6935 35.8065ZM22.6171 34.6129C22.6565 34.4201 22.6774 34.2202 22.6774 34.0161V26.3989C22.6774 25.7162 22.2979 25.1033 21.688 24.7978L20.6203 24.2636C20.4168 24.1622 20.2903 23.9575 20.2903 23.7301V20.4312C20.2903 20.2038 20.4168 19.9991 20.6203 19.8976L21.688 19.3635C22.2979 19.0586 22.6774 18.4451 22.6774 17.7624V16.7097H27.4516V5.96774H21.4839V4.77419H28.6452V9.54839H33.4194V34.6129H22.6171ZM29.8387 5.61803L32.5755 8.35484H29.8387V5.61803ZM35.8065 32.2258H34.6129V9.19868C34.6129 8.88 34.4888 8.58042 34.2632 8.35484L29.8387 3.93035C29.6167 3.70776 29.3088 3.58065 28.9949 3.58065H21.4839V2.3871H35.8065V32.2258Z" fill="#1351B4"/>
<path d="M32.226 17.9033H26.2583V19.0969H32.226V17.9033Z" fill="#1351B4"/>
<path d="M25.0646 17.9033H23.8711V19.0969H25.0646V17.9033Z" fill="#1351B4"/>
<path d="M32.2258 20.29H21.4839V21.4836H32.2258V20.29Z" fill="#1351B4"/>
<path d="M29.8387 22.6777H21.4839V23.8713H29.8387V22.6777Z" fill="#1351B4"/>
</svg>
