<svg width="52" height="37" viewBox="0 0 52 37" fill="none" xmlns="http://www.w3.org/2000/svg">
<path d="M23.4949 4.28452C23.5348 4.05453 23.5555 3.81765 23.5555 3.57634C23.5555 3.33503 23.5348 3.09815 23.4949 2.86816H29.1391C29.3337 2.86816 29.5105 2.94794 29.639 3.07648C29.7675 3.20502 29.8473 3.38181 29.8473 3.57634C29.8473 3.77087 29.7675 3.94766 29.639 4.0762C29.5105 4.20474 29.3337 4.28452 29.1391 4.28452H23.4949ZM28.8038 9.42101H36.6006V35.0188H28.8038V9.42101ZM30.6417 15.0968C30.6417 15.2524 30.7678 15.3785 30.9234 15.3785H34.1609C34.3165 15.3785 34.4426 15.2524 34.4426 15.0968V12.1872C34.4426 12.0316 34.3165 11.9055 34.1609 11.9055H30.9234C30.7678 11.9055 30.6417 12.0316 30.6417 12.1872V15.0968ZM30.6417 20.9163C30.6417 21.0719 30.7678 21.198 30.9234 21.198H34.1609C34.3165 21.198 34.4426 21.0719 34.4426 20.9163V18.0068C34.4426 17.8512 34.3165 17.7251 34.1609 17.7251H30.9234C30.7678 17.7251 30.6417 17.8512 30.6417 18.0068V20.9163ZM30.6417 26.7359C30.6417 26.8915 30.7678 27.0176 30.9234 27.0176H34.1609C34.3165 27.0176 34.4426 26.8915 34.4426 26.7359V23.8263C34.4426 23.6707 34.3165 23.5446 34.1609 23.5446H30.9234C30.7678 23.5446 30.6417 23.6707 30.6417 23.8263V26.7359ZM28.8038 8.85762H37.3093C37.5245 8.85762 37.719 8.77587 37.8589 8.64389C37.9943 8.51634 38.0785 8.34102 38.0785 8.14945C38.0785 7.95787 37.9943 7.78255 37.8589 7.655C37.719 7.52302 37.5245 7.44127 37.3093 7.44127H28.8038V8.85762ZM16.8854 6.10617C16.2383 5.45906 15.8379 4.56473 15.8379 3.57683C15.8379 2.58893 16.2383 1.6946 16.8854 1.04749C17.5325 0.400381 18.4269 0 19.4148 0C20.4027 0 21.297 0.400381 21.9441 1.04749C22.5912 1.6946 22.9916 2.58893 22.9916 3.57683C22.9916 4.56473 22.5912 5.45906 21.9441 6.10617C21.297 6.75328 20.4027 7.15366 19.4148 7.15366C18.4269 7.15366 17.5325 6.75328 16.8854 6.10617ZM16.9677 4.61103H18.3953V5.98601C18.3953 6.14163 18.5214 6.26771 18.677 6.26771H20.2062C20.3618 6.26771 20.4879 6.14163 20.4879 5.98601V4.61103H21.8614C22.017 4.61103 22.1431 4.48495 22.1431 4.32933V2.82483C22.1421 2.6697 22.016 2.54412 21.8614 2.54412H20.4879V1.18883C20.4879 1.03321 20.3618 0.907136 20.2062 0.907136H18.677C18.5214 0.907136 18.3953 1.03321 18.3953 1.18883V2.54264H16.9677C16.812 2.54264 16.686 2.66871 16.686 2.82433V4.32884C16.686 4.48446 16.812 4.61103 16.9677 4.61103ZM10.666 4.84889H15.473C15.6769 5.48073 16.028 6.04659 16.487 6.50508C17.2361 7.25462 18.2717 7.71804 19.4148 7.71804C20.5578 7.71804 21.5935 7.25462 22.3425 6.50508C22.801 6.04659 23.1526 5.48073 23.3565 4.84889H28.2399V35.0193H23.8505V29.1702C23.8505 29.0145 23.7244 28.8885 23.5688 28.8885H20.0363V34.7853C20.0363 35.0045 19.8585 35.1823 19.6393 35.1823C19.4202 35.1823 19.2424 35.0045 19.2424 34.7853V28.8885H15.7099C15.5543 28.8885 15.4282 29.0145 15.4282 29.1702V35.0193H10.667V4.8484L10.666 4.84889ZM20.7937 13.5514C20.7937 13.707 20.9198 13.8331 21.0754 13.8331H25.5387C25.6943 13.8331 25.8204 13.707 25.8204 13.5514V10.6419C25.8204 10.4862 25.6943 10.3602 25.5387 10.3602H21.0754C20.9198 10.3602 20.7937 10.4862 20.7937 10.6419V13.5514ZM20.7937 19.3709C20.7937 19.5266 20.9198 19.6526 21.0754 19.6526H25.5387C25.6943 19.6526 25.8204 19.5266 25.8204 19.3709V16.4614C25.8204 16.3058 25.6943 16.1797 25.5387 16.1797H21.0754C20.9198 16.1797 20.7937 16.3058 20.7937 16.4614V19.3709ZM20.7937 25.1905C20.7937 25.3461 20.9198 25.4722 21.0754 25.4722H25.5387C25.6943 25.4722 25.8204 25.3461 25.8204 25.1905V22.281C25.8204 22.1253 25.6943 21.9993 25.5387 21.9993H21.0754C20.9198 21.9993 20.7937 22.1253 20.7937 22.281V25.1905ZM13.4706 13.5519C13.4706 13.7075 13.5967 13.8336 13.7523 13.8336H18.2156C18.3712 13.8336 18.4973 13.7075 18.4973 13.5519V10.6423C18.4973 10.4867 18.3712 10.3606 18.2156 10.3606H13.7523C13.5967 10.3606 13.4706 10.4867 13.4706 10.6423V13.5519ZM13.4706 19.3714C13.4706 19.5271 13.5967 19.6531 13.7523 19.6531H18.2156C18.3712 19.6531 18.4973 19.5271 18.4973 19.3714V16.4619C18.4973 16.3063 18.3712 16.1802 18.2156 16.1802H13.7523C13.5967 16.1802 13.4706 16.3063 13.4706 16.4619V19.3714ZM13.4706 25.191C13.4706 25.3466 13.5967 25.4727 13.7523 25.4727H18.2156C18.3712 25.4727 18.4973 25.3466 18.4973 25.191V22.2815C18.4973 22.1258 18.3712 21.9998 18.2156 21.9998H13.7523C13.5967 21.9998 13.4706 22.1258 13.4706 22.2815V25.191ZM38.6976 35.792C38.569 35.6634 38.3922 35.5836 38.1977 35.5836H0.708176C0.513649 35.5836 0.336852 35.6634 0.208316 35.792C0.0797808 35.9205 0 36.0973 0 36.2918C0 36.4863 0.0797808 36.6631 0.208316 36.7917C0.336852 36.9202 0.513649 37 0.708176 37H38.1972C38.3917 37 38.5685 36.9202 38.6971 36.7917C38.8256 36.6631 38.9054 36.4863 38.9054 36.2918C38.9054 36.0973 38.8261 35.9205 38.6976 35.792ZM2.20185 35.0198V9.42101H10.1021V35.0188H2.20185V35.0198ZM4.46279 15.0977C4.46279 15.2534 4.58886 15.3794 4.74449 15.3794H7.91503C8.07065 15.3794 8.19672 15.2534 8.19672 15.0977V12.1882C8.19672 12.0326 8.07065 11.9065 7.91503 11.9065H4.74449C4.58886 11.9065 4.46279 12.0326 4.46279 12.1882V15.0977ZM4.46279 20.9173C4.46279 21.0729 4.58886 21.199 4.74449 21.199H7.91503C8.07065 21.199 8.19672 21.0729 8.19672 20.9173V18.0078C8.19672 17.8521 8.07065 17.7261 7.91503 17.7261H4.74449C4.58886 17.7261 4.46279 17.8521 4.46279 18.0078V20.9173ZM4.46279 26.7369C4.46279 26.8925 4.58886 27.0186 4.74449 27.0186H7.91503C8.07065 27.0186 8.19672 26.8925 8.19672 26.7369V23.8273C8.19672 23.6717 8.07065 23.5456 7.91503 23.5456H4.74449C4.58886 23.5456 4.46279 23.6717 4.46279 23.8273V26.7369ZM9.6899 4.2855H15.3346C15.2947 4.05552 15.2741 3.81864 15.2741 3.57733C15.2741 3.33601 15.2947 3.09913 15.3346 2.86915H9.6899C9.49537 2.86915 9.31858 2.94893 9.19004 3.07746C9.06151 3.206 8.98173 3.3828 8.98173 3.57733C8.98173 3.77185 9.06151 3.94865 9.19004 4.07719C9.31858 4.20572 9.49537 4.2855 9.6899 4.2855ZM1.62467 8.85811H10.1021V7.44176H1.62418C1.40995 7.44176 1.21641 7.52351 1.07655 7.6555C0.941609 7.78305 0.857888 7.95787 0.857888 8.14994C0.857888 8.342 0.941609 8.51683 1.07655 8.64438C1.21592 8.77636 1.41044 8.85811 1.62467 8.85811Z" fill="#1351B4"/>
<path d="M43.625 20.625H39V23.7083H43.625V28.3333L51.3333 22.1667L43.625 16V20.625Z" fill="#1351B4"/>
</svg>
