<svg width="24" height="24" viewBox="0 0 24 24" fill="none" xmlns="http://www.w3.org/2000/svg">
<path fill-rule="evenodd" clip-rule="evenodd" d="M11.9037 23.1765C5.55243 23.1765 0.403687 18.0277 0.403687 11.6765C0.403687 5.32533 5.5525 0.176514 11.9037 0.176514C18.2549 0.176514 23.4037 5.32533 23.4037 11.6765C23.4037 18.0277 18.2549 23.1765 11.9037 23.1765ZM9.43926 10.4444H6.15376C5.47306 10.4444 4.92154 10.9962 4.92154 11.6766C4.92154 12.357 5.47304 12.9088 6.15376 12.9088H9.43926C10.12 12.9088 10.6715 13.4603 10.6715 14.141V17.4265C10.6715 18.1072 11.2233 18.6587 11.9037 18.6587C12.5841 18.6587 13.1359 18.1072 13.1359 17.4265V14.141C13.1359 13.4603 13.6874 12.9088 14.3681 12.9088H17.6536C18.3343 12.9088 18.8858 12.357 18.8858 11.6766C18.8858 10.9962 18.3343 10.4444 17.6536 10.4444H14.3681C13.6874 10.4444 13.1359 9.89288 13.1359 9.21216V5.92666C13.1359 5.24596 12.5841 4.69444 11.9037 4.69444C11.2233 4.69444 10.6715 5.24594 10.6715 5.92666V9.21216C10.6715 9.89286 10.12 10.4444 9.43926 10.4444Z" fill="white"/>
</svg>
