<svg width="80" height="28" viewBox="0 0 80 28" fill="none" xmlns="http://www.w3.org/2000/svg">
<path d="M15.8942 22.3363L15.899 22.2189H18.5745L18.5801 22.3363C18.5801 23.0777 17.9786 23.6793 17.2371 23.6793C16.4957 23.6793 15.8942 23.0777 15.8942 22.3363ZM14.5094 22.3363L14.5118 22.2189H14.8166L14.8142 22.3363C14.8142 23.6744 15.899 24.7592 17.2371 24.7592C18.5761 24.7592 19.6609 23.6744 19.6609 22.3363L19.6577 22.2189H19.9624L19.9648 22.3363C19.9648 23.8425 18.7433 25.0648 17.2371 25.0648C15.731 25.064 14.5094 23.8425 14.5094 22.3363ZM11.5735 22.3363L11.5743 22.2189H13.6007L13.5991 22.3363C13.5991 24.3451 15.2275 25.9743 17.2363 25.9743C19.2459 25.9743 20.8735 24.3451 20.8735 22.3363L20.8719 22.2189H22.8992L22.9 22.3363C22.9 25.4645 20.3645 28 17.2363 28C14.1082 28 11.5735 25.4637 11.5735 22.3363ZM62.8675 22.3411C62.8675 22.9531 62.9479 23.5458 63.0991 24.1095H61.5825H23.7034C23.8626 23.5353 23.9478 22.9314 23.9478 22.3066L23.943 22.0339C23.9165 21.7091 23.6913 21.4976 23.4131 21.4976H21.976H12.4403H11.0033C10.7315 21.4976 10.5071 21.7002 10.4734 21.9624C10.4677 22.0774 10.4645 22.1916 10.4645 22.3066C10.4645 22.7191 10.5015 23.122 10.5723 23.5144C9.69976 23.4018 8.79669 23.2667 7.87512 23.1075H0.533961C0.239639 23.1075 0 22.8687 0 22.5735V21.6045C0 21.3102 0.238835 21.0706 0.533961 21.0706H2.23958C1.69838 20.1747 1.63485 18.8374 1.90425 17.0128C2.38111 13.7937 7.4835 3.06385 7.4835 3.06385C7.4835 3.06385 7.79471 2.46716 8.60932 2.08277C9.09503 1.85198 9.80511 1.75387 10.6149 1.75387H10.9325C11.5509 0.686751 13.1946 0 14.9598 0H40.5336C42.5545 0 44.4169 0.899051 44.7627 2.242C46.9387 2.51139 49.3794 3.2303 51.2651 5.28332C54.4528 8.75568 56.5589 11.5686 56.5589 11.5686C56.5589 11.5686 67.2831 11.6386 78.4955 12.7234C80.9965 12.9655 79.0866 16.9798 78.6387 18.1177C78.6387 18.1177 77.8691 19.6995 77.6399 21.0698H78.8606C79.1549 21.0698 79.3946 21.3094 79.3946 21.6037V22.5727C79.3946 22.8679 79.1549 23.1067 78.8606 23.1067H76.4594C76.4723 22.8558 76.4859 22.5993 76.4859 22.3403C76.4859 18.5793 73.4366 15.5315 69.6763 15.5315C65.9161 15.5323 62.8675 18.5801 62.8675 22.3411ZM12.1179 1.75789C15.115 1.77317 21.3062 1.81338 27.1983 1.86324C27.3784 1.51986 27.4998 1.04541 27.5336 0.50421H14.9582C13.3876 0.503405 12.5014 1.04702 12.1179 1.75789ZM28.3948 1.87289C34.4035 1.92516 39.8428 1.98788 40.9027 2.03774C41.604 2.07232 42.5118 2.06508 43.5251 2.12861C43.2702 1.24323 42.3679 0.503403 40.5336 0.503403H28.0483C28.0828 1.06068 28.2107 1.5464 28.3948 1.87289ZM51.5811 6.82972C51.3729 6.60375 51.1686 6.39467 50.9676 6.20006V11.5332H55.1983L51.5811 6.82972ZM50.3307 5.63313C48.7529 4.34085 47.2306 3.95887 44.9412 3.80367C44.4209 3.76829 43.9272 3.73934 43.4608 3.71682L41.8372 3.68224C41.5428 3.68224 41.304 3.92027 41.304 4.2154V11.0001C41.304 11.2944 41.5436 11.534 41.8372 11.534H50.3307V5.63313ZM5.99098 18.798C5.70309 18.9725 5.96203 19.4035 6.25073 19.2315C6.25073 19.2315 8.5659 17.8459 14.4081 16.4579C20.2793 15.0635 29.7104 13.6627 43.9264 13.6627C72.355 13.6627 78.1288 14.7258 78.1288 14.7258C78.4601 14.7869 78.5518 14.2899 78.2205 14.2304C78.2205 14.2304 72.4306 13.1593 43.9264 13.1593C15.4286 13.1601 6.04004 18.7691 5.99098 18.798ZM32.2355 9.61452H24.5461C24.4537 9.39257 24.2333 9.23496 23.9768 9.23496C23.7203 9.23496 23.4999 9.39177 23.4066 9.61452H15.7173C15.624 9.39257 15.4037 9.23496 15.1471 9.23496C14.8906 9.23496 14.6703 9.39177 14.577 9.61452H13.5444C13.2284 9.61452 13.2284 10.0906 13.5444 10.0906H14.577C14.6703 10.3125 14.8906 10.4709 15.1471 10.4709C15.4045 10.4709 15.6248 10.3133 15.7173 10.0906H23.4066C23.4999 10.3125 23.7203 10.4709 23.9768 10.4709C24.2333 10.4709 24.4537 10.3133 24.5461 10.0906H32.2355C32.3288 10.3125 32.5491 10.4709 32.8057 10.4709C33.063 10.4709 33.2833 10.3133 33.3758 10.0906H34.3319C34.6488 10.0906 34.6488 9.61452 34.3319 9.61452H33.3758C33.2825 9.39257 33.0622 9.23496 32.8057 9.23496C32.5491 9.23576 32.3288 9.39257 32.2355 9.61452ZM11.7327 8.06089H36.3641V11.5332H39.2518C39.5461 11.5332 39.7857 11.2936 39.7857 10.9993V4.2146C39.7857 3.91947 39.5469 3.68144 39.2518 3.68144H9.87828C9.58316 3.68144 9.23576 3.91947 9.10227 4.2146L6.01832 10.9993C5.88403 11.2936 6.01511 11.5332 6.30943 11.5332H11.7327V8.06089ZM12.2787 6.16709C12.2843 6.13654 12.3044 6.10598 12.335 6.07703L12.4854 5.82131C12.8119 5.26563 13.8597 4.81289 15.4575 4.81289H32.6239C34.2218 4.81289 35.2696 5.26483 35.5961 5.82131L35.7457 6.07703C35.777 6.10598 35.7963 6.13654 35.8019 6.16709C36.3126 6.21695 36.7123 6.64798 36.7123 7.17068V7.69419H11.3684V7.17068C11.3684 6.64798 11.7681 6.21695 12.2787 6.16709ZM65.9893 22.3363C65.9893 24.3451 67.6169 25.9743 69.6265 25.9743C71.6361 25.9743 73.2637 24.3451 73.2637 22.3363C73.2637 20.3275 71.6361 18.6991 69.6265 18.6991C67.6169 18.6991 65.9893 20.3275 65.9893 22.3363ZM63.9636 22.3363C63.9636 19.2081 66.4991 16.6726 69.6273 16.6726C72.7554 16.6726 75.291 19.2081 75.291 22.3363C75.291 25.4645 72.7554 28 69.6273 28C66.4991 28 63.9636 25.4637 63.9636 22.3363ZM67.2035 22.3363C67.2035 23.6744 68.2892 24.7592 69.6273 24.7592C70.9654 24.7592 72.051 23.6744 72.051 22.3363C72.051 20.9982 70.9654 19.9126 69.6273 19.9126C68.2892 19.9126 67.2035 20.9982 67.2035 22.3363ZM66.8996 22.3363C66.8996 20.8301 68.1219 19.6078 69.6273 19.6078C71.1335 19.6078 72.3558 20.8301 72.3558 22.3363C72.3558 23.8425 71.1335 25.0648 69.6273 25.0648C68.1219 25.064 66.8996 23.8425 66.8996 22.3363ZM68.2843 22.3363C68.2843 21.5941 68.8858 20.9934 69.6273 20.9934C70.3695 20.9934 70.9694 21.5941 70.9694 22.3363C70.9694 23.0777 70.3695 23.6793 69.6273 23.6793C68.8858 23.6793 68.2843 23.0777 68.2843 22.3363Z" fill="#1351B4"/>
</svg>
