<svg width="35" height="40" viewBox="0 0 35 40" fill="none" xmlns="http://www.w3.org/2000/svg">
<path fill-rule="evenodd" clip-rule="evenodd" d="M17.7802 6.81378L28.3815 13.0596C28.5722 13.1716 28.6784 13.372 28.6789 13.5782H28.6811V26.0769L34.0518 29.1778C34.3393 29.3431 34.4389 29.7102 34.2735 29.9982C34.1082 30.2858 33.7411 30.3853 33.4531 30.2196L28.0811 27.1182L18.6224 32.6898C18.6353 32.7391 18.6424 32.7907 18.6424 32.8436V39.396C18.6424 39.7293 18.3722 39.9996 18.0389 39.9996C17.7055 39.9996 17.4353 39.7293 17.4353 39.396V33.3867C17.2673 33.4671 17.0771 33.4622 16.918 33.3867V39.3964C16.918 39.7298 16.6478 40 16.3144 40C15.9811 40 15.7109 39.7298 15.7109 39.3964V32.844C15.7109 32.7907 15.718 32.7391 15.7309 32.6898L5.97177 26.9404C5.78111 26.8284 5.67488 26.628 5.67444 26.4218H5.67222V13.9236L0.301551 10.8227C0.0139952 10.6573 -0.0855604 10.2902 0.0802174 10.0022C0.245995 9.71422 0.612662 9.61511 0.900662 9.78089L6.27266 12.8822L16.5731 6.81378V0.603556C16.5731 0.270222 16.8433 0 17.1767 0C17.51 0 17.7802 0.270222 17.7802 0.603556V6.81378ZM23.8193 18.5258C22.4678 17.1742 20.2762 17.1742 18.9247 18.5258C18.4029 19.0476 18.0829 19.6942 17.9638 20.3698H24.7802C24.6611 19.6947 24.3411 19.0476 23.8193 18.5258ZM24.7802 21.5769H17.9638C18.0824 22.2524 18.4029 22.8991 18.9247 23.4209C20.2762 24.7724 22.4678 24.7724 23.8193 23.4209C24.3411 22.8991 24.6615 22.252 24.7802 21.5769ZM17.7833 16.1716C16.9753 15.3636 15.6531 15.3636 14.8451 16.1716L12.9122 18.1044L15.8504 21.0427L17.7833 19.1098C18.5913 18.3018 18.5913 16.9796 17.7833 16.1716ZM14.9971 21.8956L12.0589 18.9573L10.126 20.8902C9.318 21.6982 9.318 23.0204 10.126 23.8284C10.934 24.6364 12.2562 24.6364 13.0642 23.8284L14.9971 21.8956ZM16.8727 10.2609L25.694 15.4578C25.9802 15.6258 26.3487 15.5298 26.5167 15.2431C26.6847 14.9569 26.5887 14.5884 26.302 14.4204L17.4807 9.22356C17.1944 9.05556 16.826 9.15156 16.658 9.43822C16.49 9.72444 16.586 10.0929 16.8727 10.2609ZM22.3229 10.8858L17.1767 7.85378L6.87933 13.9204V26.08L17.1767 32.1462L27.474 26.08V13.9204L22.3229 10.8858Z" fill="#1351B4"/>
</svg>
