<svg width="34" height="39" viewBox="0 0 34 39" fill="none" xmlns="http://www.w3.org/2000/svg">
<path d="M26.2363 15.6329H24.1443C27.4046 14.5386 29.7278 11.7901 29.7278 8.57223C29.7278 4.39721 25.8243 1 21.026 1C16.2282 1 12.3242 4.39681 12.3242 8.57223C12.3242 11.7902 14.6474 14.5386 17.9078 15.6329H15.8153C12.6037 15.6329 9.91401 17.5933 9.22846 20.21H1.64367C1.28848 20.21 1 20.4611 1 20.7701V37.4399C1 37.749 1.28848 38 1.64367 38H19.1303C19.4855 38 19.774 37.749 19.774 37.4399V34.3745C20.8216 34.9492 22.058 35.2865 23.3877 35.2865C27.1403 35.2865 30.1824 32.6393 30.1824 29.3738C30.1824 29.2012 30.1693 29.0318 30.1526 28.8631C30.1711 29.0314 30.1824 29.2012 30.1824 29.3738C30.1824 29.4205 30.1756 29.4656 30.1743 29.5123H32.3559C32.7111 29.5123 32.9995 29.2612 32.9995 28.9522L33 21.5184C33 18.2734 29.966 15.6332 26.2369 15.6332L26.2363 15.6329ZM13.6122 8.57223C13.6122 5.01496 16.9383 2.12062 21.0263 2.12062C25.1142 2.12062 28.4403 5.01496 28.4403 8.57223C28.4403 12.1295 25.1142 15.0238 21.0263 15.0238C16.9383 15.0234 13.6122 12.1291 13.6122 8.57223ZM2.28745 36.88V21.3308H18.4863V25.2863C17.3161 26.3484 16.5937 27.7864 16.5937 29.3738C16.5937 30.9613 17.3167 32.3996 18.4863 33.4618V36.8798L2.28745 36.88ZM26.1842 31.7612C25.9953 31.9286 25.7461 32.0126 25.4964 32.0126C25.253 32.0126 25.0091 31.933 24.822 31.7729L23.4004 30.5593L22.0062 31.796C21.8173 31.9635 21.5681 32.0474 21.3184 32.0474C21.075 32.0474 20.8311 31.9678 20.644 31.8078C20.264 31.4838 20.2582 30.9527 20.6305 30.6224L22.0251 29.3853L20.604 28.1721C20.224 27.8481 20.2181 27.317 20.5904 26.9867C20.9632 26.6564 21.574 26.6509 21.9527 26.9749L23.3743 28.1885L24.7685 26.9518C25.1413 26.6216 25.752 26.6157 26.1307 26.9401C26.5107 27.2641 26.5165 27.7952 26.1442 28.1255L24.7496 29.3626L26.1708 30.5758C26.5508 30.9002 26.5566 31.4312 26.1843 31.7612L26.1842 31.7612ZM31.7113 28.3918H30.0805V28.3922C29.5418 25.5951 26.7544 23.4616 23.3872 23.4616C22.0575 23.4616 20.8211 23.799 19.7736 24.3736V20.7708C19.7736 20.4617 19.4851 20.2107 19.1299 20.2107L10.5615 20.2103C11.2169 18.2185 13.3183 16.7535 15.815 16.7535H26.236C29.2547 16.7535 31.7113 18.8912 31.7113 21.518L31.7113 28.3918Z" fill="#0459A1" stroke="#0459A1" stroke-width="0.4375"/>
</svg>
