<svg width="100" height="100" viewBox="0 0 100 100" fill="none" xmlns="http://www.w3.org/2000/svg">
<path d="M50 0C22.4162 0 0 22.4169 0 50C0 77.5838 22.4169 100 50 100C77.5838 100 100 77.5831 100 50C100 22.4162 77.5831 0 50 0ZM50 5.26278C74.7395 5.26278 94.7354 25.2601 94.7354 49.9982C94.7354 74.7377 74.7381 94.7449 50 94.7449C25.2619 94.7449 5.26458 74.737 5.26458 49.9982C5.26458 25.2594 25.2619 5.26278 50 5.26278Z" fill="#C9F9CB"/>
<path d="M70.1991 32.061L43.2874 60.5042L29.5952 47.5521L25.9766 51.376L43.4927 67.9468L74.0223 35.6804L70.1991 32.061Z" fill="#79DE79"/>
</svg>
