<svg width="46" height="37" viewBox="0 0 46 37" fill="none" xmlns="http://www.w3.org/2000/svg">
<path d="M39.2202 25.1598H25.9002C22.2276 25.1598 19.2402 22.1725 19.2402 18.4998C19.2402 14.828 22.2276 11.8398 25.9002 11.8398H39.2202C42.8929 11.8398 45.8802 14.828 45.8802 18.4998C45.8802 22.1725 42.8929 25.1598 39.2202 25.1598ZM25.9002 13.3198C23.0446 13.3198 20.7202 15.6434 20.7202 18.4998C20.7202 21.3555 23.0446 23.6798 25.9002 23.6798H39.2202C42.0759 23.6798 44.4002 21.3555 44.4002 18.4998C44.4002 15.6434 42.0759 13.3198 39.2202 13.3198H25.9002Z" fill="#1351B4"/>
<path d="M33.2998 12.5801H31.8198V24.4201H33.2998V12.5801Z" fill="#1351B4"/>
<path d="M39.2202 22.2H37.7402V20.72H39.2202C40.4442 20.72 41.4402 19.724 41.4402 18.5H42.9202C42.9202 20.5402 41.2604 22.2 39.2202 22.2Z" fill="#1351B4"/>
<path d="M19.98 37H3.7C1.65982 37 0 35.3402 0 33.3V3.7C0 1.65982 1.65982 0 3.7 0H19.98C22.0202 0 23.68 1.65982 23.68 3.7V13.3785H22.2V3.7C22.2 2.47604 21.204 1.48 19.98 1.48H3.7C2.47604 1.48 1.48 2.47604 1.48 3.7V33.3C1.48 34.524 2.47604 35.52 3.7 35.52H19.98C21.204 35.52 22.2 34.524 22.2 33.3V23.6215H23.68V33.3C23.68 35.3402 22.0202 37 19.98 37Z" fill="#1351B4"/>
<path d="M19.9802 17.7598H0.740234V19.2398H19.9802V17.7598Z" fill="#1351B4"/>
<path d="M15.1443 16.28C14.2481 16.28 13.4045 15.9307 12.7711 15.2965L6.1629 8.68904C5.52946 8.0556 5.18018 7.21348 5.18018 6.3166C5.18018 4.46586 6.68534 2.95996 8.53608 2.95996C9.43222 2.95996 10.2758 3.30924 10.9093 3.94342L17.5175 10.5509C18.1509 11.1843 18.5002 12.0264 18.5002 12.9233C18.5002 14.7741 16.995 16.28 15.1443 16.28ZM8.53608 4.43996C7.5023 4.43996 6.66018 5.28208 6.66018 6.3166C6.66018 6.81832 6.85554 7.28896 7.20926 7.64342L13.8175 14.2509C14.1719 14.6046 14.6433 14.8 15.1443 14.8C16.1781 14.8 17.0202 13.9578 17.0202 12.9233C17.0202 12.4216 16.8248 11.951 16.4711 11.5965L9.8629 4.98904C9.50844 4.63532 9.03706 4.43996 8.53608 4.43996Z" fill="#1351B4"/>
<path d="M13.1662 7.24734L9.46631 10.9473L10.5128 11.9938L14.2127 8.29384L13.1662 7.24734Z" fill="#1351B4"/>
<path d="M15.1438 34.0407C14.2469 34.0407 13.404 33.6914 12.7706 33.058L6.16241 26.4498C5.52897 25.8163 5.17969 24.9735 5.17969 24.0766C5.17969 22.2259 6.68485 20.7207 8.53559 20.7207C9.43247 20.7207 10.2753 21.07 10.9088 21.7034L17.517 28.3116C18.1504 28.9451 18.4997 29.7879 18.4997 30.6848C18.4997 32.5355 16.9945 34.0407 15.1438 34.0407ZM8.53559 22.2007C7.50181 22.2007 6.65969 23.0428 6.65969 24.0766C6.65969 24.5783 6.85505 25.049 7.20877 25.4034L13.817 32.0116C14.1707 32.3653 14.6421 32.5607 15.1438 32.5607C16.1776 32.5607 17.0197 31.7186 17.0197 30.6848C17.0197 30.1831 16.8243 29.7124 16.4706 29.358L9.86241 22.7498C9.50869 22.3961 9.03731 22.2007 8.53559 22.2007Z" fill="#1351B4"/>
<path d="M13.1662 25.0071L9.46631 28.707L10.5128 29.7535L14.2127 26.0536L13.1662 25.0071Z" fill="#1351B4"/>
</svg>
