<svg width="33" height="39" viewBox="0 0 33 39" fill="none" xmlns="http://www.w3.org/2000/svg">
<path d="M30.0404 1.00002H14.4177C13.8994 1.00108 13.4026 1.20057 13.0362 1.55482C12.6697 1.90908 12.4633 2.38924 12.4622 2.89023V8.0461H4.97329C4.65622 8.04717 4.35252 8.16967 4.12871 8.38677C3.90489 8.60387 3.77922 8.89787 3.77922 9.20436V11.7179C3.78032 12.0237 3.90648 12.3167 4.13017 12.5329C4.35386 12.7492 4.65694 12.8711 4.97329 12.8722H5.19796V14.2155L1.62408 17.7103C1.4297 17.8898 1.27437 18.1049 1.1672 18.3432C1.06003 18.5815 1.00318 18.838 1 19.0978V35.3738C1.0011 36.07 1.28769 36.7374 1.79695 37.2296C2.30622 37.7219 2.99661 37.999 3.71682 38H15.7573C16.3666 37.9993 16.9579 37.8006 17.4363 37.4359C17.9147 37.0712 18.2524 36.5617 18.3951 35.9891H30.0446C30.5628 35.9881 31.0596 35.7886 31.4261 35.4343C31.7925 35.0801 31.9989 34.5999 32 34.0989V2.89023C31.9989 2.38855 31.792 1.90777 31.4246 1.5534C31.0572 1.19903 30.5594 1.00001 30.0404 1.00002ZM4.93585 12.0678C4.88831 12.0678 4.84125 12.0588 4.79733 12.0412C4.75341 12.0236 4.71351 11.9979 4.6799 11.9654C4.64629 11.9329 4.61963 11.8943 4.60144 11.8518C4.58325 11.8094 4.57388 11.7639 4.57388 11.7179V9.20436C4.57333 9.15808 4.58229 9.11215 4.60023 9.06923C4.61818 9.02631 4.64475 8.98727 4.67842 8.95435C4.71208 8.92143 4.75217 8.8953 4.79636 8.87746C4.84055 8.85963 4.88796 8.85045 4.93585 8.85045H14.5383C14.5862 8.85045 14.6336 8.85963 14.6778 8.87746C14.722 8.8953 14.7621 8.92143 14.7957 8.95435C14.8294 8.98727 14.856 9.02631 14.8739 9.06923C14.8919 9.11215 14.9008 9.15808 14.9003 9.20436V11.7179C14.9003 11.8107 14.8621 11.8997 14.7943 11.9654C14.7264 12.031 14.6343 12.0678 14.5383 12.0678H4.93585ZM17.6421 35.3939C17.6366 35.8736 17.4356 36.3319 17.0827 36.6692C16.7299 37.0065 16.2536 37.1957 15.7573 37.1957H3.71682C3.21696 37.1957 2.73758 37.0037 2.38412 36.6621C2.03067 36.3204 1.8321 35.857 1.8321 35.3738V33.2584H17.6421V35.3939ZM17.6421 32.4741H1.8321V20.3446H17.6421V32.4741ZM17.6421 19.5603H1.8321V19.0978C1.8328 18.7962 1.95694 18.507 2.17743 18.2935L5.87196 14.6739C5.94883 14.599 5.99216 14.4979 5.99262 14.3924V12.8722H13.4815V14.3803C13.4779 14.4335 13.4852 14.4868 13.5031 14.5372C13.5209 14.5876 13.549 14.6341 13.5856 14.6739L17.2801 18.2935C17.5006 18.507 17.6247 18.7962 17.6254 19.0978L17.6421 19.5603ZM31.1637 34.119C31.1637 34.2616 31.1347 34.4028 31.0782 34.5346C31.0218 34.6663 30.939 34.786 30.8347 34.8869C30.7304 34.9877 30.6066 35.0677 30.4703 35.1222C30.334 35.1768 30.1879 35.2049 30.0404 35.2049H18.4742V32.631C18.9656 32.5167 19.4029 32.2459 19.7157 31.8622C20.0285 31.4785 20.1987 31.0041 20.1987 30.5156C20.1987 30.027 20.0285 29.5527 19.7157 29.1689C19.4029 28.7852 18.9656 28.5144 18.4742 28.4001V24.6157C18.9636 24.4999 19.3988 24.2287 19.7099 23.8455C20.021 23.4624 20.1901 22.9893 20.1901 22.5022C20.1901 22.0151 20.021 21.5421 19.7099 21.1589C19.3988 20.7758 18.9636 20.5046 18.4742 20.3888V19.0978C18.4754 18.5811 18.2644 18.0849 17.8875 17.7184L14.3136 14.2235V12.8722H14.5383C14.8547 12.8711 15.1577 12.7492 15.3814 12.5329C15.6051 12.3167 15.7313 12.0237 15.7324 11.7179V9.20436C15.7324 8.89787 15.6067 8.60387 15.3829 8.38677C15.1591 8.16967 14.8554 8.04717 14.5383 8.0461H13.2902V2.89023C13.2902 2.7473 13.3194 2.60576 13.3761 2.47376C13.4328 2.34175 13.5159 2.22187 13.6207 2.12098C13.7254 2.0201 13.8497 1.9402 13.9865 1.88586C14.1233 1.83153 14.2698 1.80383 14.4177 1.80436H30.0612C30.3591 1.80436 30.6449 1.91877 30.8555 2.12241C31.0662 2.32605 31.1845 2.60224 31.1845 2.89023L31.1637 34.119ZM18.4742 31.8106V29.2447C18.7355 29.3481 18.9591 29.5244 19.1165 29.7511C19.2739 29.9778 19.3579 30.2446 19.3579 30.5176C19.3579 30.7906 19.2739 31.0574 19.1165 31.2841C18.9591 31.5107 18.7355 31.687 18.4742 31.7904V31.8106ZM18.4742 23.7952V21.2294C18.7355 21.3328 18.9591 21.5091 19.1165 21.7358C19.2739 21.9624 19.3579 22.2292 19.3579 22.5022C19.3579 22.7752 19.2739 23.0421 19.1165 23.2687C18.9591 23.4954 18.7355 23.6717 18.4742 23.7751V23.7952Z" fill="#1351B4" stroke="#1351B4"/>
<path d="M17.9376 4.29372C17.4916 4.29372 17.0556 4.42156 16.6848 4.66108C16.314 4.90059 16.0249 5.24103 15.8543 5.63933C15.6836 6.03764 15.6389 6.47592 15.7259 6.89875C15.813 7.32159 16.0277 7.70999 16.3431 8.01484C16.6585 8.31969 17.0603 8.52729 17.4977 8.6114C17.9351 8.69551 18.3885 8.65234 18.8006 8.48736C19.2126 8.32237 19.5648 8.04299 19.8126 7.68452C20.0604 7.32606 20.1926 6.90462 20.1926 6.4735C20.1926 5.89539 19.955 5.34095 19.5321 4.93216C19.1092 4.52337 18.5357 4.29372 17.9376 4.29372ZM17.9376 7.84893C17.6562 7.84893 17.3811 7.76827 17.1471 7.61713C16.9131 7.466 16.7307 7.25118 16.623 6.99986C16.5153 6.74853 16.4872 6.47197 16.5421 6.20517C16.597 5.93836 16.7325 5.69328 16.9315 5.50092C17.1305 5.30856 17.384 5.17756 17.66 5.12449C17.936 5.07142 18.2221 5.09866 18.4821 5.20276C18.7421 5.30687 18.9644 5.48316 19.1207 5.70935C19.2771 5.93554 19.3605 6.20146 19.3605 6.4735C19.3572 6.83619 19.2059 7.18295 18.9394 7.43829C18.6729 7.69363 18.3128 7.83688 17.9376 7.83687V7.84893Z" fill="#1351B4" stroke="#1351B4"/>
<path d="M26.4835 4.29372C26.0375 4.29372 25.6015 4.42156 25.2307 4.66108C24.8599 4.90059 24.5708 5.24103 24.4002 5.63933C24.2295 6.03764 24.1848 6.47592 24.2718 6.89875C24.3589 7.32159 24.5736 7.70999 24.889 8.01484C25.2044 8.31969 25.6062 8.52729 26.0436 8.6114C26.481 8.69551 26.9344 8.65234 27.3465 8.48736C27.7585 8.32237 28.1107 8.04299 28.3585 7.68452C28.6063 7.32606 28.7385 6.90462 28.7385 6.4735C28.7385 5.89539 28.5009 5.34095 28.078 4.93216C27.6551 4.52337 27.0816 4.29372 26.4835 4.29372ZM26.4835 7.83687C26.2021 7.83687 25.927 7.7562 25.693 7.60507C25.459 7.45393 25.2766 7.23912 25.1689 6.98779C25.0612 6.73646 25.0331 6.45991 25.088 6.1931C25.1429 5.92629 25.2784 5.68121 25.4774 5.48885C25.6764 5.2965 25.9299 5.1655 26.2059 5.11243C26.4819 5.05936 26.768 5.08659 27.028 5.1907C27.288 5.2948 27.5103 5.47109 27.6666 5.69728C27.823 5.92347 27.9064 6.1894 27.9064 6.46143C27.9064 6.82622 27.7565 7.17607 27.4897 7.43401C27.2228 7.69196 26.8609 7.83687 26.4835 7.83687Z" fill="#1351B4" stroke="#1351B4"/>
<path d="M17.9376 12.3091C17.4916 12.3091 17.0556 12.4369 16.6848 12.6765C16.314 12.916 16.0249 13.2564 15.8543 13.6547C15.6836 14.053 15.6389 14.4913 15.7259 14.9141C15.813 15.337 16.0277 15.7254 16.3431 16.0302C16.6585 16.3351 17.0603 16.5427 17.4977 16.6268C17.9351 16.7109 18.3885 16.6677 18.8006 16.5027C19.2126 16.3378 19.5648 16.0584 19.8126 15.6999C20.0604 15.3414 20.1926 14.92 20.1926 14.4889C20.1926 13.9108 19.955 13.3563 19.5321 12.9475C19.1092 12.5388 18.5357 12.3091 17.9376 12.3091ZM17.9376 15.8643C17.6562 15.8643 17.3811 15.7836 17.1471 15.6325C16.9131 15.4814 16.7307 15.2666 16.623 15.0152C16.5153 14.7639 16.4872 14.4874 16.5421 14.2205C16.597 13.9537 16.7325 13.7087 16.9315 13.5163C17.1305 13.3239 17.384 13.1929 17.66 13.1399C17.936 13.0868 18.2221 13.114 18.4821 13.2181C18.7421 13.3222 18.9644 13.4985 19.1207 13.7247C19.2771 13.9509 19.3605 14.2168 19.3605 14.4889C19.3627 14.6709 19.3275 14.8514 19.257 15.0202C19.1865 15.1889 19.082 15.3424 18.9497 15.4719C18.8173 15.6013 18.6597 15.7041 18.486 15.7742C18.3123 15.8443 18.1259 15.8804 17.9376 15.8804V15.8643Z" fill="#1351B4" stroke="#1351B4"/>
<path d="M26.4835 12.3091C26.0375 12.3091 25.6015 12.4369 25.2307 12.6765C24.8599 12.916 24.5708 13.2564 24.4002 13.6547C24.2295 14.053 24.1848 14.4913 24.2718 14.9141C24.3589 15.337 24.5736 15.7254 24.889 16.0302C25.2044 16.3351 25.6062 16.5427 26.0436 16.6268C26.481 16.7109 26.9344 16.6677 27.3465 16.5027C27.7585 16.3378 28.1107 16.0584 28.3585 15.6999C28.6063 15.3414 28.7385 14.92 28.7385 14.4889C28.7385 13.9108 28.5009 13.3563 28.078 12.9475C27.6551 12.5388 27.0816 12.3091 26.4835 12.3091ZM26.4835 15.8804C26.2021 15.8804 25.927 15.7997 25.693 15.6486C25.459 15.4975 25.2766 15.2827 25.1689 15.0313C25.0612 14.78 25.0331 14.5034 25.088 14.2366C25.1429 13.9698 25.2784 13.7247 25.4774 13.5324C25.6764 13.34 25.9299 13.209 26.2059 13.156C26.4819 13.1029 26.768 13.1301 27.028 13.2342C27.288 13.3383 27.5103 13.5146 27.6666 13.7408C27.823 13.967 27.9064 14.2329 27.9064 14.505C27.9064 14.8698 27.7565 15.2196 27.4897 15.4775C27.2228 15.7355 26.8609 15.8804 26.4835 15.8804Z" fill="#1351B4" stroke="#1351B4"/>
<path d="M26.4835 28.3479C26.0375 28.3479 25.6015 28.4757 25.2307 28.7152C24.8599 28.9547 24.5708 29.2952 24.4002 29.6935C24.2295 30.0918 24.1848 30.5301 24.2718 30.9529C24.3589 31.3757 24.5736 31.7641 24.889 32.069C25.2044 32.3738 25.6062 32.5814 26.0436 32.6655C26.481 32.7496 26.9344 32.7065 27.3465 32.5415C27.7585 32.3765 28.1107 32.0971 28.3585 31.7387C28.6063 31.3802 28.7385 30.9588 28.7385 30.5276C28.7385 29.9495 28.5009 29.3951 28.078 28.9863C27.6551 28.5775 27.0816 28.3479 26.4835 28.3479ZM26.4835 31.9031C26.2021 31.9031 25.927 31.8224 25.693 31.6713C25.459 31.5201 25.2766 31.3053 25.1689 31.054C25.0612 30.8027 25.0331 30.5261 25.088 30.2593C25.1429 29.9925 25.2784 29.7474 25.4774 29.5551C25.6764 29.3627 25.9299 29.2317 26.2059 29.1786C26.4819 29.1256 26.768 29.1528 27.028 29.2569C27.288 29.361 27.5103 29.5373 27.6666 29.7635C27.823 29.9897 27.9064 30.2556 27.9064 30.5276C27.9031 30.8903 27.7518 31.2371 27.4853 31.4924C27.2188 31.7478 26.8587 31.891 26.4835 31.891V31.9031Z" fill="#1351B4" stroke="#1351B4"/>
<path d="M22.2188 4.29372C22.1084 4.29372 22.0026 4.33609 21.9246 4.41151C21.8466 4.48693 21.8027 4.58923 21.8027 4.69589V32.2931C21.8027 32.3997 21.8466 32.502 21.9246 32.5774C22.0026 32.6529 22.1084 32.6952 22.2188 32.6952C22.3291 32.6952 22.435 32.6529 22.513 32.5774C22.591 32.502 22.6348 32.3997 22.6348 32.2931V4.69589C22.6348 4.58923 22.591 4.48693 22.513 4.41151C22.435 4.33609 22.3291 4.29372 22.2188 4.29372Z" fill="#1351B4" stroke="#1351B4"/>
<path d="M4.9942 28.1748H7.90656V30.99C7.90656 31.0967 7.95039 31.199 8.02842 31.2744C8.10644 31.3498 8.21227 31.3922 8.32261 31.3922H11.1684C11.2787 31.3922 11.3846 31.3498 11.4626 31.2744C11.5406 31.199 11.5845 31.0967 11.5845 30.99V28.1748H14.4968C14.6072 28.1748 14.713 28.1325 14.791 28.057C14.869 27.9816 14.9129 27.8793 14.9129 27.7727V25.0218C14.9129 24.9151 14.869 24.8128 14.791 24.7374C14.713 24.662 14.6072 24.6196 14.4968 24.6196H11.5845V21.8044C11.5845 21.6977 11.5406 21.5954 11.4626 21.52C11.3846 21.4446 11.2787 21.4022 11.1684 21.4022H8.31429C8.20394 21.4022 8.09812 21.4446 8.02009 21.52C7.94207 21.5954 7.89824 21.6977 7.89824 21.8044V24.6196H4.98588C4.87553 24.6196 4.76971 24.662 4.69168 24.7374C4.61366 24.8128 4.56982 24.9151 4.56982 25.0218V27.7727C4.56981 27.8262 4.58084 27.8791 4.60227 27.9284C4.6237 27.9778 4.65509 28.0225 4.69461 28.0599C4.73413 28.0974 4.78098 28.1268 4.83242 28.1466C4.88387 28.1663 4.93886 28.1759 4.9942 28.1748ZM5.41025 25.424H8.32261C8.43295 25.424 8.53878 25.3816 8.6168 25.3062C8.69483 25.2307 8.73866 25.1284 8.73866 25.0218V22.2066H10.7523V25.0218C10.7523 25.1284 10.7962 25.2307 10.8742 25.3062C10.9522 25.3816 11.0581 25.424 11.1684 25.424H14.0808V27.3705H11.1684C11.0581 27.3705 10.9522 27.4129 10.8742 27.4883C10.7962 27.5637 10.7523 27.666 10.7523 27.7727V30.5879H8.73034V27.7727C8.73034 27.666 8.68651 27.5637 8.60848 27.4883C8.53046 27.4129 8.42463 27.3705 8.31429 27.3705H5.40193L5.41025 25.424Z" fill="#1351B4" stroke="#1351B4"/>
</svg>
