<svg width="21" height="16" viewBox="0 0 21 16" fill="none" xmlns="http://www.w3.org/2000/svg">
<path d="M20.9303 3.99635C20.6872 2.6736 19.8252 1.48902 18.5654 0.758584C16.2889 -0.564161 13.1284 -0.0508924 11.3602 1.92335L11.2497 2.06162L11.0066 1.78523C10.0783 0.73888 8.66383 0.0873788 7.18302 0.00847947C5.68019 -0.0704305 4.19923 0.403294 3.11633 1.3509C1.3924 2.83158 1.08298 5.24016 2.23234 7.13544L0.795658 7.13558C0.353665 7.13558 0 7.45149 0 7.8463C0 8.24112 0.353661 8.55703 0.795658 8.55703H6.51998C6.80734 8.55703 7.07252 8.41877 7.20509 8.20174L7.97872 6.95793L10.2331 10.5313C10.3657 10.7485 10.6309 10.8866 10.9182 10.8866C11.2056 10.8866 11.4708 10.7483 11.6033 10.5313L12.841 8.55707H13.5483C13.9903 8.55707 14.344 8.24116 14.344 7.84634C14.344 7.45152 13.9903 7.13561 13.5483 7.13561H12.3769C12.0896 7.13561 11.8244 7.27388 11.6918 7.49091L10.9182 8.73472L8.66379 5.14159C8.37642 4.68755 7.55871 4.68755 7.29353 5.14159L6.05588 7.11583H4.13308L4.00034 6.9974C2.74047 5.57594 2.80693 3.54247 4.19922 2.35792C4.92857 1.74594 5.83478 1.41032 6.82935 1.41032H7.07248C8.13331 1.46953 9.10583 1.92359 9.76887 2.67384L10.4097 3.38457C10.8297 3.83861 11.6696 3.83861 12.0894 3.38457L12.5977 2.8121C13.8576 1.39065 16.1118 1.0155 17.7032 1.9434C18.6094 2.47648 19.206 3.28582 19.3829 4.23356C19.5597 5.16146 19.2723 6.12891 18.6092 6.85931L11.9788 14.2825C11.6251 14.6773 10.8957 14.6773 10.5422 14.2825L6.71885 10.0181H4.70756L9.3047 15.1511C9.79094 15.6842 10.4981 16 11.2497 16C12.0233 16 12.7305 15.7039 13.1947 15.1511L19.8251 7.72798C20.7754 6.68149 21.1733 5.31926 20.9302 3.99665L20.9303 3.99635Z" fill="white"/>
</svg>
