<svg width="27" height="37" viewBox="0 0 27 37" fill="none" xmlns="http://www.w3.org/2000/svg">
<path d="M7.92871 22.4644H9.25014V19.1609C9.07491 19.1609 8.90685 19.0912 8.78294 18.9673C8.65904 18.8434 8.58943 18.6754 8.58943 18.5001C8.58943 18.3249 8.65904 18.1569 8.78294 18.0329C8.90685 17.909 9.07491 17.8394 9.25014 17.8394V17.1787H7.92871V22.4644Z" fill="#1351B4"/>
<path d="M25.7679 35.6786H25.1071V0.660714C25.1071 0.485482 25.0375 0.317427 24.9136 0.193519C24.7897 0.0696109 24.6217 0 24.4464 0H1.98214C1.80691 0 1.63886 0.0696109 1.51495 0.193519C1.39104 0.317427 1.32143 0.485482 1.32143 0.660714V35.6786H0.660714C0.485482 35.6786 0.317427 35.7482 0.193519 35.8721C0.0696109 35.996 0 36.1641 0 36.3393C0 36.5145 0.0696109 36.6826 0.193519 36.8065C0.317427 36.9304 0.485482 37 0.660714 37H25.7679C25.9431 37 26.1111 36.9304 26.2351 36.8065C26.359 36.6826 26.4286 36.5145 26.4286 36.3393C26.4286 36.1641 26.359 35.996 26.2351 35.8721C26.1111 35.7482 25.9431 35.6786 25.7679 35.6786ZM11.8929 17.8393C12.0681 17.8393 12.2361 17.9089 12.3601 18.0328C12.484 18.1567 12.5536 18.3248 12.5536 18.5C12.5536 18.6752 12.484 18.8433 12.3601 18.9672C12.2361 19.0911 12.0681 19.1607 11.8929 19.1607H10.5714V23.125C10.5714 23.3002 10.5018 23.4683 10.3779 23.5922C10.254 23.7161 10.0859 23.7857 9.91071 23.7857H7.26786C7.09262 23.7857 6.92457 23.7161 6.80066 23.5922C6.67675 23.4683 6.60714 23.3002 6.60714 23.125V16.5179C6.60714 16.3426 6.67675 16.1746 6.80066 16.0507C6.92457 15.9268 7.09262 15.8571 7.26786 15.8571H9.91071C10.0859 15.8571 10.254 15.9268 10.3779 16.0507C10.5018 16.1746 10.5714 16.3426 10.5714 16.5179V17.8393H11.8929ZM11.8929 5.94643C11.8929 5.7712 11.9625 5.60314 12.0864 5.47923C12.2103 5.35533 12.3783 5.28571 12.5536 5.28571H13.875C14.0502 5.28571 14.2183 5.35533 14.3422 5.47923C14.4661 5.60314 14.5357 5.7712 14.5357 5.94643C14.5357 6.12166 14.4661 6.28972 14.3422 6.41362C14.2183 6.53753 14.0502 6.60714 13.875 6.60714H12.5536C12.3783 6.60714 12.2103 6.53753 12.0864 6.41362C11.9625 6.28972 11.8929 6.12166 11.8929 5.94643ZM21.1429 35.6786V3.96429H5.28571V35.6786H3.96429V3.30357C3.96429 3.12834 4.0339 2.96028 4.1578 2.83638C4.28171 2.71247 4.44977 2.64286 4.625 2.64286H21.8036C21.9788 2.64286 22.1469 2.71247 22.2708 2.83638C22.3947 2.96028 22.4643 3.12834 22.4643 3.30357V35.6786H21.1429Z" fill="#1351B4"/>
</svg>
