<svg width="31" height="27" viewBox="0 0 31 27" fill="none" xmlns="http://www.w3.org/2000/svg">
<path d="M16.9977 21.3838C16.8621 21.3838 16.752 21.4875 16.752 21.6152V25.5365H1.49158V4.44574H5.6544V4.9397C5.6544 5.44482 6.08537 5.85588 6.61572 5.85588H11.6278C12.1582 5.85588 12.5891 5.4448 12.5891 4.9397V4.44574H16.7519V8.01136C16.7519 8.13909 16.8621 8.24284 16.9977 8.24284C17.1333 8.24284 17.2434 8.13909 17.2434 8.01136V4.21426C17.2434 4.08653 17.1333 3.98278 16.9977 3.98278H12.5891V3.48924C12.5891 2.98412 12.1581 2.57343 11.6278 2.57343L11.0371 2.57363C10.8979 1.6874 10.0845 1 9.12206 1C8.15962 1 7.34576 1.6874 7.20707 2.57363H6.61634C6.08597 2.57363 5.65502 2.9843 5.65502 3.48944V3.98299L1.24576 3.98278C1.11015 3.98278 1 4.08653 1 4.21426V25.7685C1 25.8962 1.11015 26 1.24576 26H16.9977C17.1333 26 17.2434 25.8962 17.2434 25.7685V21.6158C17.2434 21.4876 17.1335 21.3843 16.9977 21.3843L16.9977 21.3838ZM6.14593 3.48924C6.14593 3.23978 6.3568 3.03641 6.61574 3.03641H7.6721L7.67758 2.8101C7.69624 2.06752 8.34353 1.46297 9.12211 1.46297C9.90024 1.46297 10.548 2.06752 10.5662 2.8101L10.5717 3.03641H11.628C11.887 3.03641 12.0978 3.23957 12.0978 3.48924V4.94013C12.0978 5.19021 11.887 5.39337 11.628 5.39337L6.61575 5.39358C6.35682 5.39358 6.14595 5.19041 6.14595 4.94033L6.14593 3.48924Z" fill="#1351B4" stroke="#1351B4" stroke-width="0.9"/>
<path d="M26.8315 16.7663L20.3124 23.0033L13.7198 16.7029C13.7099 16.6853 13.6976 16.669 13.6829 16.6543C11.9611 14.9178 11.997 12.239 13.7645 10.5565C15.4952 8.90182 18.3496 8.86997 20.1274 10.4852C20.1623 10.5166 20.2067 10.5352 20.2532 10.5416C20.2619 10.5439 20.2714 10.5457 20.2802 10.5472C20.3574 10.5596 20.434 10.536 20.4895 10.4856C22.2994 8.84765 25.0976 8.87865 26.8608 10.5569C28.0203 11.6653 28.4657 13.2966 28.0227 14.8147C27.9867 14.9378 28.0635 15.0656 28.1948 15.0988C28.324 15.1327 28.4607 15.0604 28.4965 14.9368C28.986 13.2601 28.493 11.4572 27.2102 10.2308C25.3071 8.41968 22.3155 8.33904 20.308 10.0123C18.3292 8.36365 15.2817 8.44529 13.4137 10.2308C11.477 12.0748 11.4211 15.0007 13.2746 16.9212C13.286 16.9429 13.3012 16.9633 13.3203 16.9813L20.137 23.4961C20.1833 23.5401 20.2461 23.5651 20.3119 23.5651C20.3778 23.5651 20.4407 23.5401 20.4868 23.4961L27.1817 17.0914C27.2765 17.0002 27.2756 16.8539 27.1788 16.764C27.0827 16.6737 26.9274 16.6745 26.8315 16.7663L26.8315 16.7663Z" fill="#1351B4" stroke="#1351B4" stroke-width="0.9"/>
<path d="M12.6492 9.00492C12.6492 8.87719 12.5391 8.77344 12.4035 8.77344H6.43717C6.30156 8.77344 6.19141 8.87719 6.19141 9.00492C6.19141 9.13264 6.30156 9.23639 6.43717 9.23639H12.4035C12.5395 9.23639 12.6492 9.13264 12.6492 9.00492Z" fill="#1351B4" stroke="#1351B4" stroke-width="0.9"/>
<path d="M11.0698 11.5078H6.43717C6.30156 11.5078 6.19141 11.6116 6.19141 11.7393C6.19141 11.867 6.30156 11.9708 6.43717 11.9708H11.0698C11.2054 11.9708 11.3156 11.867 11.3156 11.7393C11.3156 11.6116 11.2054 11.5078 11.0698 11.5078Z" fill="#1351B4" stroke="#1351B4" stroke-width="0.9"/>
<path d="M6.43717 14.7091H10.8118C10.9474 14.7091 11.0575 14.6053 11.0575 14.4776C11.0575 14.3498 10.9474 14.2461 10.8118 14.2461H6.43717C6.30156 14.2461 6.19141 14.3498 6.19141 14.4776C6.19141 14.6053 6.30134 14.7091 6.43717 14.7091Z" fill="#1351B4" stroke="#1351B4" stroke-width="0.9"/>
<path d="M12.246 17.2139C12.246 17.0862 12.1358 16.9824 12.0002 16.9824H6.43717C6.30156 16.9824 6.19141 17.0862 6.19141 17.2139C6.19141 17.3416 6.30156 17.4454 6.43717 17.4454H12.0002C12.1362 17.4454 12.246 17.3416 12.246 17.2139Z" fill="#1351B4" stroke="#1351B4" stroke-width="0.9"/>
<path d="M6.43717 19.7188C6.30156 19.7188 6.19141 19.8225 6.19141 19.9502C6.19141 20.078 6.30156 20.1817 6.43717 20.1817H10.2559C10.3915 20.1817 10.5017 20.078 10.5017 19.9502C10.5017 19.8225 10.3915 19.7188 10.2559 19.7188H6.43717Z" fill="#1351B4" stroke="#1351B4" stroke-width="0.9"/>
<path d="M30 15.9046C30 15.7769 29.8899 15.6731 29.7542 15.6731H24.0132C23.997 15.6731 23.9842 15.682 23.9689 15.6847C23.896 15.6977 23.8297 15.7343 23.7949 15.7978L23.0262 17.1885L21.2718 14.0098C21.2295 13.9329 21.1454 13.8848 21.0535 13.8848C20.9684 13.8848 20.8929 13.9292 20.8485 13.9968C20.8446 14.0024 20.8367 14.0046 20.8334 14.011L19.9153 15.6725H17.8932C17.7576 15.6725 17.6475 15.7763 17.6475 15.904C17.6475 16.0317 17.7576 16.1355 17.8932 16.1355H17.8941H17.895H20.0641H20.0649H20.0665C20.1584 16.1355 20.242 16.0873 20.2848 16.0104L21.0521 14.6211L22.8078 17.7969L22.8083 17.7973V17.7977C22.8506 17.8746 22.9347 17.9228 23.0259 17.9228C23.1174 17.9228 23.2015 17.8746 23.2443 17.7977L24.1619 16.1352L29.7542 16.1356C29.8898 16.136 29.9999 16.0329 29.9999 15.9046L30 15.9046Z" fill="#1351B4" stroke="#1351B4" stroke-width="0.9"/>
<path d="M8.97201 3.59973C9.19802 3.59973 9.41043 3.51603 9.56976 3.3637C9.89562 3.05265 9.89606 2.54466 9.56976 2.23171C9.41001 2.07938 9.19826 1.99609 8.97313 1.99609C8.83752 1.99609 8.72737 2.09984 8.72737 2.22757C8.72737 2.3553 8.83752 2.45905 8.97313 2.45905C9.06551 2.45905 9.1535 2.49419 9.21933 2.55681C9.35846 2.69012 9.35846 2.90631 9.21977 3.03879C9.1535 3.10224 9.06551 3.13696 8.97248 3.13696C8.8801 3.13696 8.79211 3.10224 8.72627 3.03879C8.63148 2.94764 8.47569 2.9462 8.3787 3.0361C8.28192 3.126 8.28039 3.27212 8.37584 3.36348C8.53449 3.5158 8.74625 3.59971 8.97202 3.59971L8.97201 3.59973Z" fill="#1351B4" stroke="#1351B4" stroke-width="0.9"/>
<path d="M4.88578 8.24645C4.78901 8.15655 4.63365 8.15758 4.5382 8.24872L3.51588 9.22506L3.11915 8.61576C3.04827 8.50704 2.89752 8.47232 2.781 8.53929C2.66558 8.60604 2.62872 8.74844 2.69982 8.85778L3.26025 9.71941C3.29953 9.77997 3.36645 9.82027 3.44172 9.82812C3.45116 9.82895 3.46037 9.82957 3.46981 9.82957C3.5352 9.82957 3.59862 9.80498 3.6447 9.76054L4.88733 8.57356C4.98366 8.48304 4.98279 8.3363 4.8858 8.24639L4.88578 8.24645Z" fill="#1351B4" stroke="#1351B4" stroke-width="0.9"/>
<path d="M4.88565 10.8363C4.78888 10.7464 4.63352 10.7474 4.53807 10.8386L3.51637 11.8145L3.11964 11.2052C3.04876 11.0965 2.89801 11.0622 2.78149 11.1287C2.66607 11.1955 2.62921 11.3379 2.7003 11.4472L3.26073 12.3088C3.30001 12.3694 3.36694 12.4097 3.44221 12.4175C3.45164 12.4184 3.46086 12.419 3.47029 12.419C3.53569 12.419 3.5991 12.3944 3.64518 12.35L4.88782 11.163C4.98349 11.0725 4.98261 10.9257 4.88562 10.8362L4.88565 10.8363Z" fill="#1351B4" stroke="#1351B4" stroke-width="0.9"/>
<path d="M4.88561 13.4261C4.78884 13.3362 4.63349 13.3373 4.53803 13.4284L3.51571 14.4048L3.11964 13.7959C3.04876 13.6876 2.89801 13.6528 2.78149 13.7194C2.66607 13.7862 2.62921 13.9286 2.7003 14.0379L3.26074 14.8989C3.30001 14.9594 3.36694 14.9997 3.44221 15.0076C3.45164 15.0084 3.46086 15.009 3.47029 15.009C3.53569 15.009 3.5991 14.9845 3.64518 14.94L4.88782 13.753C4.98349 13.6627 4.98262 13.516 4.88563 13.4261L4.88561 13.4261Z" fill="#1351B4" stroke="#1351B4" stroke-width="0.9"/>
<path d="M4.88561 16.016C4.78884 15.9261 4.63349 15.9271 4.53803 16.0183L3.51571 16.9946L3.11964 16.3857C3.04876 16.277 2.89801 16.2427 2.78149 16.3092C2.66607 16.376 2.62921 16.5184 2.7003 16.6277L3.26074 17.4887C3.30001 17.5493 3.36694 17.5896 3.44221 17.5974C3.45164 17.5983 3.46086 17.5989 3.47029 17.5989C3.53569 17.5989 3.5991 17.5743 3.64518 17.5298L4.88782 16.3429C4.98349 16.2522 4.98262 16.1052 4.88563 16.0159L4.88561 16.016Z" fill="#1351B4" stroke="#1351B4" stroke-width="0.9"/>
<path d="M4.53869 19.1297L3.51637 20.1061L3.11964 19.4968C3.04876 19.3881 2.89801 19.3533 2.78149 19.4203C2.66607 19.4871 2.62921 19.6295 2.7003 19.7388L3.26074 20.6004C3.30001 20.661 3.36694 20.7013 3.44221 20.7091C3.45164 20.71 3.46086 20.7106 3.47029 20.7106C3.53569 20.7106 3.5991 20.686 3.64518 20.6415L4.88782 19.4546C4.98327 19.3634 4.98218 19.2171 4.88541 19.1272C4.7893 19.0375 4.63393 19.0383 4.5387 19.1297L4.53869 19.1297Z" fill="#1351B4" stroke="#1351B4" stroke-width="0.9"/>
</svg>
