<svg width="100" height="100" viewBox="0 0 100 100" fill="none" xmlns="http://www.w3.org/2000/svg">
<mask id="mask0_501_467" style="mask-type:luminance" maskUnits="userSpaceOnUse" x="0" y="0" width="100" height="100">
<path d="M100 0H0V100H100V0Z" fill="white"/>
</mask>
<g mask="url(#mask0_501_467)">
<path fill-rule="evenodd" clip-rule="evenodd" d="M50 93.75C61.6033 93.75 72.7312 89.1408 80.9358 80.9358C89.1408 72.7312 93.75 61.6033 93.75 50C93.75 38.3968 89.1408 27.2688 80.9358 19.0641C72.7312 10.8594 61.6033 6.25 50 6.25C38.3968 6.25 27.2688 10.8594 19.0641 19.0641C10.8594 27.2688 6.25 38.3968 6.25 50C6.25 61.6033 10.8594 72.7312 19.0641 80.9358C27.2688 89.1408 38.3968 93.75 50 93.75ZM50 100C63.2608 100 75.9783 94.7321 85.3554 85.3554C94.7321 75.9783 100 63.2608 100 50C100 36.7392 94.7321 24.0215 85.3554 14.6447C75.9783 5.26783 63.2608 0 50 0C36.7392 0 24.0215 5.26783 14.6447 14.6447C5.26783 24.0215 0 36.7392 0 50C0 63.2608 5.26783 75.9783 14.6447 85.3554C24.0215 94.7321 36.7392 100 50 100Z" fill="#E51010" fill-opacity="0.58"/>
<path fill-rule="evenodd" clip-rule="evenodd" d="M74.0877 25.912C74.3785 26.2023 74.6094 26.5471 74.7669 26.9268C74.9244 27.3064 75.0056 27.7134 75.0056 28.1245C75.0056 28.5355 74.9244 28.9425 74.7669 29.3222C74.6094 29.7019 74.3785 30.0467 74.0877 30.337L30.3376 74.0871C29.7508 74.6738 28.9549 75.0034 28.1251 75.0034C27.2952 75.0034 26.4993 74.6738 25.9126 74.0871C25.3258 73.5 24.9961 72.7042 24.9961 71.8746C24.9961 71.0446 25.3258 70.2488 25.9126 69.6621L69.6627 25.912C69.9527 25.6209 70.2977 25.3901 70.6773 25.2325C71.0568 25.075 71.4639 24.9939 71.8752 24.9939C72.286 24.9939 72.6931 25.075 73.0727 25.2325C73.4523 25.3901 73.7973 25.6209 74.0877 25.912Z" fill="#E51010" fill-opacity="0.58"/>
<path fill-rule="evenodd" clip-rule="evenodd" d="M25.9122 25.912C25.6212 26.2023 25.3903 26.5471 25.2328 26.9268C25.0752 27.3064 24.9941 27.7134 24.9941 28.1245C24.9941 28.5355 25.0752 28.9425 25.2328 29.3222C25.3903 29.7019 25.6212 30.0467 25.9122 30.337L69.6623 74.0871C70.249 74.6738 71.0448 75.0034 71.8748 75.0034C72.7044 75.0034 73.5002 74.6738 74.0873 74.0871C74.674 73.5 75.0036 72.7042 75.0036 71.8746C75.0036 71.0446 74.674 70.2488 74.0873 69.6621L30.3372 25.912C30.0469 25.6209 29.7021 25.3901 29.3224 25.2325C28.9428 25.075 28.5358 24.9939 28.1247 24.9939C27.7136 24.9939 27.3066 25.075 26.927 25.2325C26.5473 25.3901 26.2025 25.6209 25.9122 25.912Z" fill="#E51010" fill-opacity="0.58"/>
</g>
</svg>
