<svg width="23" height="21" viewBox="0 0 23 21" fill="none" xmlns="http://www.w3.org/2000/svg">
<path d="M20.2787 1.55371H17.9673V3.74567C17.9673 4.19219 17.6086 4.5575 17.1702 4.5575C16.7239 4.5575 16.3732 4.19219 16.3732 3.74567V1.55371H6.21875V3.74567C6.21875 4.19219 5.86805 4.5575 5.42169 4.5575C4.9833 4.5575 4.62464 4.19219 4.62464 3.74567V1.55371H2.31316C1.11758 1.55371 0.137207 2.55228 0.137207 3.77814V5.78339H22.4549V3.77814C22.4549 2.55226 21.4743 1.55371 20.2787 1.55371Z" fill="#1351B4"/>
<path d="M0.136963 17.8719C0.136963 19.0978 1.11736 20.0963 2.31292 20.0963H14.4522C14.1493 19.2358 14.3406 18.2453 15.0101 17.5634L15.7992 16.7678L15.0101 15.9641C14.0776 15.0142 14.0776 13.4717 15.0101 12.5219C15.9427 11.5639 17.4571 11.5639 18.3897 12.5219L19.1788 13.3175L19.9679 12.5219C20.6374 11.8318 21.6098 11.637 22.4547 11.9455V7.40723H0.137039L0.136963 17.8719Z" fill="#1351B4"/>
<path d="M6.21863 0.985664C6.21863 0.539141 5.86792 0.173828 5.42157 0.173828C4.98318 0.173828 4.62451 0.539141 4.62451 0.985664V1.55395H6.21863V0.985664Z" fill="#1351B4"/>
<path d="M17.9669 0.985664C17.9669 0.539141 17.6083 0.173828 17.1699 0.173828C16.7235 0.173828 16.3728 0.539141 16.3728 0.985664V1.55395H17.9669V0.985664Z" fill="#1351B4"/>
<path d="M22.2213 13.6667C21.9104 13.35 21.4053 13.35 21.0944 13.6667L19.1795 15.6171L17.2645 13.6667C16.9537 13.35 16.4486 13.35 16.1377 13.6667C15.8268 13.9833 15.8268 14.4978 16.1377 14.8144L18.0526 16.7638L16.1377 18.7132C15.8268 19.0299 15.8268 19.5444 16.1377 19.861C16.2931 20.0193 16.4974 20.0985 16.7016 20.0985C16.9058 20.0985 17.1091 20.0193 17.2655 19.861L19.1804 17.9106L21.0954 19.861C21.2498 20.0203 21.453 20.1005 21.6573 20.1005C21.8615 20.1005 22.0648 20.0213 22.2212 19.863C22.5321 19.5464 22.5321 19.0319 22.2212 18.7153L20.3063 16.7659L22.2212 14.8164C22.5321 14.4968 22.5321 13.9833 22.2213 13.6667Z" fill="#1351B4"/>
</svg>
