<svg width="27" height="26" viewBox="0 0 27 26" fill="none" xmlns="http://www.w3.org/2000/svg">
<path d="M4.39308 8.29728e-05C4.14343 8.29728e-05 3.90406 0.108182 3.72755 0.300526C3.55105 0.492869 3.45183 0.753694 3.45183 1.02573V2.05138H0.941492V2.05162C0.908861 2.04971 0.87601 2.04971 0.843381 2.05162C0.611027 2.0781 0.396187 2.19766 0.240253 2.38737C0.0845482 2.57685 -0.00108289 2.82264 1.034e-05 3.07727V19.4892C1.034e-05 19.7613 0.0992142 20.0221 0.275729 20.2144C0.452239 20.4068 0.691825 20.5149 0.94148 20.5149H15.3761C15.6281 20.5189 15.871 20.4125 16.0506 20.2197C16.2302 20.0269 16.3311 19.7639 16.3311 19.4892C16.3311 19.2145 16.2302 18.9513 16.0506 18.7585C15.871 18.5657 15.6281 18.4595 15.3761 18.4633H1.88278V8.88984H21.3378V13.3347H21.3381C21.3343 13.6093 21.432 13.874 21.609 14.0694C21.7859 14.2651 22.0272 14.3751 22.2793 14.3751C22.5314 14.3751 22.7729 14.2651 22.9497 14.0694C23.1266 13.874 23.2243 13.6093 23.2208 13.3347V3.07696V3.0772C23.2208 2.80516 23.1216 2.54409 22.9451 2.35175C22.7683 2.15942 22.529 2.05131 22.2793 2.05131H19.769V1.02566C19.769 0.753622 19.6698 0.49279 19.4932 0.300459C19.3167 0.108122 19.0774 1.63229e-05 18.8277 1.63229e-05H16.3174C16.0837 -0.00141545 15.8579 0.0918905 15.684 0.261557C15.5101 0.431462 15.4002 0.665566 15.3759 0.918767C15.3741 0.954324 15.3741 0.990121 15.3759 1.02568V2.05132H7.84492V1.02568C7.84668 0.990119 7.84668 0.954322 7.84492 0.918767C7.82061 0.665578 7.71068 0.431474 7.53679 0.261557C7.36291 0.0918905 7.13712 -0.0014193 6.90345 1.63229e-05L4.39308 8.29728e-05ZM5.33455 2.05162H5.96218V4.10316H5.33455V2.05162ZM17.2586 2.05162H17.8863V4.10316H17.2586V2.05162ZM1.88274 4.10316H3.45161V5.12881H3.45183C3.45183 5.40085 3.55103 5.66168 3.72755 5.85401C3.90406 6.04634 4.14343 6.15445 4.39308 6.15445H6.90342C7.15307 6.15445 7.39266 6.04635 7.56917 5.85401C7.74568 5.66167 7.84489 5.40084 7.84489 5.12881V4.10316H15.3759V5.12881C15.3759 5.40085 15.4751 5.66168 15.6516 5.85401C15.8281 6.04635 16.0677 6.15445 16.3173 6.15445H18.8277C19.0773 6.15445 19.3167 6.04635 19.4932 5.85401C19.6697 5.66167 19.7689 5.40084 19.7689 5.12881V4.10316H21.3378V6.83836H1.88273L1.88274 4.10316ZM21.9556 15.0231L21.9558 15.0228C21.7044 15.0257 21.4644 15.1381 21.2894 15.3347C21.1144 15.5314 21.019 15.7963 21.0242 16.07V19.4891H17.8862C17.8535 19.4872 17.8207 19.4872 17.7881 19.4891C17.538 19.5025 17.303 19.624 17.135 19.8263C16.9671 20.0289 16.8799 20.2959 16.8931 20.5684C16.906 20.841 17.0181 21.0968 17.2045 21.2791C17.3908 21.4614 17.6361 21.5557 17.8862 21.5406H21.0242V24.9598C21.0205 25.2342 21.1182 25.4989 21.2951 25.6945C21.4721 25.89 21.7136 26 21.9655 26C22.2175 26 22.4591 25.89 22.636 25.6945C22.8128 25.4989 22.9104 25.2342 22.9069 24.9598V21.5406H26.045C26.2968 21.5447 26.5399 21.4383 26.7195 21.2455C26.8988 21.0526 27 20.7894 27 20.515C27 20.2403 26.8988 19.9771 26.7195 19.7843C26.5399 19.5915 26.2968 19.4853 26.045 19.4891H22.9069V16.0699C22.9122 15.7924 22.8141 15.5244 22.6347 15.3271C22.4556 15.1297 22.2105 15.02 21.9559 15.0228L21.9556 15.0231Z" fill="#0459A1"/>
</svg>
