<svg width="19" height="23" viewBox="0 0 19 23" fill="none" xmlns="http://www.w3.org/2000/svg">
<path d="M0.388916 22.8906H18.3887V19.0901H9.94439C9.20502 18.851 8.52333 18.4888 7.91167 18.0109H18.3889V16.6991H15.6443V15.7685H14.0466V14.8379H10.4558V15.7685H8.85813V16.6991H6.6342C5.76987 15.5312 5.31365 14.1435 5.31365 12.6801C5.31365 11.1228 5.84822 9.61687 6.82289 8.41615C7.23704 8.81927 7.78949 9.04665 8.36915 9.04665C8.83797 9.04665 9.29495 8.8943 9.67207 8.61987V8.95432H10.4558V11.0142C10.4558 11.8354 11.1173 12.5033 11.9305 12.5033H12.5716C13.3851 12.5033 14.0466 11.8352 14.0466 11.0142V8.95432H14.8303V3.29257H13.9078V2.07252H14.5081V0.890625H9.99377V2.07252H10.5946V3.29257H9.67207V4.96991C9.29495 4.69548 8.83797 4.54313 8.36915 4.54313C7.18439 4.54313 6.21224 5.48087 6.14271 6.65946C2.79926 7.2836 0.388916 10.2001 0.388916 13.6542C0.388916 15.7509 1.31522 17.7439 2.89146 19.0898H0.388916V22.8906ZM8.34245 6.29576C8.60873 6.29576 8.82538 6.51449 8.82538 6.78332C8.82538 7.05215 8.60873 7.27088 8.34245 7.27088C8.07618 7.27088 7.85953 7.05215 7.85953 6.78332C7.85953 6.51449 8.07618 6.29576 8.34245 6.29576Z" fill="white"/>
</svg>
