<svg width="28" height="34" viewBox="0 0 28 34" fill="none" xmlns="http://www.w3.org/2000/svg">
<path d="M0 34H27.9996V28.1264H14.8641C13.7139 27.757 12.6535 27.1972 11.7021 26.4587H28V24.4313H23.7306V22.993H21.2453V21.5548H15.6596V22.993H13.1743V24.4313H9.71489C8.37037 22.6263 7.6607 20.4818 7.6607 18.2201C7.6607 15.8133 8.49225 13.486 10.0084 11.6304C10.6526 12.2534 11.512 12.6048 12.4137 12.6048C13.143 12.6048 13.8538 12.3693 14.4405 11.9452V12.4621H15.6596V15.6455C15.6596 16.9147 16.6886 17.9469 17.9536 17.9469H18.9509C20.2163 17.9469 21.2453 16.9143 21.2453 15.6455V12.4621H22.4644V3.71209H21.0294V1.82657H21.9632V0H14.9409V1.82657H15.8755V3.71209H14.4405V6.30435C13.8538 5.88023 13.143 5.64479 12.4137 5.64479C10.5707 5.64479 9.0585 7.09401 8.95034 8.91547C3.74943 9.88005 0 14.3873 0 19.7255C0 22.9659 1.44091 26.046 3.89285 28.1261H0V34ZM12.3722 8.35339C12.7864 8.35339 13.1234 8.69142 13.1234 9.10689C13.1234 9.52236 12.7864 9.86039 12.3722 9.86039C11.958 9.86039 11.6209 9.52236 11.6209 9.10689C11.6209 8.69142 11.958 8.35339 12.3722 8.35339Z" fill="#1351B4"/>
</svg>
