<svg width="18" height="22" viewBox="0 0 18 22" fill="none" xmlns="http://www.w3.org/2000/svg">
<path d="M3.70252 13.4028C3.4178 13.4028 3.18701 13.6134 3.18701 13.8731C3.18701 14.1328 3.4178 14.3434 3.70252 14.3434C3.98724 14.3434 4.21803 14.1328 4.21803 13.8731C4.2178 13.6134 3.98701 13.4028 3.70252 13.4028Z" fill="white" stroke="white" stroke-width="0.5"/>
<path d="M8.49258 13.5698H5.10973C4.92658 13.5698 4.77783 13.7055 4.77783 13.8726C4.77783 14.0396 4.92658 14.1753 5.10973 14.1753H8.49258C8.67573 14.1753 8.82448 14.0396 8.82448 13.8726C8.82471 13.7055 8.67596 13.5698 8.49258 13.5698Z" fill="white" stroke="white" stroke-width="0.5"/>
<path d="M3.70252 14.9487C3.4178 14.9487 3.18701 15.1593 3.18701 15.419C3.18701 15.6787 3.4178 15.8892 3.70252 15.8892C3.98724 15.8892 4.21803 15.6787 4.21803 15.419C4.2178 15.1593 3.98701 14.9487 3.70252 14.9487Z" fill="white" stroke="white" stroke-width="0.5"/>
<path d="M8.49258 15.1157H5.10973C4.92658 15.1157 4.77783 15.2514 4.77783 15.4185C4.77783 15.5856 4.92658 15.7213 5.10973 15.7213H8.49258C8.67573 15.7213 8.82448 15.5856 8.82448 15.4185C8.82471 15.2514 8.67596 15.1157 8.49258 15.1157Z" fill="white" stroke="white" stroke-width="0.5"/>
<path d="M3.70252 16.4946C3.4178 16.4946 3.18701 16.7052 3.18701 16.9649C3.18701 17.2246 3.4178 17.4352 3.70252 17.4352C3.98724 17.4352 4.21803 17.2246 4.21803 16.9649C4.2178 16.7052 3.98701 16.4946 3.70252 16.4946Z" fill="white" stroke="white" stroke-width="0.5"/>
<path d="M8.49258 16.6621H5.10973C4.92658 16.6621 4.77783 16.7978 4.77783 16.9649C4.77783 17.132 4.92658 17.2677 5.10973 17.2677H8.49258C8.67573 17.2677 8.82448 17.132 8.82448 16.9649C8.82471 16.7978 8.67596 16.6621 8.49258 16.6621Z" fill="white" stroke="white" stroke-width="0.5"/>
<path d="M3.70252 18.041C3.4178 18.041 3.18701 18.2516 3.18701 18.5113C3.18701 18.771 3.4178 18.9816 3.70252 18.9816C3.98724 18.9816 4.21803 18.771 4.21803 18.5113C4.2178 18.2516 3.98701 18.041 3.70252 18.041Z" fill="white" stroke="white" stroke-width="0.5"/>
<path d="M8.49258 18.208H5.10973C4.92658 18.208 4.77783 18.3437 4.77783 18.5108C4.77783 18.6778 4.92658 18.8135 5.10973 18.8135H8.49258C8.67573 18.8135 8.82448 18.6778 8.82448 18.5108C8.82471 18.3437 8.67596 18.208 8.49258 18.208Z" fill="white" stroke="white" stroke-width="0.5"/>
<path d="M14.0124 8.9097H12.9338C14.6149 8.31818 15.8128 6.83248 15.8128 5.0931C15.8128 2.83633 13.8 1 11.3259 1C8.85205 1 6.83906 2.83611 6.83906 5.0931C6.83906 6.83254 8.03696 8.31818 9.71806 8.9097H8.63916C6.98316 8.9097 5.59629 9.96937 5.2428 11.3838H1.33189C1.14875 11.3838 1 11.5195 1 11.6866V20.6972C1 20.8643 1.14875 21 1.33189 21H10.3485C10.5316 21 10.6804 20.8643 10.6804 20.6972V19.0403C11.2205 19.3509 11.858 19.5332 12.5436 19.5332C14.4786 19.5332 16.0472 18.1023 16.0472 16.3372C16.0472 16.2439 16.0404 16.1523 16.0318 16.0611C16.0413 16.1521 16.0472 16.2439 16.0472 16.3372C16.0472 16.3624 16.0437 16.3868 16.043 16.412H17.1679C17.351 16.412 17.4998 16.2763 17.4998 16.1093L17.5 12.091C17.5 10.337 15.9356 8.90986 14.0128 8.90986L14.0124 8.9097ZM7.50319 5.0931C7.50319 3.17025 9.21821 1.60574 11.326 1.60574C13.4339 1.60574 15.1489 3.17025 15.1489 5.0931C15.1489 7.01594 13.4339 8.58045 11.326 8.58045C9.21821 8.58024 7.50319 7.01573 7.50319 5.0931ZM1.66384 20.3946V11.9896H10.0164V14.1277C9.41301 14.7019 9.04048 15.4791 9.04048 16.3372C9.04048 17.1953 9.41328 17.9727 10.0164 18.5469V20.3945L1.66384 20.3946ZM13.9856 17.6276C13.8882 17.7182 13.7597 17.7636 13.6309 17.7636C13.5054 17.7636 13.3797 17.7205 13.2832 17.634L12.5502 16.978L11.8313 17.6465C11.7339 17.737 11.6054 17.7824 11.4767 17.7824C11.3511 17.7824 11.2254 17.7394 11.129 17.6529C10.933 17.4777 10.93 17.1906 11.122 17.0121L11.8411 16.3434L11.1083 15.6876C10.9124 15.5125 10.9093 15.2254 11.1013 15.0469C11.2935 14.8683 11.6085 14.8654 11.8037 15.0405L12.5367 15.6965L13.2556 15.028C13.4478 14.8495 13.7628 14.8463 13.958 15.0217C14.1539 15.1968 14.157 15.4839 13.965 15.6624L13.2459 16.3311L13.9787 16.9869C14.1746 17.1622 14.1776 17.4493 13.9856 17.6277L13.9856 17.6276ZM16.8355 15.8064H15.9946V15.8066C15.7169 14.2947 14.2796 13.1414 12.5434 13.1414C11.8578 13.1414 11.2202 13.3238 10.6801 13.6344V11.6869C10.6801 11.5199 10.5314 11.3842 10.3482 11.3842L5.93014 11.384C6.26808 10.3073 7.35164 9.51538 8.63897 9.51538H14.0123C15.5688 9.51538 16.8355 10.6709 16.8355 12.0908L16.8355 15.8064Z" fill="white" stroke="white" stroke-width="0.5"/>
</svg>
