<svg width="125" height="125" viewBox="0 0 125 125" fill="none" xmlns="http://www.w3.org/2000/svg">
<path d="M62.5 0C50.1387 0 38.055 3.66556 27.7769 10.5331C17.4988 17.4007 9.48803 27.1619 4.75756 38.5823C0.0270802 50.0027 -1.21063 62.5693 1.20095 74.6931C3.61252 86.8169 9.56507 97.9534 18.3059 106.694C27.0466 115.435 38.1831 121.387 50.3069 123.799C62.4307 126.211 74.9974 124.973 86.4177 120.242C97.8381 115.512 107.599 107.501 114.467 97.2231C121.334 86.945 125 74.8613 125 62.5C125 54.2924 123.383 46.1651 120.242 38.5823C117.102 30.9994 112.498 24.1095 106.694 18.3058C100.891 12.5022 94.0006 7.89845 86.4177 4.75753C78.8349 1.61661 70.7076 0 62.5 0ZM91.9375 51L60.125 82.8125C59.544 83.3983 58.8527 83.8632 58.0911 84.1805C57.3295 84.4978 56.5126 84.6612 55.6875 84.6612C54.8624 84.6612 54.0455 84.4978 53.2839 84.1805C52.5223 83.8632 51.831 83.3983 51.25 82.8125L33.0625 64.625C31.8985 63.454 31.2451 61.8699 31.2451 60.2187C31.2451 58.5676 31.8985 56.9835 33.0625 55.8125C33.6435 55.2267 34.3348 54.7617 35.0964 54.4444C35.858 54.1271 36.6749 53.9637 37.5 53.9637C38.3251 53.9637 39.142 54.1271 39.9036 54.4444C40.6652 54.7617 41.3565 55.2267 41.9375 55.8125L55.6875 69.5625L83.0625 42.1875C83.6435 41.6017 84.3348 41.1367 85.0964 40.8194C85.858 40.5021 86.6749 40.3387 87.5 40.3387C88.3251 40.3387 89.142 40.5021 89.9036 40.8194C90.6652 41.1367 91.3565 41.6017 91.9375 42.1875C93.1016 43.3585 93.755 44.9426 93.755 46.5937C93.755 48.2449 93.1016 49.829 91.9375 51Z" fill="#2B982B"/>
</svg>
